<svg width="641" height="465" viewBox="0 0 641 465" fill="none" xmlns="http://www.w3.org/2000/svg">
<g clip-path="url(#clip0_3_40)">
<path d="M426.885 462.744H19.5654C16.9956 462.743 14.4511 462.237 12.077 461.253C9.70302 460.269 7.54602 458.827 5.7292 457.01C3.91238 455.192 2.47133 453.035 1.48831 450.661C0.505291 448.286 -0.000436425 445.741 2.82589e-07 443.172V90.9141C-2.75859e-06 86.8561 1.26153 82.8986 3.60995 79.5892C5.95837 76.2799 9.27751 73.7824 13.1079 72.4426L216.769 1.2536C220.95 -0.209533 225.504 -0.209533 229.684 1.2536L433.346 72.4593C437.176 73.799 440.495 76.2965 442.844 79.6058C445.192 82.9152 446.454 86.8728 446.454 90.9307V443.172C446.454 445.742 445.948 448.287 444.965 450.661C443.982 453.036 442.54 455.194 440.723 457.011C438.906 458.829 436.749 460.27 434.374 461.254C432 462.238 429.455 462.744 426.885 462.744Z" fill="#F5EFD9"/>
<path d="M630.802 77.5399H463.638C458.387 77.5399 454.131 81.7962 454.131 87.0466V451.192C454.131 456.442 458.387 460.698 463.638 460.698H630.802C636.052 460.698 640.308 456.442 640.308 451.192V87.0466C640.308 81.7962 636.052 77.5399 630.802 77.5399Z" fill="#A0D6FF"/>
<path d="M445.998 70.3808L415.167 59.4841C414.082 59.1005 412.921 58.9828 411.781 59.141C410.641 59.2992 409.556 59.7287 408.616 60.3933C407.677 61.0578 406.91 61.9382 406.381 62.9604C405.853 63.9825 405.577 65.1166 405.577 66.2675V454.018" stroke="#D9AF00" stroke-width="1.43981" stroke-miterlimit="10" stroke-linecap="round"/>
<path d="M420.228 247.224H413.139" stroke="#D9AF00" stroke-width="1.43981" stroke-miterlimit="10" stroke-linecap="round"/>
<path d="M426.24 252.794C430.01 252.794 433.067 248.048 433.067 242.193C433.067 236.338 430.01 231.592 426.24 231.592C422.47 231.592 419.414 236.338 419.414 242.193C419.414 248.048 422.47 252.794 426.24 252.794Z" stroke="#D9AF00" stroke-width="1.43981" stroke-miterlimit="10" stroke-linecap="round"/>
<path d="M609.964 148.612L607.364 177.724H580.982L575.502 224.812C575.502 224.812 544.348 232.65 526.305 224.812L518.132 177.724L493.858 165.384L504.499 143.561C506.486 139.938 509.41 136.916 512.964 134.81C516.519 132.704 520.574 131.592 524.706 131.59H535.978C536.701 131.591 537.417 131.449 538.084 131.173C538.752 130.896 539.359 130.491 539.87 129.981C540.381 129.47 540.786 128.863 541.063 128.196C541.339 127.528 541.482 126.813 541.482 126.09V124.032C541.483 123.647 541.636 123.279 541.908 123.007C542.181 122.735 542.55 122.582 542.935 122.582H569.992C570.333 122.583 570.669 122.665 570.972 122.822C571.274 122.98 571.535 123.208 571.731 123.487L574.837 127.936C575.625 129.065 576.674 129.988 577.895 130.625C579.116 131.261 580.472 131.594 581.85 131.594H594.395C596.565 131.593 598.711 132.045 600.697 132.919C602.682 133.794 604.464 135.072 605.929 136.673C607.393 138.274 608.508 140.162 609.203 142.218C609.898 144.273 610.157 146.451 609.964 148.612Z" fill="white"/>
<path d="M518.132 177.724L525.274 161.993" stroke="#A0D6FF" stroke-width="1.43981" stroke-miterlimit="10"/>
<path d="M581.61 177.724V163.539" stroke="#A0D6FF" stroke-width="1.43981" stroke-miterlimit="10"/>
<path d="M476.351 447.57L477.747 458.48C477.825 459.089 477.753 459.708 477.538 460.284C477.323 460.859 476.971 461.373 476.513 461.782C476.054 462.19 475.503 462.481 474.907 462.629C474.311 462.777 473.688 462.777 473.092 462.63L425.565 450.909L425.661 450.473C425.838 449.669 426.291 448.952 426.942 448.447C427.593 447.942 428.4 447.682 429.223 447.71C436.375 447.959 454.547 448.043 459.595 442.642L476.351 447.57Z" fill="#56303C"/>
<path d="M425.558 451.538L475.489 464.107" stroke="#D9AF00" stroke-width="1.43981" stroke-miterlimit="10" stroke-linecap="round"/>
<path d="M456.423 448.738L452.921 445.203" stroke="#D9AF00" stroke-width="1.43981" stroke-miterlimit="10" stroke-linecap="round"/>
<path d="M451.389 449.998L447.887 446.463" stroke="#D9AF00" stroke-width="1.43981" stroke-miterlimit="10" stroke-linecap="round"/>
<path d="M526.305 224.815L454.149 441.039L484.198 449.878L550.17 300.52L567.937 351.661C568.463 353.177 569.309 354.561 570.419 355.719C571.529 356.877 572.876 357.782 574.368 358.372L640.313 384.474V356.21L596.187 331.547C595.097 330.938 594.188 330.049 593.556 328.972C592.923 327.895 592.59 326.668 592.59 325.419V255.191C592.59 248.642 590.273 242.305 586.049 237.301L575.505 224.815H526.305Z" fill="#D9AF00"/>
<path d="M550.167 303.037L541.182 266.72" stroke="white" stroke-width="1.55286" stroke-miterlimit="10" stroke-linecap="round"/>
<path d="M575.501 224.812L583.089 231.333C589.467 236.823 592.972 244.301 592.599 252.711V253.342L542.056 244.863L575.501 224.812Z" fill="#56303C"/>
<path d="M594.322 329.35L589.437 327.152" stroke="white" stroke-width="1.55286" stroke-miterlimit="10" stroke-linecap="round"/>
<path d="M640.309 356.198V384.479L634.324 382.111L638.67 355.284L640.309 356.198Z" fill="#56303C"/>
<path d="M410.771 233.325C410.344 232.146 410.168 230.891 410.255 229.64C410.342 228.39 410.69 227.171 411.277 226.063C412.712 223.301 415.078 221.137 417.957 219.955L476.963 195.797L493.868 165.385L518.142 177.725L493.815 213.005C491.327 216.61 487.531 219.102 483.234 219.951L423.657 231.589L418.669 241.452H416.956C415.994 241.452 415.055 241.154 414.269 240.598C413.483 240.043 412.888 239.257 412.567 238.349L410.771 233.325Z" fill="#B4702F"/>
<path d="M423.647 227.117L420.987 229.671C420.278 230.353 419.776 231.223 419.541 232.179C419.306 233.134 419.346 234.137 419.657 235.071L419.703 235.211" stroke="#56303C" stroke-width="1.43981" stroke-miterlimit="10" stroke-linecap="round"/>
<path d="M555.417 177.694C555.417 166.368 559.185 157.184 563.83 157.184C568.475 157.184 572.243 166.368 572.243 177.694H555.417Z" fill="#D9AF00"/>
<path d="M563.737 172.291C566.092 170.506 567.517 168.42 566.919 167.631C566.321 166.842 563.927 167.649 561.572 169.434C559.217 171.219 557.793 173.305 558.391 174.094C558.989 174.883 561.383 174.076 563.737 172.291Z" fill="white"/>
<path d="M528.11 177.694L539.097 167.828L550.968 177.724L528.11 177.694Z" fill="#A0D6FF"/>
<path d="M573.18 244.863H529.458L518.132 177.724H580.981L573.18 244.863Z" fill="#FFAFB1"/>
<path d="M530.086 244.863V177.724" stroke="white" stroke-width="0.901127" stroke-miterlimit="10"/>
<path d="M523.166 244.863V177.724" stroke="white" stroke-width="0.901127" stroke-miterlimit="10"/>
<path d="M537.215 244.863V177.724" stroke="white" stroke-width="0.901127" stroke-miterlimit="10"/>
<path d="M544.347 244.863V177.724" stroke="white" stroke-width="0.901127" stroke-miterlimit="10"/>
<path d="M551.477 244.863V177.724" stroke="white" stroke-width="0.901127" stroke-miterlimit="10"/>
<path d="M558.609 244.863V177.724" stroke="white" stroke-width="0.901127" stroke-miterlimit="10"/>
<path d="M565.737 244.863V177.724" stroke="white" stroke-width="0.901127" stroke-miterlimit="10"/>
<path d="M572.871 244.863V177.724" stroke="white" stroke-width="0.901127" stroke-miterlimit="10"/>
<path d="M573.705 239.605H528.848" stroke="white" stroke-width="0.901127" stroke-miterlimit="10"/>
<path d="M573.705 232.477H527.319" stroke="white" stroke-width="0.901127" stroke-miterlimit="10"/>
<path d="M573.197 225.344H525.79" stroke="white" stroke-width="0.901127" stroke-miterlimit="10"/>
<path d="M572.685 218.214H524.769" stroke="white" stroke-width="0.901127" stroke-miterlimit="10"/>
<path d="M573.197 211.081H523.748" stroke="white" stroke-width="0.901127" stroke-miterlimit="10"/>
<path d="M572.685 203.953H522.218" stroke="white" stroke-width="0.901127" stroke-miterlimit="10"/>
<path d="M572.684 196.824H521.197" stroke="white" stroke-width="0.901127" stroke-miterlimit="10"/>
<path d="M573.189 189.691H520.176" stroke="white" stroke-width="0.901127" stroke-miterlimit="10"/>
<path d="M572.685 182.561H518.647" stroke="white" stroke-width="0.901127" stroke-miterlimit="10"/>
<path d="M572.552 244.863L572.243 177.724H591.25L577.673 244.863H572.552Z" fill="#56303C"/>
<path d="M578.69 244.863L581.553 230.209" stroke="white" stroke-width="1.26025" stroke-miterlimit="10" stroke-linecap="round"/>
<path d="M511.675 223.532C513.915 219.422 517.581 216.272 521.983 214.677L579.066 194.061L580.965 177.731H607.364L602.964 204.299C602.492 207.152 601.169 209.795 599.169 211.883C597.169 213.971 594.585 215.406 591.755 216.001L524.533 230.123L522.205 237.106C521.696 238.634 520.719 239.963 519.412 240.904C518.104 241.845 516.534 242.351 514.923 242.35L511.675 223.532Z" fill="#B4702F"/>
<path d="M578.09 193.758L582.083 192.369" stroke="#56303C" stroke-width="1.43981" stroke-miterlimit="10" stroke-linecap="round"/>
<path d="M525.734 227.057L524.936 230.721" stroke="#56303C" stroke-width="1.43981" stroke-miterlimit="10" stroke-linecap="round"/>
<path d="M582.654 88.3733C583.536 90.3219 583.629 92.4167 582.727 94.2223C581.73 96.2174 579.698 97.4644 577.294 97.8035C577.594 99.414 577.479 101.074 576.959 102.628C576.44 104.182 575.533 105.577 574.325 106.683C573.116 107.789 571.646 108.569 570.052 108.95C568.459 109.33 566.795 109.298 565.217 108.856L560.828 96.8259H558.583C554.952 96.3937 552.162 93.8333 552.162 90.7508C552.163 90.4847 552.184 90.219 552.225 89.9561C551.517 90.1534 550.786 90.253 550.051 90.252C548.625 90.2761 547.222 89.896 546.003 89.1557C544.784 88.4154 543.8 87.3452 543.164 86.0689C542.764 86.2213 542.35 86.3327 541.927 86.4015C541.06 89.3941 538.107 91.6021 534.612 91.6021C530.422 91.6021 527.027 88.4531 527.027 84.5693C527.027 81.6298 528.969 79.116 531.726 78.0619C531.297 77.6913 530.975 77.2136 530.792 76.6775C530.609 76.1414 530.572 75.5663 530.684 75.0111C530.796 74.4559 531.054 73.9405 531.431 73.5177C531.808 73.095 532.291 72.7801 532.83 72.6052C532.558 71.8592 532.418 71.0715 532.417 70.2776C532.417 66.3904 535.669 63.2448 539.68 63.2448C541.073 63.2407 542.439 63.6303 543.62 64.3687C544.386 63.3564 545.375 62.5351 546.511 61.969C547.647 61.403 548.899 61.1076 550.168 61.106C551.437 61.1044 552.69 61.3966 553.827 61.9597C554.965 62.5229 555.956 63.3417 556.724 64.3521C557.447 63.3498 558.443 62.5765 559.593 62.1244C560.743 61.6723 561.998 61.5605 563.21 61.8023C564.422 62.0442 565.538 62.6295 566.427 63.4884C567.315 64.3473 567.937 65.4436 568.22 66.6465C569.102 66.325 570.034 66.1618 570.973 66.1643C575.119 66.1643 578.485 69.29 578.485 73.1472C578.484 74.3583 578.149 75.5457 577.517 76.5788C581.53 76.7185 584.739 79.791 584.739 83.5617C584.733 84.4626 584.544 85.353 584.186 86.1796C583.828 87.0063 583.307 87.7523 582.654 88.3733Z" fill="#56303C"/>
<path d="M542.19 84.5722C542.19 88.456 538.795 91.605 534.605 91.605C530.416 91.605 527.021 88.456 527.021 84.5722C527.021 80.6884 530.416 77.5394 534.605 77.5394" stroke="white" stroke-width="1.11061" stroke-miterlimit="10" stroke-linecap="round"/>
<path d="M558.726 88.8914C557.555 88.8906 556.433 88.4249 555.606 87.5969C554.778 86.7689 554.313 85.6462 554.313 84.4756" stroke="white" stroke-width="1.11061" stroke-miterlimit="10" stroke-linecap="round"/>
<path d="M552.738 89.2073C552.362 89.3237 551.314 89.7526 550.56 89.7526C546.054 89.7526 542.858 86.8797 543.045 82.7697" stroke="white" stroke-width="1.11061" stroke-miterlimit="10" stroke-linecap="round"/>
<path d="M569.759 122.596H543.357V116.185H541.242C540.35 116.185 539.468 116.004 538.648 115.653C537.828 115.302 537.088 114.788 536.472 114.143C535.857 113.498 535.379 112.734 535.067 111.898C534.755 111.063 534.616 110.173 534.658 109.282L535.46 92.3233C535.56 90.1702 536.287 88.0935 537.553 86.3488C538.819 84.6041 540.567 83.2677 542.582 82.504C542.55 82.7576 542.535 83.0131 542.536 83.2688C542.536 87.1293 545.901 90.2517 550.051 90.2517C550.786 90.2526 551.517 90.1531 552.225 89.9557C552.184 90.2186 552.163 90.4843 552.162 90.7504C552.162 93.8395 554.952 96.4033 558.583 96.8256H560.828C561.279 96.2965 561.84 95.8717 562.471 95.5806C563.103 95.2895 563.79 95.1391 564.485 95.1397H564.894C566.17 95.1397 567.393 95.6463 568.294 96.548C569.196 97.4497 569.702 98.6727 569.702 99.9479C569.702 101.223 569.196 102.446 568.294 103.348C567.393 104.25 566.17 104.756 564.894 104.756H563.72L569.759 122.596Z" fill="#B4702F"/>
<path d="M543.36 116.185C543.36 116.185 551.42 116.185 555.47 112.358L545.162 122.596H543.363L543.36 116.185Z" fill="#56303C"/>
<path d="M540.489 93.2343L537.869 101.341C537.839 101.464 537.834 101.591 537.855 101.716C537.876 101.84 537.922 101.959 537.99 102.065C538.058 102.171 538.147 102.263 538.251 102.334C538.355 102.405 538.473 102.454 538.597 102.478L540.895 102.921" stroke="#56303C" stroke-width="1.43981" stroke-miterlimit="10" stroke-linecap="round"/>
<path d="M546.467 96.6857C546.467 97.6234 545.972 98.3815 545.356 98.3815C544.741 98.3815 544.249 97.6234 544.249 96.6857C544.249 95.748 544.745 94.9932 545.356 94.9932C545.968 94.9932 546.467 95.758 546.467 96.6857Z" fill="#56303C"/>
<path d="M536.787 96.6855C536.787 97.5468 536.455 98.2417 536.013 98.2417C535.57 98.2417 535.235 97.5468 535.235 96.6855C535.235 95.8243 535.584 95.1327 536.013 95.1327C536.442 95.1327 536.787 95.8343 536.787 96.6855Z" fill="#56303C"/>
<path d="M540.725 106.921C540.725 106.921 543.362 107.373 545.357 104.723" stroke="#56303C" stroke-width="1.43981" stroke-miterlimit="10" stroke-linecap="round"/>
<path d="M566.13 98.0857C566.13 98.0857 562.805 97.4208 562.805 100.942" stroke="#56303C" stroke-width="1.43981" stroke-miterlimit="10" stroke-linecap="round"/>
<path d="M565.144 100.833L563.577 99.1768" stroke="#56303C" stroke-width="1.43981" stroke-miterlimit="10" stroke-linecap="round"/>
<path d="M621.239 450.344V460.695H616.674L614.655 451.84C614.655 451.84 600.138 453.084 598.029 443.035C594.086 447.567 590.418 453.589 589.816 460.695H586.414V452.692C586.414 452.692 581.41 444.891 582.557 437.595L568.685 440.112L573.779 460.463C573.799 460.542 573.822 460.619 573.845 460.695H568.428L555.437 440.801H551.916C550.859 440.8 549.834 441.154 549.002 441.805C548.17 442.456 547.58 443.367 547.327 444.392L543.649 460.685H539.134L536.473 430.795C534.778 428.135 533.457 424.81 532.816 420.57L532.899 420.407C532.656 420.407 532.413 420.407 532.167 420.407H526.278C522.288 420.407 520.679 416.284 522.348 412.673L531.193 393.52C530.997 393.943 530.69 394.304 530.305 394.566C529.92 394.828 529.471 394.98 529.005 395.007C528.54 395.033 528.077 394.932 527.664 394.715C527.252 394.499 526.906 394.174 526.664 393.776L522.717 387.262C522.547 386.981 522.454 386.661 522.448 386.333C522.442 386.005 522.524 385.681 522.685 385.395C522.846 385.109 523.08 384.871 523.363 384.705C523.646 384.539 523.968 384.452 524.297 384.452H528.473C529.181 384.453 529.878 384.632 530.498 384.974C531.118 385.316 531.642 385.809 532.021 386.407L533.441 388.652C535.28 389.772 538.256 390.504 541.617 390.504C544.733 390.504 547.523 389.875 549.375 388.888C552.99 406.042 564.711 411.399 583.98 411.399C594.884 411.399 604.62 408.51 611.018 403.984C611.213 403.847 611.446 403.776 611.685 403.782C611.923 403.787 612.153 403.868 612.342 404.014C612.531 404.16 612.668 404.362 612.733 404.591C612.799 404.82 612.79 405.064 612.707 405.288L608.717 415.835V423.759C608.717 423.759 608.663 424.338 608.657 425.329C608.617 429.704 609.438 442.084 619.48 447.368C620.018 447.655 620.467 448.085 620.777 448.609C621.087 449.134 621.247 449.734 621.239 450.344Z" fill="white"/>
<path d="M608.201 424.296C608.2 427.161 607.602 429.993 606.444 432.613C605.286 435.233 603.595 437.583 601.478 439.512C600.676 440.244 599.848 441.045 599.014 441.917" stroke="#56303C" stroke-width="1.43981" stroke-miterlimit="10" stroke-linecap="round"/>
<path d="M581.912 437.594C581.912 437.594 583.056 434.215 584.2 432.38" stroke="#56303C" stroke-width="1.43981" stroke-miterlimit="10" stroke-linecap="round"/>
<path d="M569.299 440.112L567.56 434.981" stroke="#56303C" stroke-width="1.43981" stroke-miterlimit="10" stroke-linecap="round"/>
<path d="M539.562 434.988C539.562 434.988 544.979 441.05 555.427 440.801" stroke="#56303C" stroke-width="1.43981" stroke-miterlimit="10" stroke-linecap="round"/>
<path d="M532.563 389.159L530.425 393.788" stroke="#56303C" stroke-width="1.43981" stroke-miterlimit="10" stroke-linecap="round"/>
<path d="M549.365 389.033L547.945 386.789C547.567 386.191 547.043 385.698 546.422 385.357C545.802 385.015 545.105 384.837 544.397 384.837H540.221C539.893 384.837 539.572 384.925 539.289 385.09C539.006 385.256 538.772 385.494 538.612 385.779C538.451 386.065 538.369 386.388 538.374 386.715C538.379 387.043 538.472 387.363 538.641 387.643L542.449 393.928C542.704 394.349 543.069 394.692 543.504 394.921C543.94 395.15 544.429 395.256 544.92 395.228C545.412 395.201 545.886 395.04 546.293 394.764C546.7 394.487 547.024 394.105 547.23 393.659L549.365 389.033Z" fill="#56303C"/>
<path d="M530.551 413.869C530.551 414.624 529.663 415.253 528.473 415.419V417.055C528.479 417.142 528.467 417.229 528.439 417.31C528.41 417.392 528.364 417.467 528.305 417.531C528.246 417.595 528.174 417.645 528.095 417.68C528.015 417.715 527.929 417.733 527.843 417.733C527.756 417.733 527.67 417.715 527.59 417.68C527.511 417.645 527.439 417.595 527.38 417.531C527.321 417.467 527.275 417.392 527.247 417.31C527.218 417.229 527.206 417.142 527.212 417.055V415.419C526.022 415.253 525.134 414.624 525.134 413.869C525.134 412.992 526.348 412.28 527.844 412.28C529.341 412.28 530.551 412.992 530.551 413.869Z" fill="#56303C"/>
<path d="M539.563 405.929C540.321 405.929 540.936 405.314 540.936 404.556C540.936 403.797 540.321 403.183 539.563 403.183C538.805 403.183 538.19 403.797 538.19 404.556C538.19 405.314 538.805 405.929 539.563 405.929Z" fill="#56303C"/>
<path d="M530.551 403.821C529.295 406.764 526.704 408.589 524.293 408.456L529.866 396.389C531.393 398.098 531.742 401.044 530.551 403.821Z" fill="#56303C"/>
<path d="M495.398 250.147L504.502 228.034C505.786 224.912 508.323 222.87 511.701 222.87" stroke="#56303C" stroke-width="1.43981" stroke-miterlimit="10" stroke-linecap="round"/>
<path d="M525.045 230.123L568.742 402.271C572.253 412.297 558.344 418.358 551.963 412.114" stroke="#56303C" stroke-width="1.43981" stroke-miterlimit="10" stroke-linecap="round"/>
<path d="M552.225 397.31C552.557 411.742 542.309 420.587 532.806 420.587L533.514 424.012C542.269 424.012 553.934 416.942 555.035 401.65" fill="#FFAFB1"/>
<path d="M538.549 429.728C539.012 427.765 537.797 425.799 535.834 425.335C533.872 424.872 531.905 426.088 531.442 428.05C530.979 430.013 532.194 431.979 534.157 432.442C536.119 432.906 538.086 431.69 538.549 429.728Z" fill="#FFAFB1"/>
<path d="M535.347 423.447V426.074" stroke="#56303C" stroke-width="1.43981" stroke-miterlimit="10" stroke-linecap="round"/>
<path d="M155.802 444.561H191.159L210.445 410.89C216.258 400.743 219.766 389.442 220.72 377.787L223.789 340.306L246.783 336.226V444.561H277.731L289.036 407.851C292.053 398.058 293.588 387.868 293.588 377.621V286.368H168.95V389.153C168.949 394.034 168.295 398.893 167.008 403.601L155.802 444.561Z" fill="#56303C"/>
<path d="M223.797 340.305L255.692 334.11" stroke="#D9AF00" stroke-width="1.43981" stroke-miterlimit="10" stroke-linecap="round"/>
<path d="M207.653 458.84H154.496V462.694H207.653V458.84Z" fill="#56303C"/>
<path d="M207.653 458.838H164.336C162.79 458.838 161.266 458.465 159.895 457.751C158.524 457.037 157.345 456.003 156.459 454.736C155.572 453.469 155.005 452.007 154.804 450.474C154.603 448.941 154.775 447.382 155.305 445.93L155.807 444.56H191.16L191.084 444.766C205.219 446.528 207.653 458.838 207.653 458.838Z" fill="#FFAFB1"/>
<path d="M207.652 458.838C207.652 458.838 204.829 444.56 187.605 444.56C172.641 444.56 166.925 458.838 166.925 458.838H207.652Z" fill="#D9AF00"/>
<path d="M192.067 448.617C195.002 448.617 197.381 446.238 197.381 443.304C197.381 440.369 195.002 437.99 192.067 437.99C189.133 437.99 186.754 440.369 186.754 443.304C186.754 446.238 189.133 448.617 192.067 448.617Z" fill="white"/>
<path d="M299.946 458.837H246.79V462.691H299.946V458.837Z" fill="#56303C"/>
<path d="M299.946 458.838H259.216C255.92 458.837 252.759 457.527 250.429 455.197C248.099 452.866 246.79 449.705 246.79 446.409V444.56H277.963C295.188 444.56 299.946 458.838 299.946 458.838Z" fill="#FFAFB1"/>
<path d="M299.946 458.838C299.946 458.838 295.188 444.56 277.963 444.56C263 444.56 259.219 458.838 259.219 458.838H299.946Z" fill="#D9AF00"/>
<path d="M280.909 447.153C283.844 447.153 286.223 444.774 286.223 441.839C286.223 438.905 283.844 436.526 280.909 436.526C277.975 436.526 275.596 438.905 275.596 441.839C275.596 444.774 277.975 447.153 280.909 447.153Z" fill="white"/>
<path d="M269.803 147.003L274.847 148.616C285.122 151.896 294.246 158.042 301.145 166.333C308.045 174.623 312.432 184.711 313.792 195.411L317.17 222.013L348.663 243.533L335.066 261.892H293.601V173.362L269.803 147.003Z" fill="white"/>
<path d="M317.815 222.002L310.53 216.685" stroke="#D9AF00" stroke-width="1.43981" stroke-miterlimit="10" stroke-linecap="round"/>
<path d="M339.626 237.341C339.626 237.341 326.841 241.485 324.274 261.885" stroke="#D9AF00" stroke-width="1.43981" stroke-miterlimit="10" stroke-linecap="round"/>
<path d="M348.664 243.533L356.82 249.548C358.861 251.052 360.533 252.999 361.712 255.244L363.374 258.399C363.566 258.762 363.66 259.169 363.648 259.579C363.636 259.989 363.519 260.389 363.306 260.741C363.094 261.092 362.795 261.383 362.437 261.584C362.08 261.786 361.676 261.891 361.266 261.891H335.07C335.07 261.891 336.813 249.348 348.664 243.533Z" fill="#FFAFB1"/>
<path d="M345.548 261.366L344.573 259.175C344.407 258.801 344.337 258.391 344.369 257.983C344.402 257.575 344.535 257.182 344.758 256.838C344.981 256.495 345.286 256.213 345.646 256.018C346.006 255.822 346.408 255.72 346.818 255.72H357.728" stroke="#56303C" stroke-width="1.43981" stroke-miterlimit="10" stroke-linecap="round"/>
<path d="M351.045 261.366L348.674 255.72" stroke="#56303C" stroke-width="1.43981" stroke-miterlimit="10" stroke-linecap="round"/>
<path d="M356.655 261.366L354.287 255.72" stroke="#56303C" stroke-width="1.43981" stroke-miterlimit="10" stroke-linecap="round"/>
<path d="M168.95 233.305V286.368H293.601V173.362C293.601 169.409 292.712 165.507 290.999 161.945C289.287 158.383 286.795 155.251 283.708 152.783C280.621 150.314 277.018 148.572 273.166 147.685C269.314 146.798 265.312 146.789 261.457 147.658L232.152 154.265C214.21 158.311 198.179 168.34 186.693 182.704C175.207 197.069 168.95 214.913 168.95 233.305Z" fill="#A0D6FF"/>
<path d="M173.934 286.368L234.486 306.31L246.234 292.487L254.397 304.723L293.601 289.541V286.368H173.934Z" fill="white"/>
<path d="M262.873 164.852C263.186 165.61 280.297 208.306 280.297 208.306" stroke="white" stroke-width="1.43981" stroke-miterlimit="10" stroke-linecap="round"/>
<path d="M234.486 305.665L250.383 287.413" stroke="#D9AF00" stroke-width="1.43981" stroke-miterlimit="10" stroke-linecap="round"/>
<path d="M261.178 462.182L275.237 276.407C275.635 271.264 277.96 266.462 281.748 262.96C285.535 259.459 290.505 257.517 295.663 257.523C300.822 257.516 305.793 259.458 309.581 262.959C313.369 266.461 315.695 271.264 316.093 276.407L327.987 435.108" stroke="#D9AF00" stroke-width="1.43981" stroke-miterlimit="10" stroke-linecap="round"/>
<path d="M360.069 256.485C363.301 258.036 366.069 260.41 368.093 263.369C370.117 266.329 371.325 269.769 371.597 273.344L383.501 435.194" stroke="#D9AF00" stroke-width="1.43981" stroke-miterlimit="10" stroke-linecap="round"/>
<path d="M323.492 376.191H267.685" stroke="#D9AF00" stroke-width="1.43981" stroke-miterlimit="10" stroke-linecap="round"/>
<path d="M316.851 286.438H372.355" stroke="#D9AF00" stroke-width="1.43981" stroke-miterlimit="10" stroke-linecap="round"/>
<path d="M328.154 462.445C334.178 462.445 339.061 457.562 339.061 451.538C339.061 445.515 334.178 440.632 328.154 440.632C322.131 440.632 317.248 445.515 317.248 451.538C317.248 457.562 322.131 462.445 328.154 462.445Z" stroke="#56303C" stroke-width="1.43981" stroke-miterlimit="10" stroke-linecap="round"/>
<path d="M319.156 439.235C324.124 434.976 332.181 434.976 337.152 439.235" stroke="#D9AF00" stroke-width="1.43981" stroke-miterlimit="10" stroke-linecap="round"/>
<path d="M374.757 439.235C379.745 434.976 387.785 434.976 392.753 439.235" stroke="#D9AF00" stroke-width="1.43981" stroke-miterlimit="10" stroke-linecap="round"/>
<path d="M383.754 462.445C389.778 462.445 394.661 457.562 394.661 451.538C394.661 445.515 389.778 440.632 383.754 440.632C377.73 440.632 372.847 445.515 372.847 451.538C372.847 457.562 377.73 462.445 383.754 462.445Z" stroke="#56303C" stroke-width="1.43981" stroke-miterlimit="10" stroke-linecap="round"/>
<path d="M329.597 447.188L328.789 449.243" stroke="#D9AF00" stroke-width="1.43981" stroke-miterlimit="10" stroke-linecap="round"/>
<path d="M326.976 453.832L326.165 455.884" stroke="#D9AF00" stroke-width="1.43981" stroke-miterlimit="10" stroke-linecap="round"/>
<path d="M323.535 449.822L325.587 450.63" stroke="#D9AF00" stroke-width="1.43981" stroke-miterlimit="10" stroke-linecap="round"/>
<path d="M330.178 452.442L332.23 453.253" stroke="#D9AF00" stroke-width="1.43981" stroke-miterlimit="10" stroke-linecap="round"/>
<path d="M385.885 447.374L384.878 449.34" stroke="#D9AF00" stroke-width="1.43981" stroke-miterlimit="10" stroke-linecap="round"/>
<path d="M382.63 453.735L381.626 455.697" stroke="#D9AF00" stroke-width="1.43981" stroke-miterlimit="10" stroke-linecap="round"/>
<path d="M379.594 449.41L381.56 450.414" stroke="#D9AF00" stroke-width="1.43981" stroke-miterlimit="10" stroke-linecap="round"/>
<path d="M385.953 452.661L387.918 453.666" stroke="#D9AF00" stroke-width="1.43981" stroke-miterlimit="10" stroke-linecap="round"/>
<path d="M276.676 240.132L261.876 261.892H234.476C226.941 261.892 219.544 259.868 213.058 256.032C206.572 252.196 201.236 246.689 197.607 240.085L193.879 233.305H168.94C168.942 217.77 173.409 202.563 181.809 189.494C190.209 176.426 202.189 166.048 216.321 159.596C221.993 159.597 227.432 161.85 231.442 165.861C235.452 169.872 237.705 175.312 237.705 180.983V219.888L276.676 240.132Z" fill="white"/>
<path d="M193.879 234.596L184.512 217.963" stroke="#D9AF00" stroke-width="1.43981" stroke-miterlimit="10" stroke-linecap="round"/>
<path d="M238.985 219.888L232.837 216.174" stroke="#D9AF00" stroke-width="1.43981" stroke-miterlimit="10" stroke-linecap="round"/>
<path d="M264.403 234.093C264.403 234.093 249.935 239.53 247.065 261.892" stroke="#D9AF00" stroke-width="1.43981" stroke-miterlimit="10" stroke-linecap="round"/>
<path d="M198.215 240.364C200.631 239.321 203.299 239.009 205.89 239.467C208.481 239.925 210.881 241.134 212.792 242.942C214.704 244.751 216.042 247.08 216.643 249.642C217.244 252.204 217.079 254.886 216.171 257.355" stroke="#D9AF00" stroke-width="1.43981" stroke-miterlimit="10" stroke-linecap="round"/>
<path d="M281.657 268.455L261.872 261.891C261.872 261.891 263.382 245.119 276.676 240.131L286.149 245.481C287.663 246.33 288.952 247.53 289.907 248.98L293.564 259.953C293.836 260.769 293.79 261.657 293.437 262.44C293.083 263.224 292.447 263.846 291.656 264.182L281.657 268.455Z" fill="#FFAFB1"/>
<path d="M287.433 256.372L291.101 263.498" stroke="#56303C" stroke-width="1.43981" stroke-miterlimit="10" stroke-linecap="round"/>
<path d="M283.769 257.805L287.433 264.931" stroke="#56303C" stroke-width="1.43981" stroke-miterlimit="10" stroke-linecap="round"/>
<path d="M280.101 259.601L283.769 266.727" stroke="#56303C" stroke-width="1.43981" stroke-miterlimit="10" stroke-linecap="round"/>
<path d="M276.813 196.672L263.512 164.337H262.618C260.815 164.336 259.087 163.619 257.814 162.343C256.54 161.068 255.824 159.34 255.824 157.537C255.824 155.734 256.541 154.004 257.816 152.729C259.091 151.454 260.821 150.737 262.624 150.737H267.143V132.911H310.959V156.616C310.96 162.95 309.274 169.17 306.075 174.636C302.876 180.102 298.279 184.618 292.757 187.72L276.813 196.672Z" fill="#FFAFB1"/>
<path d="M262.208 154.365C262.208 154.365 266.122 153.803 266.863 159.1" stroke="#56303C" stroke-width="1.43981" stroke-miterlimit="10" stroke-linecap="round"/>
<path d="M262.115 158.442L265.128 155.738" stroke="#56303C" stroke-width="1.43981" stroke-miterlimit="10" stroke-linecap="round"/>
<path d="M310.959 132.226V150.741L305.486 134.045C305.486 134.045 293.283 140.808 279.217 134.69V138.065C279.217 140.336 278.608 142.565 277.452 144.52C276.296 146.475 274.637 148.084 272.646 149.178L271.316 150.152C270.761 150.562 270.309 151.098 269.998 151.714C269.686 152.331 269.524 153.012 269.524 153.703V154.804C269.525 154.828 269.52 154.852 269.511 154.874C269.502 154.896 269.488 154.916 269.471 154.933C269.454 154.95 269.434 154.963 269.411 154.972C269.389 154.98 269.365 154.984 269.341 154.984C269.299 154.985 269.257 154.97 269.224 154.942C269.192 154.915 269.171 154.876 269.165 154.834C268.974 153.69 268.384 152.65 267.498 151.9C266.613 151.151 265.49 150.74 264.33 150.741H263.798V139.914C263.795 137.475 264.326 135.066 265.354 132.855C266.381 130.644 267.881 128.685 269.747 127.115H266.339C266.166 127.103 266.004 127.026 265.885 126.899C265.767 126.772 265.701 126.605 265.701 126.432C265.701 126.258 265.767 126.091 265.885 125.965C266.004 125.838 266.166 125.761 266.339 125.748H269.966V122.606C269.96 122.512 269.973 122.418 270.004 122.33C270.035 122.241 270.085 122.16 270.149 122.091C270.213 122.023 270.29 121.968 270.377 121.93C270.463 121.893 270.556 121.873 270.65 121.873C270.744 121.873 270.837 121.893 270.923 121.93C271.009 121.968 271.086 122.023 271.151 122.091C271.215 122.16 271.264 122.241 271.295 122.33C271.327 122.418 271.34 122.512 271.333 122.606V125.931C274.063 124.129 277.263 123.17 280.534 123.175H301.878C303.069 123.172 304.249 123.404 305.35 123.858C306.451 124.311 307.451 124.977 308.295 125.818C309.138 126.659 309.808 127.657 310.265 128.757C310.722 129.856 310.958 131.035 310.959 132.226Z" fill="white"/>
<path d="M270.608 126.444L278.589 134.065C278.795 134.263 279.045 134.411 279.319 134.494C279.593 134.578 279.883 134.596 280.165 134.547C283.49 133.968 294.982 131.438 301.912 123.165" stroke="#F5EFD9" stroke-width="1.26025" stroke-miterlimit="10" stroke-linecap="round"/>
<path d="M305.486 134.69C308.844 132.951 310.51 129.399 310.51 129.399" stroke="#F5EFD9" stroke-width="1.26025" stroke-miterlimit="10" stroke-linecap="round"/>
<path d="M287.391 123.165C283.563 128.632 276.128 131.724 276.128 131.724" stroke="#F5EFD9" stroke-width="1.26025" stroke-miterlimit="10" stroke-linecap="round"/>
<path d="M298.712 152.653C298.712 152.653 301.1 156.859 300.707 164.191H296.458" stroke="#56303C" stroke-width="1.43981" stroke-miterlimit="10" stroke-linecap="round"/>
<path d="M285.118 148.974L294.069 147.631L294.145 148.138C294.219 148.634 294.195 149.14 294.074 149.627C293.953 150.114 293.737 150.572 293.439 150.975C293.14 151.379 292.766 151.72 292.336 151.978C291.906 152.237 291.429 152.408 290.933 152.483L281.969 153.827L281.893 153.321C281.818 152.824 281.843 152.316 281.964 151.829C282.086 151.341 282.303 150.882 282.603 150.478C282.902 150.074 283.279 149.733 283.71 149.475C284.142 149.217 284.62 149.047 285.118 148.974Z" fill="white"/>
<path d="M312.089 153.031L306.061 152.327C305.074 152.212 304.173 151.709 303.557 150.93C302.94 150.15 302.659 149.158 302.774 148.17L302.842 147.589L308.869 148.293C309.856 148.408 310.757 148.911 311.374 149.69C311.991 150.47 312.272 151.463 312.157 152.45L312.089 153.031Z" fill="white"/>
<path d="M287.899 158.485C287.899 158.485 290.715 156.789 292.61 158.628" stroke="#56303C" stroke-width="1.43981" stroke-miterlimit="10" stroke-linecap="round"/>
<path d="M304.037 157.839C304.037 157.839 306.068 156.296 308.1 157.982" stroke="#56303C" stroke-width="1.43981" stroke-miterlimit="10" stroke-linecap="round"/>
<path d="M298.067 178.917V181.445" stroke="#56303C" stroke-width="1.43981" stroke-miterlimit="10" stroke-linecap="round"/>
<path d="M306.068 171.133H289.166L289.984 168.543C290.315 167.509 290.965 166.606 291.842 165.966C292.719 165.326 293.777 164.981 294.862 164.982H300.618C301.787 164.983 302.919 165.386 303.827 166.122C304.735 166.857 305.363 167.882 305.606 169.025L306.068 171.133Z" fill="white"/>
<path d="M290.254 164.819C293.673 164.819 296.445 162.047 296.445 158.628C296.445 155.208 293.673 152.436 290.254 152.436C286.834 152.436 284.062 155.208 284.062 158.628C284.062 162.047 286.834 164.819 290.254 164.819Z" stroke="#D9AF00" stroke-width="1.43981" stroke-miterlimit="10" stroke-linecap="round"/>
<path d="M314.006 159.832C314.792 156.504 312.73 153.17 309.402 152.384C306.074 151.599 302.74 153.66 301.954 156.988C301.169 160.316 303.23 163.651 306.558 164.436C309.886 165.222 313.221 163.16 314.006 159.832Z" stroke="#D9AF00" stroke-width="1.43981" stroke-miterlimit="10" stroke-linecap="round"/>
<path d="M296.445 158.627H301.809" stroke="#D9AF00" stroke-width="1.43981" stroke-miterlimit="10" stroke-linecap="round"/>
<path d="M113.199 296.557V462.744" stroke="#D9AF00" stroke-width="1.43981" stroke-miterlimit="10" stroke-linecap="round"/>
<path d="M118.812 296.557V462.744" stroke="#D9AF00" stroke-width="1.43981" stroke-miterlimit="10" stroke-linecap="round"/>
<path d="M48.1975 296.557V462.744" stroke="#D9AF00" stroke-width="1.43981" stroke-miterlimit="10" stroke-linecap="round"/>
<path d="M42.588 296.557V462.744" stroke="#D9AF00" stroke-width="1.43981" stroke-miterlimit="10" stroke-linecap="round"/>
<path d="M48.1975 309.688V312.96L42.588 312.93V310.38C44.4738 310.306 46.3502 310.075 48.1975 309.688Z" fill="#D9AF00"/>
<path d="M118.812 310.374V312.924H113.202V309.649C115.049 310.045 116.925 310.288 118.812 310.374Z" fill="#D9AF00"/>
<path d="M48.1975 334.624H113.198" stroke="#D9AF00" stroke-width="1.43981" stroke-miterlimit="10" stroke-linecap="round"/>
<path d="M48.1975 340.745H113.198" stroke="#D9AF00" stroke-width="1.43981" stroke-miterlimit="10" stroke-linecap="round"/>
<path d="M83.8208 321.891C84.1062 320.133 82.9122 318.476 81.1538 318.191C79.3955 317.905 77.7387 319.099 77.4533 320.857C77.1678 322.616 78.3619 324.273 80.1203 324.558C81.8786 324.843 83.5354 323.649 83.8208 321.891Z" stroke="#D9AF00" stroke-width="1.43981" stroke-miterlimit="10" stroke-linecap="round"/>
<path d="M140.675 296.198V299.284C140.675 305.425 131.667 310.403 120.551 310.403C110.968 310.403 102.951 306.705 100.932 301.758C98.9041 306.715 90.887 310.403 81.3138 310.403C70.1977 310.403 61.1864 305.415 61.1864 299.284C61.1864 305.425 52.1751 310.403 41.059 310.403C29.9429 310.403 20.9316 305.415 20.9316 299.284V296.198C20.9316 292.567 24.1172 289.624 28.0476 289.624H133.563C137.49 289.634 140.675 292.577 140.675 296.198Z" fill="white"/>
<path d="M101.092 299.506V303.177" stroke="#A0D6FF" stroke-width="1.43981" stroke-miterlimit="10" stroke-linecap="round"/>
<path d="M61.1627 298.339V302.01" stroke="#A0D6FF" stroke-width="1.43981" stroke-miterlimit="10" stroke-linecap="round"/>
<path d="M120.561 155.865H34.2493V201.819H120.561V155.865Z" fill="#D9AF00"/>
<path d="M36.9069 208.726C38.0712 208.726 39.0151 207.782 39.0151 206.618C39.0151 205.453 38.0712 204.51 36.9069 204.51C35.7426 204.51 34.7988 205.453 34.7988 206.618C34.7988 207.782 35.7426 208.726 36.9069 208.726Z" fill="#56303C"/>
<path d="M117.905 208.726C119.069 208.726 120.013 207.782 120.013 206.618C120.013 205.453 119.069 204.51 117.905 204.51C116.74 204.51 115.797 205.453 115.797 206.618C115.797 207.782 116.74 208.726 117.905 208.726Z" fill="#56303C"/>
<path d="M101.705 208.726C102.869 208.726 103.813 207.782 103.813 206.618C103.813 205.453 102.869 204.51 101.705 204.51C100.54 204.51 99.5966 205.453 99.5966 206.618C99.5966 207.782 100.54 208.726 101.705 208.726Z" fill="#56303C"/>
<path d="M85.507 208.726C86.6713 208.726 87.6151 207.782 87.6151 206.618C87.6151 205.453 86.6713 204.51 85.507 204.51C84.3427 204.51 83.3988 205.453 83.3988 206.618C83.3988 207.782 84.3427 208.726 85.507 208.726Z" fill="#56303C"/>
<path d="M69.307 208.726C70.4713 208.726 71.4151 207.782 71.4151 206.618C71.4151 205.453 70.4713 204.51 69.307 204.51C68.1427 204.51 67.1988 205.453 67.1988 206.618C67.1988 207.782 68.1427 208.726 69.307 208.726Z" fill="#56303C"/>
<path d="M53.1069 208.726C54.2713 208.726 55.2151 207.782 55.2151 206.618C55.2151 205.453 54.2713 204.51 53.1069 204.51C51.9426 204.51 50.9988 205.453 50.9988 206.618C50.9988 207.782 51.9426 208.726 53.1069 208.726Z" fill="#56303C"/>
<path d="M85.6837 216.881H69.1275C68.581 216.88 68.0572 216.663 67.6707 216.277C67.2843 215.89 67.0668 215.366 67.0659 214.82C67.0659 214.549 67.1192 214.281 67.2228 214.031C67.3264 213.781 67.4783 213.553 67.6697 213.362C67.8612 213.171 68.0885 213.019 68.3386 212.915C68.5887 212.811 68.8568 212.758 69.1275 212.758H85.6837C86.2304 212.758 86.7548 212.975 87.1414 213.362C87.5281 213.749 87.7453 214.273 87.7453 214.82C87.7444 215.366 87.5269 215.89 87.1405 216.277C86.754 216.663 86.2302 216.88 85.6837 216.881Z" fill="#A0D6FF"/>
<path d="M85.3838 286.994H69.4228C66.938 286.994 64.487 286.418 62.2619 285.312C60.0367 284.206 58.0979 282.6 56.5972 280.62C55.0966 278.639 54.075 276.338 53.6124 273.897C53.1498 271.455 53.2587 268.94 53.9308 266.548L66.0212 223.556C66.3222 222.484 66.9657 221.539 67.8536 220.866C68.7414 220.193 69.825 219.829 70.9391 219.829H83.8775C84.9916 219.829 86.0751 220.193 86.963 220.866C87.8509 221.539 88.4944 222.484 88.7954 223.556L100.879 266.548C101.551 268.94 101.66 271.456 101.197 273.897C100.735 276.339 99.7127 278.64 98.2117 280.621C96.7107 282.602 94.7714 284.208 92.5459 285.313C90.3203 286.419 87.8689 286.994 85.3838 286.994Z" fill="#A0D6FF"/>
<path d="M45.3094 155.865V202.218" stroke="white" stroke-width="0.907778" stroke-miterlimit="10" stroke-linecap="round"/>
<path d="M61.1234 155.865V202.218" stroke="white" stroke-width="0.907778" stroke-miterlimit="10" stroke-linecap="round"/>
<path d="M76.9382 155.865V202.218" stroke="white" stroke-width="0.907778" stroke-miterlimit="10" stroke-linecap="round"/>
<path d="M92.753 155.865V202.218" stroke="white" stroke-width="0.907778" stroke-miterlimit="10" stroke-linecap="round"/>
<path d="M108.565 155.865V202.218" stroke="white" stroke-width="0.907778" stroke-miterlimit="10" stroke-linecap="round"/>
<path d="M86.8341 256.889L90.3123 286.992L80.9685 286.986L86.8341 256.889Z" fill="#56303C"/>
<path d="M133.434 253.408H90.3093C88.3883 253.408 86.8311 254.965 86.8311 256.886V283.511C86.8311 285.432 88.3883 286.989 90.3093 286.989H133.434C135.355 286.989 136.912 285.432 136.912 283.511V256.886C136.912 254.965 135.355 253.408 133.434 253.408Z" fill="white"/>
<path d="M115.52 281.898H97.611C95.9052 281.898 94.7081 279.744 95.3299 277.742C96.7564 273.136 100.491 269.695 105.03 269.053C104.331 268.671 103.752 268.103 103.356 267.412C102.96 266.722 102.762 265.935 102.785 265.139C102.785 262.775 104.478 260.856 106.562 260.856C108.647 260.856 110.343 262.775 110.343 265.139C110.365 265.935 110.167 266.722 109.771 267.413C109.374 268.103 108.794 268.671 108.095 269.053C112.634 269.695 116.368 273.136 117.798 277.742C118.423 279.73 117.23 281.898 115.52 281.898Z" fill="#FFAFB1"/>
<path d="M121.21 271.704C123.197 271.704 124.808 269.971 124.808 267.833C124.808 265.696 123.197 263.963 121.21 263.963C119.223 263.963 117.612 265.696 117.612 267.833C117.612 269.971 119.223 271.704 121.21 271.704Z" fill="#FFAFB1"/>
<path d="M111.307 281.323L117.067 275.58C118.166 274.482 119.657 273.865 121.211 273.865C122.766 273.865 124.256 274.482 125.356 275.58L131.112 281.339" stroke="#56303C" stroke-width="1.43981" stroke-miterlimit="10" stroke-linecap="round"/>
<path d="M33.102 241.505C32.8194 242.503 29.5408 247.158 29.5408 247.158C29.5408 247.158 29.1816 241.475 29.4643 240.471C29.6014 239.989 29.9246 239.58 30.3627 239.336C30.8007 239.092 31.3178 239.032 31.8002 239.169C32.2826 239.306 32.6908 239.63 32.9349 240.068C33.1791 240.506 33.2392 241.023 33.102 241.505Z" fill="white"/>
<path d="M25.1548 255.803C25.4375 254.806 28.7161 250.15 28.7161 250.15C28.7161 250.15 29.0785 255.833 28.7926 256.837C28.6568 257.32 28.3349 257.728 27.8977 257.974C27.4606 258.219 26.944 258.28 26.4616 258.144C25.9792 258.008 25.5705 257.687 25.3255 257.249C25.0804 256.812 25.019 256.296 25.1548 255.813V255.803Z" fill="white"/>
<path d="M20.9819 247.983C22.0127 247.826 27.609 248.89 27.609 248.89C27.609 248.89 22.578 251.55 21.5472 251.72C21.0515 251.795 20.5464 251.67 20.143 251.373C19.7395 251.075 19.4707 250.63 19.3958 250.134C19.3208 249.638 19.4458 249.133 19.7433 248.73C20.0407 248.326 20.4863 248.057 20.9819 247.983Z" fill="white"/>
<path d="M37.2882 249.329C36.2541 249.486 30.6578 248.422 30.6578 248.422C30.6578 248.422 35.6888 245.762 36.7196 245.592C37.2152 245.517 37.7205 245.641 38.1243 245.938C38.5281 246.235 38.7973 246.681 38.8727 247.176C38.9481 247.672 38.8235 248.177 38.5263 248.581C38.2292 248.985 37.7838 249.254 37.2882 249.329Z" fill="white"/>
<path d="M22.0563 244.555C22.8145 245.273 28.0151 247.594 28.0151 247.594C28.0151 247.594 25.4115 242.526 24.6533 241.808C24.473 241.637 24.2608 241.504 24.0289 241.416C23.7971 241.327 23.55 241.285 23.3019 241.292C23.0538 241.299 22.8095 241.355 22.583 241.456C22.3564 241.557 22.152 241.702 21.9815 241.883C21.811 242.063 21.6777 242.275 21.5892 242.507C21.5006 242.739 21.4586 242.986 21.4656 243.234C21.4725 243.482 21.5283 243.727 21.6296 243.953C21.731 244.18 21.876 244.384 22.0563 244.555Z" fill="white"/>
<path d="M36.2144 252.754C35.4563 252.036 30.2524 249.715 30.2524 249.715C30.2524 249.715 32.856 254.783 33.6142 255.501C33.9815 255.828 34.4616 255.999 34.9528 255.978C35.444 255.957 35.9077 255.745 36.2457 255.388C36.5837 255.031 36.7694 254.557 36.7636 254.065C36.7578 253.573 36.5608 253.103 36.2144 252.754Z" fill="white"/>
<path d="M30.8085 251.049C32.0976 250.111 32.3825 248.306 31.4449 247.017C30.5073 245.728 28.7021 245.443 27.413 246.38C26.1239 247.318 25.839 249.123 26.7766 250.412C27.7142 251.701 29.5194 251.986 30.8085 251.049Z" fill="#FFAFB1"/>
<path d="M39.0146 252.867L49.5322 277.766" stroke="#D9AF00" stroke-width="1.43981" stroke-miterlimit="10" stroke-linecap="round"/>
<path d="M41.9269 279.894L46.3028 248.168" stroke="#D9AF00" stroke-width="1.43981" stroke-miterlimit="10" stroke-linecap="round"/>
<path d="M54.9992 282.644C60.7986 276.844 60.7986 267.442 54.9992 261.642C49.1998 255.843 39.7971 255.843 33.9977 261.642C28.1983 267.442 28.1983 276.844 33.9977 282.644C39.7971 288.443 49.1998 288.443 54.9992 282.644Z" stroke="#56303C" stroke-width="1.43981" stroke-miterlimit="10" stroke-linecap="round"/>
<path d="M48.9298 221.547C48.9298 222.465 47.8824 225.784 47.111 228.101C47.0539 228.27 46.9454 228.416 46.8008 228.52C46.6561 228.624 46.4826 228.68 46.3046 228.68C46.1266 228.68 45.953 228.624 45.8084 228.52C45.6638 228.416 45.5553 228.27 45.4982 228.101C44.7235 225.774 43.676 222.448 43.676 221.547C43.676 220.851 43.9528 220.182 44.4454 219.69C44.9381 219.197 45.6062 218.92 46.3029 218.92C46.9996 218.92 47.6678 219.197 48.1604 219.69C48.6531 220.182 48.9298 220.851 48.9298 221.547Z" fill="white"/>
<path d="M43.676 243.66C43.676 242.742 44.7235 239.424 45.4982 237.106C45.5553 236.937 45.6638 236.791 45.8084 236.687C45.953 236.583 46.1266 236.528 46.3046 236.528C46.4826 236.528 46.6561 236.583 46.8008 236.687C46.9454 236.791 47.0539 236.937 47.111 237.106C47.8824 239.434 48.9298 242.742 48.9298 243.66C48.9298 244.357 48.6531 245.025 48.1604 245.517C47.6678 246.01 46.9996 246.287 46.3029 246.287C45.6062 246.287 44.9381 246.01 44.4454 245.517C43.9528 245.025 43.676 244.357 43.676 243.66Z" fill="white"/>
<path d="M35.2399 229.983C36.1576 229.983 39.4762 231.03 41.7938 231.801C41.9641 231.857 42.1125 231.965 42.2177 232.11C42.3229 232.254 42.3795 232.429 42.3795 232.608C42.3795 232.787 42.3229 232.961 42.2177 233.106C42.1125 233.251 41.9641 233.359 41.7938 233.414C39.4662 234.189 36.1576 235.236 35.2399 235.236C34.5432 235.236 33.875 234.96 33.3824 234.467C32.8897 233.974 32.613 233.306 32.613 232.61C32.613 231.913 32.8897 231.245 33.3824 230.752C33.875 230.259 34.5432 229.983 35.2399 229.983Z" fill="white"/>
<path d="M57.3766 235.236C56.4621 235.236 53.1436 234.189 50.8226 233.414C50.654 233.357 50.5075 233.249 50.4037 233.104C50.2999 232.959 50.2441 232.786 50.2441 232.608C50.2441 232.43 50.2999 232.256 50.4037 232.112C50.5075 231.967 50.654 231.859 50.8226 231.801C53.1502 231.03 56.4754 229.983 57.3766 229.983C58.0733 229.983 58.7414 230.259 59.2341 230.752C59.7267 231.245 60.0035 231.913 60.0035 232.61C60.0035 233.306 59.7267 233.974 59.2341 234.467C58.7414 234.96 58.0733 235.236 57.3766 235.236Z" fill="white"/>
<path d="M36.6238 238.576C37.2888 237.911 40.3613 236.321 42.5459 235.227C42.7055 235.148 42.8859 235.121 43.0616 235.15C43.2373 235.179 43.3996 235.262 43.5255 235.388C43.6514 235.514 43.7347 235.676 43.7636 235.852C43.7924 236.028 43.7655 236.208 43.6865 236.368C42.5925 238.553 40.9864 241.642 40.338 242.29C40.096 242.542 39.8061 242.743 39.4853 242.882C39.1645 243.021 38.8193 243.094 38.4699 243.097C38.1205 243.101 37.7738 243.035 37.4503 242.903C37.1268 242.77 36.8329 242.575 36.5858 242.328C36.3387 242.081 36.1434 241.787 36.0113 241.464C35.8792 241.14 35.813 240.793 35.8165 240.444C35.8201 240.095 35.8933 239.749 36.0319 239.429C36.1705 239.108 36.3717 238.818 36.6238 238.576Z" fill="white"/>
<path d="M55.9827 226.645C55.3376 227.293 52.2485 228.899 50.0606 229.993C49.901 230.072 49.7206 230.099 49.5449 230.07C49.3691 230.041 49.2069 229.958 49.081 229.832C48.9551 229.706 48.8718 229.544 48.8429 229.368C48.8141 229.193 48.841 229.012 48.92 228.853C50.014 226.665 51.6201 223.579 52.2685 222.931C52.7644 222.454 53.4271 222.192 54.1146 222.198C54.8021 222.205 55.4594 222.482 55.9455 222.968C56.4316 223.454 56.7078 224.111 56.7148 224.799C56.7217 225.486 56.4589 226.149 55.9827 226.645Z" fill="white"/>
<path d="M36.6238 226.645C37.2888 227.293 40.3613 228.899 42.5459 229.993C42.7055 230.072 42.8859 230.099 43.0616 230.07C43.2373 230.041 43.3996 229.958 43.5255 229.832C43.6514 229.706 43.7347 229.544 43.7636 229.368C43.7924 229.192 43.7655 229.012 43.6865 228.853C42.5925 226.665 40.9864 223.579 40.338 222.93C40.096 222.678 39.8061 222.477 39.4853 222.338C39.1645 222.2 38.8193 222.127 38.4699 222.123C38.1205 222.12 37.7738 222.186 37.4503 222.318C37.1268 222.45 36.8329 222.645 36.5858 222.892C36.3387 223.139 36.1434 223.433 36.0113 223.757C35.8792 224.08 35.813 224.427 35.8165 224.776C35.8201 225.126 35.8933 225.471 36.0319 225.792C36.1705 226.113 36.3717 226.403 36.6238 226.645Z" fill="white"/>
<path d="M55.9827 238.576C55.3376 237.911 52.2485 236.321 50.0606 235.227C49.901 235.148 49.7206 235.121 49.5449 235.15C49.3691 235.179 49.2069 235.262 49.081 235.388C48.9551 235.514 48.8718 235.676 48.8429 235.852C48.8141 236.028 48.841 236.208 48.92 236.368C50.014 238.553 51.6201 241.642 52.2685 242.29C52.7644 242.766 53.4271 243.029 54.1146 243.022C54.8021 243.015 55.4594 242.739 55.9455 242.253C56.4316 241.767 56.7078 241.109 56.7148 240.422C56.7217 239.734 56.4589 239.072 55.9827 238.576Z" fill="white"/>
<path d="M46.3034 235.769C48.048 235.769 49.4623 234.355 49.4623 232.61C49.4623 230.865 48.048 229.451 46.3034 229.451C44.5588 229.451 43.1445 230.865 43.1445 232.61C43.1445 234.355 44.5588 235.769 46.3034 235.769Z" fill="#FFAFB1"/>
<path d="M222.814 0V32.0815" stroke="#D9AF00" stroke-width="1.43981" stroke-miterlimit="10"/>
<path d="M222.814 83.9912C229.522 83.9912 234.961 78.5529 234.961 71.8443C234.961 65.1358 229.522 59.6974 222.814 59.6974C216.105 59.6974 210.667 65.1358 210.667 71.8443C210.667 78.5529 216.105 83.9912 222.814 83.9912Z" fill="white"/>
<path d="M258.387 72.4524H187.058L202.963 36.6334C203.564 35.2787 204.546 34.1276 205.789 33.3196C207.032 32.5117 208.483 32.0815 209.965 32.0812H235.493C236.976 32.0794 238.427 32.5087 239.671 33.317C240.914 34.1252 241.895 35.2774 242.496 36.6334L258.387 72.4524Z" stroke="#A0D6FF" stroke-width="1.26025" stroke-miterlimit="10"/>
<path d="M241.551 72.4524H203.368L216.193 32.0812H228.729L241.551 72.4524Z" stroke="#A0D6FF" stroke-width="1.26025" stroke-miterlimit="10"/>
<path d="M222.814 32.0812V72.4524" stroke="#A0D6FF" stroke-width="1.26025" stroke-miterlimit="10"/>
</g>
<defs>
<clipPath id="clip0_3_40">
<rect width="641" height="465" fill="white"/>
</clipPath>
</defs>
</svg>
