<svg width="577" height="467" viewBox="0 0 577 467" fill="none" xmlns="http://www.w3.org/2000/svg">
<g clip-path="url(#clip0_3_826)">
<path d="M547.984 72.4122H475.672C475.672 64.4443 485.316 57.9853 497.212 57.9853C501.15 57.9512 505.055 58.704 508.698 60.1994C511.302 56.4117 515.049 53.5564 519.392 52.051C523.735 50.5455 528.445 50.469 532.835 51.8325C537.225 53.196 541.063 55.9281 543.788 59.6292C546.514 63.3303 547.984 67.8063 547.984 72.4027V72.4122Z" fill="#F5EFD9"/>
<path d="M128.583 91.0269H32.339C32.339 82.439 41.104 75.477 51.9187 75.477C54.2754 75.471 56.6202 75.8121 58.8775 76.4892C62.4645 71.2005 67.9715 67.8159 74.1427 67.8159C83.4106 67.8159 91.1729 75.4485 93.2037 85.7033C96.7653 83.1728 102.513 81.1864 108.997 81.1864C119.815 81.1927 128.583 86.7408 128.583 91.0269Z" fill="#F5EFD9"/>
<path d="M112.525 465.395C143.61 465.395 168.809 427.779 168.809 381.376C168.809 334.974 143.61 297.358 112.525 297.358C81.4395 297.358 56.2401 334.974 56.2401 381.376C56.2401 427.779 81.4395 465.395 112.525 465.395Z" fill="#F5EFD9"/>
<path d="M549.926 465.399C549.926 412.92 520.475 370.376 484.134 370.376C447.793 370.376 418.341 412.92 418.341 465.399H549.926Z" fill="#EFDFC0"/>
<path d="M119.566 465.398C119.566 432.929 92.8027 406.608 59.7829 406.608C26.7631 406.608 0 432.929 0 465.398H119.566Z" fill="#EFDFC0"/>
<path d="M249.801 465.399H125.396C137.134 443.943 160.586 429.31 187.599 429.31C214.612 429.31 238.063 443.943 249.801 465.399Z" fill="#F5EFD9"/>
<path d="M506.665 465.399H394.691C405.255 443.943 426.363 429.31 450.678 429.31C474.993 429.31 496.1 443.943 506.665 465.399Z" fill="#F5EFD9"/>
<path d="M107.09 415.235V465.399" stroke="#D9AF00" stroke-width="1.24362" stroke-miterlimit="10" stroke-linecap="round"/>
<path d="M115.545 432.581L107.09 443.545" stroke="#D9AF00" stroke-width="1.24362" stroke-miterlimit="10" stroke-linecap="round"/>
<path d="M107.091 465.398L91.6611 450.544" stroke="#D9AF00" stroke-width="1.24362" stroke-miterlimit="10" stroke-linecap="round"/>
<path d="M107.091 412.034C111.76 412.034 115.546 408.248 115.546 403.579C115.546 398.909 111.76 395.124 107.091 395.124C102.421 395.124 98.6357 398.909 98.6357 403.579C98.6357 408.248 102.421 412.034 107.091 412.034Z" fill="white"/>
<path d="M107.09 395.126V412.033" stroke="#D9AF00" stroke-width="0.711591" stroke-miterlimit="10" stroke-linecap="round"/>
<path d="M98.6387 403.579H115.546" stroke="#D9AF00" stroke-width="0.711591" stroke-miterlimit="10" stroke-linecap="round"/>
<path d="M101.112 397.601L113.069 409.557" stroke="#D9AF00" stroke-width="0.711591" stroke-miterlimit="10" stroke-linecap="round"/>
<path d="M101.112 409.557L113.069 397.601" stroke="#D9AF00" stroke-width="0.711591" stroke-miterlimit="10" stroke-linecap="round"/>
<path d="M108.287 406.47C109.883 405.809 110.641 403.979 109.98 402.383C109.319 400.787 107.489 400.029 105.893 400.69C104.296 401.351 103.538 403.181 104.2 404.777C104.861 406.373 106.691 407.131 108.287 406.47Z" fill="white"/>
<path d="M107.09 405.27C108.025 405.27 108.782 404.513 108.782 403.578C108.782 402.643 108.025 401.886 107.09 401.886C106.155 401.886 105.398 402.643 105.398 403.578C105.398 404.513 106.155 405.27 107.09 405.27Z" fill="#D9AF00"/>
<path d="M122.688 433.254C127.357 433.254 131.143 429.469 131.143 424.799C131.143 420.13 127.357 416.344 122.688 416.344C118.018 416.344 114.233 420.13 114.233 424.799C114.233 429.469 118.018 433.254 122.688 433.254Z" fill="white"/>
<path d="M122.688 416.344V433.254" stroke="#D9AF00" stroke-width="0.711591" stroke-miterlimit="10" stroke-linecap="round"/>
<path d="M114.233 424.8H131.14" stroke="#D9AF00" stroke-width="0.711591" stroke-miterlimit="10" stroke-linecap="round"/>
<path d="M116.71 418.821L128.663 430.778" stroke="#D9AF00" stroke-width="0.711591" stroke-miterlimit="10" stroke-linecap="round"/>
<path d="M116.71 430.778L128.663 418.821" stroke="#D9AF00" stroke-width="0.711591" stroke-miterlimit="10" stroke-linecap="round"/>
<path d="M125.724 425.494C126.121 423.813 125.08 422.128 123.398 421.731C121.717 421.334 120.032 422.376 119.635 424.057C119.238 425.739 120.28 427.424 121.961 427.821C123.643 428.217 125.328 427.176 125.724 425.494Z" fill="white"/>
<path d="M122.688 426.493C123.623 426.493 124.38 425.735 124.38 424.8C124.38 423.866 123.623 423.108 122.688 423.108C121.753 423.108 120.996 423.866 120.996 424.8C120.996 425.735 121.753 426.493 122.688 426.493Z" fill="#D9AF00"/>
<path d="M83.5917 450.832C88.2613 450.832 92.0467 447.047 92.0467 442.377C92.0467 437.708 88.2613 433.922 83.5917 433.922C78.9222 433.922 75.1367 437.708 75.1367 442.377C75.1367 447.047 78.9222 450.832 83.5917 450.832Z" fill="white"/>
<path d="M83.5918 433.925V450.832" stroke="#D9AF00" stroke-width="0.711591" stroke-miterlimit="10" stroke-linecap="round"/>
<path d="M75.1393 442.377H92.0461" stroke="#D9AF00" stroke-width="0.711591" stroke-miterlimit="10" stroke-linecap="round"/>
<path d="M77.6165 436.402L89.5699 448.356" stroke="#D9AF00" stroke-width="0.711591" stroke-miterlimit="10" stroke-linecap="round"/>
<path d="M77.6165 448.356L89.5699 436.402" stroke="#D9AF00" stroke-width="0.711591" stroke-miterlimit="10" stroke-linecap="round"/>
<path d="M86.6309 443.075C87.0278 441.394 85.9864 439.709 84.3049 439.312C82.6234 438.915 80.9385 439.956 80.5416 441.638C80.1447 443.319 81.1861 445.004 82.8677 445.401C84.5492 445.798 86.2341 444.757 86.6309 443.075Z" fill="white"/>
<path d="M83.5917 444.069C84.5263 444.069 85.284 443.311 85.284 442.377C85.284 441.442 84.5263 440.684 83.5917 440.684C82.6571 440.684 81.8994 441.442 81.8994 442.377C81.8994 443.311 82.6571 444.069 83.5917 444.069Z" fill="#D9AF00"/>
<path d="M493.105 432.15V464.717" stroke="#D9AF00" stroke-width="1.24362" stroke-miterlimit="10" stroke-linecap="round"/>
<path d="M501.56 445.182L493.105 456.146" stroke="#D9AF00" stroke-width="1.24362" stroke-miterlimit="10" stroke-linecap="round"/>
<path d="M493.105 428.949C497.774 428.949 501.56 425.164 501.56 420.494C501.56 415.825 497.774 412.039 493.105 412.039C488.435 412.039 484.65 415.825 484.65 420.494C484.65 425.164 488.435 428.949 493.105 428.949Z" fill="white"/>
<path d="M493.105 412.039V428.949" stroke="#D9AF00" stroke-width="0.711591" stroke-miterlimit="10" stroke-linecap="round"/>
<path d="M484.653 420.495H501.56" stroke="#D9AF00" stroke-width="0.711591" stroke-miterlimit="10" stroke-linecap="round"/>
<path d="M487.13 414.516L499.083 426.473" stroke="#D9AF00" stroke-width="0.711591" stroke-miterlimit="10" stroke-linecap="round"/>
<path d="M487.13 426.473L499.083 414.516" stroke="#D9AF00" stroke-width="0.711591" stroke-miterlimit="10" stroke-linecap="round"/>
<path d="M496.126 421.187C496.523 419.505 495.482 417.82 493.8 417.423C492.119 417.026 490.434 418.068 490.037 419.749C489.64 421.431 490.681 423.116 492.363 423.513C494.044 423.91 495.729 422.868 496.126 421.187Z" fill="white"/>
<path d="M493.105 422.186C494.04 422.186 494.797 421.428 494.797 420.494C494.797 419.559 494.04 418.802 493.105 418.802C492.17 418.802 491.413 419.559 491.413 420.494C491.413 421.428 492.17 422.186 493.105 422.186Z" fill="#D9AF00"/>
<path d="M517.073 438.782C517.821 434.173 514.691 429.83 510.082 429.082C505.473 428.333 501.13 431.463 500.381 436.073C499.633 440.682 502.763 445.025 507.372 445.773C511.982 446.521 516.325 443.391 517.073 438.782Z" fill="white"/>
<path d="M508.702 428.95V445.857" stroke="#D9AF00" stroke-width="0.711591" stroke-miterlimit="10" stroke-linecap="round"/>
<path d="M500.247 437.402H517.154" stroke="#D9AF00" stroke-width="0.711591" stroke-miterlimit="10" stroke-linecap="round"/>
<path d="M502.723 431.422L514.68 443.379" stroke="#D9AF00" stroke-width="0.711591" stroke-miterlimit="10" stroke-linecap="round"/>
<path d="M502.723 443.379L514.68 431.422" stroke="#D9AF00" stroke-width="0.711591" stroke-miterlimit="10" stroke-linecap="round"/>
<path d="M509.899 440.294C511.495 439.632 512.253 437.803 511.592 436.206C510.931 434.61 509.101 433.852 507.505 434.513C505.908 435.174 505.15 437.004 505.812 438.601C506.473 440.197 508.303 440.955 509.899 440.294Z" fill="white"/>
<path d="M508.702 439.094C509.637 439.094 510.394 438.336 510.394 437.401C510.394 436.467 509.637 435.709 508.702 435.709C507.767 435.709 507.01 436.467 507.01 437.401C507.01 438.336 507.767 439.094 508.702 439.094Z" fill="#D9AF00"/>
<path d="M577 465.398H504.688C504.688 457.43 514.332 450.971 526.226 450.971C530.164 450.938 534.07 451.691 537.714 453.185C540.319 449.399 544.067 446.546 548.41 445.042C552.752 443.538 557.462 443.462 561.851 444.826C566.239 446.19 570.077 448.921 572.802 452.621C575.528 456.321 576.999 460.796 577 465.392V465.398Z" fill="#F5EFD9"/>
<path d="M301.311 391.818L158.845 254.305L304.462 103.446C342.419 64.1036 405.109 62.9965 444.452 100.97C483.792 138.943 484.902 201.617 446.925 240.96L301.311 391.818Z" fill="#A0D6FF"/>
<path d="M301.051 391.818L345.718 345.541C396.995 292.401 395.499 207.781 342.374 156.507L287.706 103.737C248.379 65.7636 185.689 66.8707 147.716 106.21C109.759 145.55 110.85 208.227 150.193 246.2L301.051 391.818Z" fill="#FFAFB1"/>
<path d="M141.558 447.973L147.299 459.942C147.405 460.162 147.568 460.35 147.771 460.485C147.975 460.62 148.211 460.698 148.454 460.71C148.698 460.723 148.941 460.669 149.157 460.555C149.373 460.441 149.554 460.27 149.681 460.062L156.064 449.573C156.499 448.858 157.111 448.267 157.841 447.857C158.57 447.447 159.393 447.232 160.23 447.232H160.417L176.156 387.971L148.245 385.08L142.194 444.616C142.079 445.751 141.867 446.874 141.558 447.973Z" fill="#B4702F"/>
<path d="M148.245 385.08L176.156 387.971L173.977 396.17L147.992 387.573L148.245 385.08Z" fill="#56303C"/>
<path d="M126.599 464.472H148.248C148.732 464.472 149.209 464.351 149.636 464.12C150.062 463.889 150.424 463.556 150.689 463.15L154.703 456.27C154.896 455.964 155.171 455.72 155.497 455.565C155.824 455.41 156.188 455.352 156.546 455.397C156.904 455.442 157.242 455.588 157.521 455.818C157.799 456.048 158.006 456.353 158.116 456.697L160.773 464.472H163.453L165.303 454.666C165.303 453.087 164.841 451.543 163.974 450.223C163.108 448.902 161.874 447.864 160.426 447.236H160.239C159.402 447.236 158.579 447.451 157.85 447.861C157.12 448.271 156.508 448.862 156.073 449.577L149.69 460.063C149.563 460.271 149.382 460.441 149.166 460.555C148.95 460.669 148.707 460.723 148.463 460.711C148.219 460.698 147.983 460.621 147.78 460.485C147.577 460.35 147.414 460.163 147.308 459.942L141.567 447.973C140.803 450.711 139.461 453.254 137.633 455.431C135.805 457.607 133.532 459.368 130.967 460.594L126.223 462.856C126.049 462.94 125.909 463.081 125.826 463.255C125.743 463.429 125.722 463.626 125.766 463.814C125.809 464.002 125.916 464.169 126.067 464.289C126.219 464.408 126.406 464.473 126.599 464.472Z" fill="#FFAFB1"/>
<path d="M149.921 464.472H125.309" stroke="#56303C" stroke-width="1.71912" stroke-miterlimit="10" stroke-linecap="round"/>
<path d="M163.443 464.472H160.764" stroke="#56303C" stroke-width="1.71912" stroke-miterlimit="10" stroke-linecap="round"/>
<path d="M160.23 446.767H141.337" stroke="#56303C" stroke-width="1.71912" stroke-miterlimit="10" stroke-linecap="round"/>
<path d="M253.895 447.973L248.154 459.942C248.049 460.162 247.886 460.35 247.683 460.485C247.479 460.62 247.243 460.698 246.999 460.71C246.755 460.723 246.513 460.669 246.297 460.555C246.081 460.441 245.9 460.271 245.773 460.062L239.389 449.573C238.954 448.858 238.343 448.267 237.613 447.857C236.883 447.447 236.061 447.232 235.224 447.232H235.037L219.297 387.972L247.209 385.08L253.26 444.617C253.374 445.752 253.587 446.874 253.895 447.973Z" fill="#B4702F"/>
<path d="M247.209 385.08L219.297 387.972L221.474 396.17L247.474 387.696L247.209 385.08Z" fill="#56303C"/>
<path d="M268.864 464.472H247.216C246.731 464.472 246.254 464.351 245.827 464.12C245.401 463.889 245.039 463.556 244.774 463.15L240.76 456.27C240.568 455.964 240.292 455.72 239.966 455.565C239.639 455.41 239.276 455.352 238.917 455.397C238.559 455.442 238.221 455.588 237.943 455.818C237.664 456.048 237.458 456.353 237.347 456.697L234.69 464.472H232.011L230.16 454.666C230.16 453.087 230.622 451.543 231.489 450.223C232.355 448.902 233.589 447.864 235.038 447.236H235.224C236.061 447.236 236.884 447.451 237.614 447.861C238.343 448.271 238.955 448.862 239.39 449.577L245.773 460.066C245.901 460.274 246.082 460.444 246.297 460.558C246.513 460.673 246.756 460.726 247 460.714C247.244 460.702 247.48 460.624 247.683 460.489C247.886 460.353 248.05 460.166 248.155 459.946L253.896 447.976C254.661 450.714 256.002 453.257 257.83 455.434C259.658 457.611 261.931 459.371 264.496 460.597L269.24 462.859C269.412 462.944 269.55 463.085 269.632 463.258C269.714 463.432 269.735 463.628 269.691 463.814C269.647 464.001 269.542 464.168 269.392 464.287C269.242 464.406 269.056 464.472 268.864 464.472Z" fill="#FFAFB1"/>
<path d="M245.229 464.472H270.277" stroke="#56303C" stroke-width="1.71912" stroke-miterlimit="10" stroke-linecap="round"/>
<path d="M232.011 464.472H234.69" stroke="#56303C" stroke-width="1.71912" stroke-miterlimit="10" stroke-linecap="round"/>
<path d="M235.037 446.767H253.896" stroke="#56303C" stroke-width="1.71912" stroke-miterlimit="10" stroke-linecap="round"/>
<path d="M258.761 383.15C242.198 386.203 225.425 387.98 208.59 388.467L196.482 290.62L185.579 388.458C154.897 387.509 134.2 383.141 134.2 383.141L165.996 193.227C166.778 188.535 169.202 184.274 172.834 181.204C176.467 178.133 181.072 176.453 185.829 176.463L210.321 176.517C215.115 176.528 219.746 178.254 223.377 181.385C227.008 184.515 229.398 188.842 230.115 193.582L258.761 383.15Z" fill="#D9AF00"/>
<path d="M224.228 182.561C220.695 186.651 210.671 189.204 197.942 189.204C185.404 189.204 175.326 186.464 171.584 182.371" stroke="#56303C" stroke-width="1.3733" stroke-miterlimit="10" stroke-linecap="round"/>
<path d="M229.833 202.685C225.937 202.684 222.193 201.175 219.387 198.473C216.581 195.771 214.931 192.087 214.783 188.195" stroke="#56303C" stroke-width="1.3733" stroke-miterlimit="10" stroke-linecap="round"/>
<path d="M165.688 202.685C169.584 202.684 173.327 201.175 176.134 198.473C178.94 195.771 180.59 192.087 180.738 188.195" stroke="#56303C" stroke-width="1.3733" stroke-miterlimit="10" stroke-linecap="round"/>
<path d="M207.53 379.913C207.53 379.913 235.049 378.155 257.466 374.593" stroke="#56303C" stroke-width="1.3733" stroke-miterlimit="10" stroke-linecap="round"/>
<path d="M186.53 379.449C186.53 379.449 153.001 378.921 135.769 373.775" stroke="#56303C" stroke-width="1.3733" stroke-miterlimit="10" stroke-linecap="round"/>
<path d="M167.04 144.643C161.957 138.822 159.496 133.015 160.239 125.322L160.761 120.097L132.413 144.067L158.901 168.107C161.557 170.448 163.174 173.749 163.397 177.282C163.619 180.816 162.429 184.293 160.087 186.949C157.746 189.605 154.445 191.222 150.912 191.445C147.378 191.667 143.901 190.477 141.245 188.135L107.203 159.003C105.262 157.343 103.683 155.302 102.565 153.005C101.447 150.709 100.813 148.207 100.704 145.655C100.595 143.103 101.012 140.556 101.93 138.173C102.848 135.789 104.247 133.62 106.039 131.8L143.345 95.7724C152.202 86.7797 162.425 81.6997 175.042 81.6681L217.479 81.5669C231.627 81.5321 243.416 85.9952 252.099 99.4543L261.74 99.3467C271.625 99.236 276.813 108.203 274.956 117.917L268.845 161.923C268.279 164.884 266.722 167.564 264.429 169.522C262.136 171.48 259.245 172.598 256.232 172.692C253.219 172.786 250.263 171.851 247.852 170.041C245.442 168.23 243.72 165.653 242.97 162.732L232.785 136.036C232.695 135.796 232.527 135.592 232.309 135.459C232.09 135.325 231.833 135.268 231.578 135.298C231.323 135.327 231.085 135.441 230.903 135.621C230.721 135.801 230.604 136.038 230.571 136.292L225.605 173.152C225.605 179.162 213.901 183.188 197.943 183.188C181.986 183.188 170.013 178.76 170.013 172.731L167.04 144.643Z" fill="#EFDFC0"/>
<path d="M244.466 139.297V108.372C244.466 107.129 244.715 105.899 245.2 104.755C245.684 103.61 246.394 102.575 247.287 101.711C248.179 100.846 249.237 100.17 250.396 99.722C251.555 99.2741 252.792 99.0639 254.034 99.1038" stroke="#56303C" stroke-width="1.3733" stroke-miterlimit="10" stroke-linecap="round"/>
<path d="M217.171 127.721L210.757 121.29C210.35 120.877 210.04 120.379 209.851 119.831C209.661 119.283 209.596 118.7 209.66 118.124C209.725 117.548 209.917 116.994 210.223 116.501C210.529 116.009 210.941 115.591 211.429 115.279C211.917 114.966 212.468 114.766 213.043 114.693C213.618 114.621 214.202 114.678 214.753 114.86C215.303 115.042 215.806 115.344 216.224 115.745C216.643 116.146 216.966 116.636 217.171 117.178C217.498 116.302 218.126 115.572 218.943 115.119C219.764 114.662 220.722 114.518 221.641 114.712C222.559 114.906 223.377 115.426 223.943 116.176C224.509 116.925 224.785 117.854 224.72 118.791C224.655 119.728 224.253 120.61 223.589 121.274L217.171 127.721Z" fill="white"/>
<path d="M133.323 144.068L128.06 139.649" stroke="#56303C" stroke-width="1.3733" stroke-miterlimit="10" stroke-linecap="round"/>
<path d="M219.923 49.4836C226.188 49.4836 231.266 45.5282 231.266 40.649C231.266 35.7698 226.188 31.8145 219.923 31.8145C213.659 31.8145 208.58 35.7698 208.58 40.649C208.58 45.5282 213.659 49.4836 219.923 49.4836Z" fill="#56303C"/>
<path d="M203.083 67.9942C213.964 67.9942 222.786 59.8951 222.786 49.9043C222.786 39.9136 213.964 31.8145 203.083 31.8145C192.201 31.8145 183.38 39.9136 183.38 49.9043C183.38 59.8951 192.201 67.9942 203.083 67.9942Z" fill="#56303C"/>
<path d="M184.758 53.7347C187.726 46.5489 184.307 38.3177 177.121 35.3497C169.935 32.3817 161.704 35.8008 158.736 42.9865C155.768 50.1722 159.187 58.4035 166.373 61.3715C173.559 64.3395 181.79 60.9204 184.758 53.7347Z" fill="#56303C"/>
<path d="M164.271 52.8836C167.26 45.6676 163.833 37.3948 156.617 34.4058C149.401 31.4169 141.128 34.8436 138.139 42.0596C135.15 49.2756 138.577 57.5484 145.793 60.5374C153.009 63.5264 161.282 60.0997 164.271 52.8836Z" fill="#56303C"/>
<path d="M136.297 44.8652L138.905 47.4731L136.29 50.0878C135.44 50.9378 134.287 51.4154 133.085 51.4154C131.883 51.4154 130.73 50.9378 129.88 50.0878L127.272 47.4798L129.887 44.8652C130.737 44.0151 131.89 43.5376 133.092 43.5376C134.294 43.5376 135.447 44.0151 136.297 44.8652Z" fill="#56303C"/>
<path d="M222.855 52.1473C222.923 52.9879 223.226 53.7924 223.73 54.4691C224.233 55.1458 224.916 55.6675 225.702 55.9747C225.848 56.0615 225.97 56.184 226.056 56.3306C226.142 56.4773 226.189 56.6434 226.194 56.8133C226.198 56.9833 226.159 57.1516 226.081 57.3025C226.003 57.4535 225.888 57.5821 225.746 57.6764L222.899 59.5743L222.969 66.783C222.977 67.245 222.893 67.7039 222.721 68.133C222.55 68.5621 222.295 68.9528 221.971 69.2823C221.647 69.6118 221.261 69.8735 220.835 70.0521C220.409 70.2307 219.951 70.3226 219.489 70.3226H214.375V85.3347L199.59 103.175L181.292 85.3347L194.646 62.244C193.447 62.2431 192.298 61.7662 191.45 60.918C190.602 60.0698 190.126 58.9198 190.126 57.7207V57.1229C190.124 55.8172 190.587 54.5533 191.432 53.558C192.277 52.5628 193.449 51.9012 194.738 51.6921C196.027 51.483 197.348 51.74 198.465 52.4171C199.581 53.0941 200.42 54.1468 200.83 55.3863L201.017 55.943C201.017 55.943 208.207 54.0926 210.879 47.3109C211.764 45.1742 211.936 42.8093 211.37 40.5671L214.027 40.8234C216.408 41.0542 218.621 42.1574 220.238 43.9208C221.855 45.6842 222.764 47.9833 222.789 50.376L222.855 52.1473Z" fill="#B4702F"/>
<path d="M217.114 55.1586C217.639 55.1586 218.063 54.5242 218.063 53.7415C218.063 52.9589 217.639 52.3245 217.114 52.3245C216.59 52.3245 216.166 52.9589 216.166 53.7415C216.166 54.5242 216.59 55.1586 217.114 55.1586Z" fill="#56303C"/>
<path d="M214.157 50.664C214.157 50.664 216.181 49.3386 218.206 49.4177" stroke="#56303C" stroke-width="1.32343" stroke-miterlimit="10" stroke-linecap="round"/>
<path d="M198.259 57.6286C198.259 57.6286 197.446 54.5414 194.239 55.4334" stroke="#56303C" stroke-width="1.32343" stroke-miterlimit="10" stroke-linecap="round"/>
<path d="M195.463 57.4674L196.675 55.8732" stroke="#56303C" stroke-width="1.32343" stroke-miterlimit="10" stroke-linecap="round"/>
<path d="M222.887 62.6614C222.887 62.6614 220.129 62.7279 219.322 60.6276" stroke="#56303C" stroke-width="1.32343" stroke-miterlimit="10"/>
<path d="M214.375 70.316C214.375 70.316 209.852 69.9048 206.977 66.8365L214.375 76.405V70.316Z" fill="#56303C"/>
<path d="M182.808 186.022L178.63 191.188C178.178 191.745 177.529 192.106 176.818 192.196C176.107 192.286 175.388 192.098 174.812 191.672L173.474 190.666C172.564 189.992 171.462 189.629 170.33 189.629C169.198 189.629 168.096 189.992 167.186 190.666L165.689 191.77C162.975 193.937 157.013 191.82 155.994 188.003C155.409 185.788 155.46 183.527 156.842 180.645C158.269 177.669 159.819 176.46 163.121 176.391L168.353 175.799C169.454 175.67 170.566 175.928 171.497 176.53L182.416 183.587C182.611 183.714 182.776 183.88 182.903 184.075C183.029 184.269 183.114 184.489 183.151 184.718C183.188 184.947 183.176 185.182 183.117 185.406C183.058 185.631 182.953 185.841 182.808 186.022Z" fill="#B4702F"/>
<path d="M174.423 183.468L180.813 187.694" stroke="#56303C" stroke-width="1.3733" stroke-miterlimit="10" stroke-linecap="round"/>
<path d="M176.134 181.354L182.52 185.58" stroke="#56303C" stroke-width="1.3733" stroke-miterlimit="10" stroke-linecap="round"/>
<path d="M172.139 185.867L178.807 190.043" stroke="#56303C" stroke-width="1.3733" stroke-miterlimit="10" stroke-linecap="round"/>
<path d="M186.455 76.3918C178.668 76.3918 160.698 81.5667 155.928 85.761L158.142 85.3087C162.134 84.4923 166.252 84.5048 170.239 85.3455C174.227 86.1862 177.999 87.837 181.321 90.1957L199.601 103.164L187.015 90.9074C185.375 89.3096 184.315 87.2103 184.003 84.942C183.69 82.6737 184.144 80.3661 185.291 78.3846L186.455 76.3918Z" fill="#FFAFB1"/>
<path d="M199.592 103.158L210.391 90.1259C212.966 87.0184 214.375 83.1096 214.376 79.0739V76.3916L239.997 83.9831L238.602 83.8154C230.777 82.882 222.899 85.0646 216.669 89.8918L199.592 103.158Z" fill="#FFAFB1"/>
<path d="M158.149 85.3081C162.14 84.4927 166.256 84.5057 170.242 85.3463C174.228 86.187 177.999 87.8373 181.322 90.1952L199.601 103.164" stroke="#56303C" stroke-width="1.3733" stroke-miterlimit="10" stroke-linecap="round"/>
<path d="M232.249 83.7517C226.585 84.2873 221.191 86.4221 216.695 89.9071L199.615 103.157" stroke="#56303C" stroke-width="1.3733" stroke-miterlimit="10" stroke-linecap="round"/>
<path d="M199.592 109.475C202.164 109.475 204.248 107.39 204.248 104.819C204.248 102.247 202.164 100.163 199.592 100.163C197.021 100.163 194.936 102.247 194.936 104.819C194.936 107.39 197.021 109.475 199.592 109.475Z" fill="#D9AF00"/>
<path d="M196.688 105.176C196.692 104.764 196.777 104.358 196.938 103.98C197.099 103.601 197.333 103.258 197.627 102.971C197.921 102.683 198.268 102.456 198.65 102.303C199.032 102.15 199.44 102.074 199.851 102.079" stroke="white" stroke-width="1.3733" stroke-miterlimit="10" stroke-linecap="round"/>
<path d="M268.759 92.8593L263.018 33.7944" stroke="#56303C" stroke-width="1.88871" stroke-miterlimit="10" stroke-linecap="round"/>
<path d="M287.544 0.540558L233.132 5.82775L236.646 41.989L291.057 36.7018L287.544 0.540558Z" fill="#EFDFC0"/>
<path d="M249.715 21.2967L254.507 26.073C255.873 27.199 256.781 29.2804 256.952 31.0422L257.398 35.6382L247.57 36.5872L247.254 33.0034L241.449 26.3418C241.177 25.8974 241.012 25.3951 240.968 24.8754C240.925 24.3557 241.004 23.8331 241.199 23.3495C242.386 20.4142 244.575 15.3152 245.248 13.6482C245.269 13.5967 245.301 13.5504 245.341 13.5125C245.382 13.4746 245.43 13.446 245.483 13.4288C245.536 13.4116 245.592 13.4062 245.647 13.413C245.702 13.4197 245.755 13.4385 245.802 13.4679H245.827C246.225 13.7119 246.542 14.0676 246.739 14.4906C246.936 14.9136 247.004 15.3852 246.934 15.8466L246.302 21.11C246.257 21.4082 246.327 21.7122 246.498 21.9609L247.051 22.7643L248 21.3979C248.097 21.2649 248.221 21.155 248.366 21.0761C248.51 20.9971 248.669 20.9512 248.833 20.9415C248.997 20.9318 249.162 20.9587 249.314 21.0201C249.466 21.0815 249.603 21.176 249.715 21.2967Z" fill="white"/>
<path d="M250.353 28.145C250.251 28.1445 250.151 28.1171 250.063 28.0654C249.976 28.0137 249.903 27.9397 249.853 27.8508L246.44 21.7238C246.374 21.5919 246.361 21.4392 246.404 21.2979C246.447 21.1565 246.544 21.0374 246.673 20.9654C246.802 20.8935 246.954 20.8743 247.097 20.9119C247.24 20.9495 247.363 21.041 247.44 21.1671L250.853 27.2941C250.927 27.4267 250.945 27.583 250.903 27.7289C250.862 27.8748 250.764 27.9983 250.631 28.0722C250.546 28.1191 250.45 28.1441 250.353 28.145Z" fill="#EFDFC0"/>
<path d="M273.685 18.9686L269.889 24.58C268.766 25.9465 268.276 28.1638 268.446 29.9257L268.892 34.5217L278.72 33.5727L278.344 29.9794L282.772 22.3247C282.957 21.837 283.024 21.3127 282.97 20.794C282.915 20.2754 282.739 19.7769 282.456 19.3387C280.729 16.688 277.597 12.1047 276.617 10.599C276.586 10.5524 276.546 10.5129 276.499 10.4835C276.452 10.4541 276.399 10.4354 276.344 10.4287C276.288 10.4221 276.232 10.4277 276.18 10.4451C276.127 10.4625 276.078 10.4913 276.038 10.5294L276.016 10.5453C275.672 10.8609 275.429 11.2706 275.317 11.7233C275.204 12.176 275.227 12.6519 275.383 13.0916L277.028 18.1367C277.13 18.4197 277.119 18.7309 276.999 19.0066L276.61 19.9018L275.408 18.7472C275.289 18.6302 275.144 18.5418 274.986 18.4886C274.827 18.4354 274.659 18.4188 274.493 18.4401C274.327 18.4615 274.168 18.5201 274.028 18.6116C273.888 18.7031 273.771 18.8252 273.685 18.9686Z" fill="white"/>
<path d="M274.247 25.8228C274.187 25.8223 274.127 25.8127 274.07 25.7943C273.926 25.7472 273.806 25.6448 273.737 25.5096C273.669 25.3744 273.656 25.2174 273.703 25.0731L275.873 18.4052C275.894 18.3313 275.93 18.2625 275.979 18.2027C276.027 18.143 276.087 18.0936 276.155 18.0575C276.223 18.0214 276.297 17.9994 276.374 17.9928C276.45 17.9861 276.528 17.9949 276.601 18.0187C276.674 18.0425 276.741 18.0808 276.799 18.1313C276.857 18.1818 276.905 18.2434 276.938 18.3126C276.972 18.3817 276.991 18.4569 276.995 18.5337C276.999 18.6105 276.988 18.6873 276.961 18.7595L274.791 25.4274C274.754 25.5422 274.681 25.6424 274.583 25.7134C274.486 25.7844 274.368 25.8227 274.247 25.8228Z" fill="#EFDFC0"/>
<path d="M262.278 26.1839L253.08 18.5925C252.492 18.1052 252.021 17.4925 251.701 16.7994C251.381 16.1063 251.221 15.3503 251.231 14.5869C251.242 13.8236 251.423 13.0723 251.762 12.3882C252.101 11.7041 252.589 11.1047 253.19 10.6338C253.791 10.1629 254.489 9.83264 255.235 9.66718C255.98 9.50173 256.753 9.50531 257.496 9.67766C258.24 9.85 258.936 10.1867 259.532 10.6631C260.129 11.1396 260.611 11.7435 260.944 12.4307C261.256 11.2446 261.983 10.2098 262.993 9.51431C264.008 8.81745 265.239 8.50994 266.462 8.64823C267.685 8.78653 268.817 9.36135 269.65 10.2671C270.483 11.1729 270.961 12.3488 270.997 13.579C271.033 14.8091 270.624 16.0108 269.845 16.9634L262.278 26.1839Z" fill="#FFAFB1"/>
<path d="M275.614 91.9323C275.835 93.3012 275.549 94.7037 274.809 95.8766C274.069 97.0496 272.927 97.9122 271.597 98.3028L268.219 99.2865L269.585 102.804C269.901 104.866 268.174 107.299 263.407 108.004C258.641 108.709 254.532 107.609 254.234 105.546L253.039 90.9486C252.761 88.9692 253.206 86.956 254.291 85.2774C255.376 83.5988 257.029 82.3669 258.947 81.8072L267.735 79.2482C268.43 79.0458 269.16 78.9932 269.878 79.094C270.595 79.1948 271.282 79.4467 271.895 79.833C272.508 80.2192 273.031 80.7311 273.431 81.3348C273.831 81.9385 274.099 82.6202 274.216 83.3349L275.614 91.9323Z" fill="#B4702F"/>
<path d="M259.523 92.6341C259.523 92.6341 263.73 90.5053 261.962 86.0706C261.962 86.0706 267.89 83.3187 267.339 79.6969" stroke="#56303C" stroke-width="1.3733" stroke-miterlimit="10" stroke-linecap="round"/>
<path d="M263.708 85.261L264.862 91.622C265.095 92.9036 265.765 94.065 266.757 94.909C267.75 95.7531 269.003 96.2279 270.306 96.2528L273.431 96.3129" stroke="#56303C" stroke-width="1.3733" stroke-miterlimit="10" stroke-linecap="round"/>
<path d="M265.872 92.8617L273.827 91.0239" stroke="#56303C" stroke-width="1.3733" stroke-miterlimit="10" stroke-linecap="round"/>
<path d="M264.805 89.2082L272.761 87.3673" stroke="#56303C" stroke-width="1.3733" stroke-miterlimit="10" stroke-linecap="round"/>
<path d="M263.742 85.5521L271.697 83.7144" stroke="#56303C" stroke-width="1.3733" stroke-miterlimit="10" stroke-linecap="round"/>
<path d="M362.986 464.472H319.677C317.675 464.472 317.27 461.641 319.193 461.078L326.56 458.927C329.657 458.021 332.503 456.412 334.874 454.223C337.245 452.035 339.077 449.327 340.228 446.312L340.734 444.98L341.091 444.032L358.254 444.591L360.753 448.991L366.304 458.756C366.638 459.337 366.813 459.995 366.812 460.665C366.81 461.335 366.633 461.993 366.296 462.572C365.96 463.151 365.477 463.632 364.896 463.966C364.315 464.299 363.656 464.474 362.986 464.472Z" fill="#A0D6FF"/>
<path d="M317.823 464.473H368.079" stroke="#56303C" stroke-width="1.71912" stroke-miterlimit="10" stroke-linecap="round"/>
<path d="M341.914 453.448L339.902 451.408C339.683 451.183 339.418 451.008 339.125 450.894C338.833 450.78 338.52 450.729 338.206 450.745C337.893 450.762 337.586 450.844 337.307 450.988C337.028 451.131 336.783 451.333 336.587 451.578L335.834 452.527C335.691 452.707 335.508 452.853 335.301 452.953C335.093 453.052 334.866 453.104 334.636 453.104C334.405 453.104 334.178 453.052 333.97 452.953C333.763 452.853 333.58 452.707 333.437 452.527" stroke="#56303C" stroke-width="1.71912" stroke-miterlimit="10" stroke-linecap="round"/>
<path d="M360.753 449.007C360.753 449.007 351.545 452.98 340.734 444.98L341.091 444.032L358.254 444.591L360.753 449.007Z" fill="#B4702F"/>
<path d="M475.309 464.472H435.264C434.588 464.472 433.921 464.311 433.32 464.002C432.719 463.693 432.2 463.244 431.807 462.694C431.414 462.144 431.157 461.508 431.059 460.839C430.961 460.17 431.025 459.488 431.244 458.848L434.799 448.426L436.254 444.171L453.774 443.583C454.069 444.215 454.385 444.813 454.723 445.408C458.184 451.562 463.702 456.302 470.308 458.794L475.957 460.929C476.361 461.079 476.698 461.365 476.911 461.739C477.124 462.113 477.198 462.55 477.121 462.973C477.043 463.396 476.819 463.778 476.488 464.052C476.156 464.327 475.739 464.475 475.309 464.472Z" fill="#A0D6FF"/>
<path d="M429.664 464.473H478.24" stroke="#56303C" stroke-width="1.71912" stroke-miterlimit="10" stroke-linecap="round"/>
<path d="M462.799 453.448L460.787 451.408C460.567 451.183 460.303 451.008 460.01 450.894C459.718 450.78 459.405 450.729 459.091 450.745C458.778 450.762 458.471 450.844 458.192 450.988C457.913 451.131 457.668 451.333 457.472 451.578L456.722 452.527C456.578 452.707 456.396 452.853 456.188 452.953C455.98 453.052 455.753 453.104 455.522 453.104C455.292 453.104 455.064 453.052 454.856 452.953C454.648 452.853 454.466 452.707 454.322 452.527" stroke="#56303C" stroke-width="1.71912" stroke-miterlimit="10" stroke-linecap="round"/>
<path d="M454.738 445.446C454.738 445.446 440.223 453.195 434.811 448.426L436.266 444.171L453.786 443.583L454.735 445.408L454.738 445.446Z" fill="#B4702F"/>
<path d="M458.136 438.879C458.215 439.433 458.177 439.999 458.025 440.538C457.873 441.077 457.61 441.579 457.252 442.01C456.895 442.442 456.451 442.794 455.95 443.044C455.448 443.294 454.9 443.436 454.34 443.462L435.362 444.265C429.741 444.481 426.214 440.53 425.208 434.997L390.683 245.119L369.113 437.601C368.888 439.608 367.913 441.457 366.383 442.777C364.854 444.097 362.883 444.791 360.864 444.721L336.989 443.88C336.245 443.854 335.515 443.674 334.844 443.351C334.174 443.029 333.578 442.57 333.093 442.006C332.609 441.441 332.247 440.781 332.031 440.069C331.814 439.358 331.748 438.608 331.836 437.87L360.26 194.272C360.354 193.461 360.744 192.713 361.354 192.17C361.964 191.627 362.752 191.327 363.568 191.327H422.719L458.136 438.879Z" fill="#56303C"/>
<path d="M398.628 293.35L390.05 241.096L386.254 238.973C385.691 238.72 385.188 238.351 384.777 237.891C384.366 237.43 384.057 236.888 383.869 236.3" stroke="white" stroke-width="1.71912" stroke-miterlimit="10" stroke-linecap="round"/>
<path d="M388.936 196.746C389.197 195.639 388.511 194.53 387.405 194.269C386.298 194.008 385.189 194.693 384.927 195.8C384.666 196.907 385.352 198.016 386.459 198.277C387.565 198.539 388.674 197.853 388.936 196.746Z" stroke="white" stroke-width="1.3733" stroke-miterlimit="10" stroke-linecap="round"/>
<path d="M372.65 203.452H425.439" stroke="white" stroke-width="1.3733" stroke-miterlimit="10" stroke-linecap="round"/>
<path d="M494.002 160.705C493.993 164.944 492.55 169.055 489.908 172.369C487.265 175.684 483.579 178.007 479.449 178.96C475.318 179.913 470.987 179.441 467.159 177.619C463.331 175.798 460.233 172.735 458.367 168.929L442.912 132.62C442.479 132.102 441.909 131.717 441.266 131.509C440.624 131.3 439.937 131.277 439.282 131.443C438.628 131.608 438.033 131.954 437.567 132.442C437.1 132.93 436.781 133.54 436.646 134.201L430.206 185.317C429.994 186.978 429.184 188.505 427.927 189.611C426.671 190.717 425.054 191.328 423.38 191.327H366.048C363.333 191.325 360.712 190.334 358.675 188.54C356.638 186.746 355.323 184.271 354.977 181.579L348.733 133.097C348.592 132.508 348.304 131.964 347.896 131.516C347.487 131.068 346.972 130.731 346.398 130.536C345.824 130.341 345.21 130.295 344.613 130.401C344.017 130.508 343.457 130.764 342.986 131.146L311.763 155.913L354.74 196.085L339.82 211.65L297.048 182.758C293.365 180.002 290.294 176.511 288.03 172.507C285.765 168.502 284.357 164.071 283.893 159.494C283.43 154.918 283.921 150.294 285.337 145.917C286.752 141.54 289.061 137.504 292.117 134.065L324.447 97.6896C328.715 92.8855 333.926 89.0107 339.756 86.3062C345.585 83.6018 351.909 82.1254 358.333 81.9689L420.691 80.4474C431.372 80.1844 441.823 83.5794 450.31 90.0696C455.108 93.7677 458.829 98.6823 461.087 104.304L466.12 116.69L469.65 86.4321L485.997 92.4831L493.866 158.447C493.957 159.196 494.002 159.95 494.002 160.705Z" fill="#EFDFC0"/>
<path d="M307.644 151.393L311.636 155.435L306.866 155.897" stroke="white" stroke-width="1.71912" stroke-linecap="round" stroke-linejoin="round"/>
<path d="M416.342 128.669L409.924 122.239C409.514 121.826 409.202 121.327 409.011 120.778C408.819 120.229 408.753 119.644 408.817 119.066C408.881 118.488 409.073 117.931 409.38 117.438C409.687 116.944 410.101 116.525 410.59 116.211C411.08 115.898 411.634 115.698 412.211 115.627C412.788 115.555 413.374 115.614 413.925 115.798C414.477 115.982 414.98 116.287 415.398 116.691C415.816 117.096 416.139 117.588 416.342 118.133C416.667 117.257 417.296 116.526 418.113 116.074C418.693 115.751 419.347 115.583 420.011 115.587C420.781 115.587 421.533 115.815 422.173 116.242C422.813 116.669 423.312 117.276 423.608 117.986C423.904 118.697 423.982 119.479 423.834 120.234C423.686 120.989 423.318 121.683 422.776 122.229L416.342 128.669Z" fill="white"/>
<path d="M353.146 194.342L346.333 188.224L338.599 210.847L353.146 194.342Z" fill="#A0D6FF"/>
<path d="M465.642 113.692L461.619 149.173" stroke="white" stroke-width="1.80225" stroke-linecap="round" stroke-linejoin="round"/>
<path d="M488.255 93.7539L492.045 34.2083" stroke="#56303C" stroke-width="1.88871" stroke-miterlimit="10" stroke-linecap="round"/>
<path d="M523.296 4.83178L467.052 0L463.746 38.4768L519.991 43.3085L523.296 4.83178Z" fill="#EFDFC0"/>
<path d="M500.175 25.1795C504.556 21.4917 505.117 14.9508 501.43 10.5698C497.742 6.18886 491.201 5.62693 486.82 9.31472C482.439 13.0025 481.877 19.5435 485.565 23.9245C489.253 28.3054 495.794 28.8673 500.175 25.1795Z" fill="#A0D6FF"/>
<path d="M492.513 11.317L491.409 11.2221C491.234 11.2067 491.058 11.2561 490.917 11.361C490.775 11.4659 490.677 11.619 490.641 11.7914L490.198 13.8823C490.151 14.1021 490.039 14.3027 489.877 14.4579C489.714 14.6131 489.508 14.7156 489.287 14.7521L486.962 15.1412C486.749 15.1763 486.554 15.2789 486.405 15.4339C486.255 15.589 486.16 15.788 486.133 16.0016L486.045 16.7006C486.021 16.9079 486.072 17.1168 486.188 17.2904C486.304 17.4641 486.477 17.5912 486.677 17.6495L487.31 17.8298C487.427 17.8632 487.535 17.9243 487.623 18.008C487.712 18.0917 487.779 18.1955 487.819 18.3106L487.993 18.8009L488.11 19.1394L487.885 18.8642L487.569 18.4814C487.455 18.3392 487.293 18.2436 487.114 18.2126L485.415 17.8963C485.299 17.8748 485.189 17.8268 485.094 17.756C484.999 17.6853 484.922 17.5936 484.868 17.4882L483.441 14.7173C483.859 13.0655 484.677 11.5418 485.822 10.2808C486.968 9.0197 488.407 8.06004 490.011 7.48645L489.189 8.92883C489.154 8.99192 489.136 9.0628 489.135 9.13487C489.135 9.20694 489.154 9.27786 489.188 9.34101C489.223 9.40416 489.273 9.45748 489.334 9.49602C489.395 9.53457 489.465 9.55708 489.537 9.56145L491.352 9.65951C491.52 9.6685 491.68 9.73557 491.805 9.84929L492.753 10.7286C492.831 10.7605 492.894 10.8221 492.926 10.8998C492.959 10.9775 492.959 11.065 492.927 11.143C492.896 11.221 492.834 11.2832 492.756 11.3158C492.679 11.3484 492.591 11.3489 492.513 11.317Z" fill="#A0D6FF"/>
<path d="M494.154 21.7555L494.059 22.8753C494.045 23.0512 493.966 23.2156 493.838 23.3371L492.528 24.5043C492.444 24.5797 492.34 24.63 492.228 24.6496C492.116 24.6691 492.001 24.6572 491.896 24.615L491.409 24.4189C491.374 24.4044 491.336 24.3983 491.298 24.401C491.26 24.4037 491.224 24.4152 491.191 24.4346C491.159 24.4539 491.131 24.4806 491.11 24.5125C491.09 24.5443 491.077 24.5805 491.073 24.6182L490.896 26.1554C490.883 26.2708 490.896 26.3875 490.935 26.497C490.973 26.6066 491.035 26.706 491.118 26.7881L491.823 27.4903C491.136 27.3777 490.462 27.1965 489.811 26.9494L488.777 25.8929C488.666 25.7752 488.601 25.6214 488.593 25.4596L488.546 23.7831L486.721 22.6665C486.561 22.5687 486.431 22.428 486.347 22.2603C486.262 22.0926 486.226 21.9046 486.243 21.7176L486.376 20.1803C486.388 20.0374 486.434 19.8994 486.51 19.7782C486.587 19.657 486.692 19.5562 486.816 19.4844L487.888 18.8518L487.996 18.7885L489.09 18.1559C489.198 18.0952 489.322 18.0676 489.446 18.0766C489.569 18.0856 489.688 18.1308 489.786 18.2065L491.206 19.3516C491.363 19.4787 491.463 19.663 491.485 19.864L491.545 20.4745C491.554 20.5551 491.59 20.6302 491.648 20.6876C491.705 20.745 491.78 20.7814 491.861 20.7908L493.484 20.93C493.583 20.9382 493.679 20.9663 493.767 21.0127C493.855 21.059 493.932 21.1227 493.995 21.1998C494.058 21.2769 494.104 21.3659 494.131 21.4614C494.159 21.5569 494.166 21.657 494.154 21.7555Z" fill="#A0D6FF"/>
<path d="M498.918 8.41L498.209 8.56815C498.128 8.58765 498.045 8.593 497.962 8.58397L496.485 8.45744C496.346 8.44503 496.207 8.47598 496.087 8.54601L494.382 9.51392C494.319 9.54943 494.25 9.57181 494.178 9.5797C494.106 9.58759 494.034 9.58082 493.965 9.55981C493.896 9.53881 493.832 9.504 493.777 9.4575C493.722 9.411 493.677 9.35379 493.645 9.28934L493.328 8.65672C493.275 8.55168 493.252 8.43435 493.259 8.31696C493.267 8.19958 493.306 8.08644 493.373 7.98931L493.524 7.76472C493.551 7.72553 493.57 7.68131 493.58 7.63468C493.589 7.58806 493.589 7.53999 493.58 7.49334C493.571 7.4467 493.552 7.40243 493.525 7.36319C493.498 7.32395 493.463 7.29054 493.423 7.26495L492.857 6.88854C493.367 6.85858 493.879 6.86493 494.388 6.90752C495.994 7.04831 497.546 7.56284 498.918 8.41Z" fill="#A0D6FF"/>
<path d="M503.833 18.1401C503.704 19.648 503.245 21.1093 502.49 22.4209C501.735 23.7326 500.701 24.8626 499.462 25.7315L500.038 23.9033L500.088 22.6538C500.097 22.4393 500.023 22.2297 499.881 22.0688C499.739 21.9078 499.54 21.8081 499.326 21.7903L498.01 21.6764C497.892 21.6658 497.777 21.6305 497.674 21.5728C497.57 21.515 497.48 21.4361 497.409 21.3411L496.691 20.3922C496.566 20.2262 496.507 20.0203 496.523 19.8133L496.685 17.9471C496.706 17.6931 496.808 17.4525 496.974 17.2594C497.14 17.0663 497.364 16.9306 497.611 16.8716L500.775 16.1125C500.996 16.0592 501.229 16.0932 501.426 16.2074L503.444 17.3746C503.576 17.4507 503.684 17.5627 503.755 17.6976C503.827 17.8325 503.858 17.9848 503.846 18.1369L503.833 18.1401Z" fill="#A0D6FF"/>
<path d="M481.066 21.4201L484.909 26.9903C486.051 28.3441 486.563 30.5552 486.415 32.317L486.019 36.9162L476.179 36.0716L476.514 32.4878L472.013 24.8963C471.828 24.4081 471.76 23.8833 471.815 23.3641C471.87 22.8449 472.046 22.3459 472.329 21.9072C474.028 19.2375 477.109 14.632 478.07 13.1043C478.1 13.0573 478.14 13.0175 478.187 12.9875C478.234 12.9575 478.286 12.9381 478.341 12.9305C478.397 12.923 478.453 12.9276 478.506 12.9439C478.559 12.9603 478.608 12.988 478.649 13.0252L478.668 13.041C479.014 13.3521 479.26 13.7575 479.378 14.2072C479.495 14.6569 479.478 15.1312 479.329 15.5715L477.748 20.6325C477.649 20.9167 477.663 21.2277 477.786 21.5023L478.184 22.3912L479.374 21.224C479.491 21.1116 479.632 21.0266 479.786 20.9749C479.94 20.9232 480.104 20.906 480.266 20.9248C480.427 20.9435 480.583 20.9976 480.721 21.0832C480.859 21.1688 480.977 21.2838 481.066 21.4201Z" fill="white"/>
<path d="M480.553 28.2806C480.434 28.2798 480.318 28.242 480.221 28.1723C480.124 28.1026 480.051 28.0045 480.012 27.8915L477.77 21.249C477.746 21.178 477.736 21.1029 477.741 21.0282C477.746 20.9534 477.766 20.8804 477.799 20.8133C477.833 20.7461 477.879 20.6862 477.935 20.637C477.992 20.5877 478.058 20.5501 478.129 20.5262C478.2 20.5023 478.275 20.4927 478.349 20.4978C478.424 20.5029 478.497 20.5227 478.564 20.556C478.631 20.5894 478.691 20.6356 478.741 20.6921C478.79 20.7486 478.828 20.8142 478.851 20.8852L481.097 27.5278C481.121 27.599 481.131 27.6743 481.126 27.7494C481.121 27.8245 481.102 27.8978 481.068 27.9652C481.034 28.0325 480.988 28.0926 480.931 28.1418C480.874 28.1911 480.808 28.2286 480.737 28.2521C480.678 28.2725 480.616 28.2822 480.553 28.2806Z" fill="#EFDFC0"/>
<path d="M505.045 23.4818L500.3 28.3119C498.949 29.4506 498.064 31.5414 497.912 33.3064L497.516 37.9056L507.357 38.7502L507.635 35.1632L513.367 28.4384C513.635 27.9902 513.794 27.4855 513.831 26.9647C513.869 26.4439 513.783 25.9216 513.582 25.4398C512.364 22.5202 510.118 17.4434 509.426 15.7859C509.404 15.7346 509.372 15.6885 509.331 15.651C509.29 15.6134 509.241 15.5852 509.188 15.5683C509.135 15.5515 509.079 15.5463 509.024 15.5533C508.969 15.5603 508.916 15.5793 508.869 15.6088H508.847C508.451 15.8575 508.138 16.2173 507.945 16.6431C507.753 17.069 507.69 17.542 507.765 18.0033L508.464 23.2604C508.513 23.557 508.447 23.861 508.281 24.1113L507.733 24.921L506.762 23.564C506.665 23.4313 506.539 23.3219 506.394 23.244C506.248 23.1661 506.088 23.1216 505.923 23.1137C505.759 23.1059 505.594 23.1348 505.442 23.1985C505.29 23.2622 505.155 23.3589 505.045 23.4818Z" fill="white"/>
<path d="M504.472 30.3333C504.378 30.3331 504.284 30.3104 504.2 30.2669C504.067 30.194 503.968 30.0712 503.924 29.9254C503.881 29.7796 503.897 29.6227 503.969 29.4888L507.316 23.3365C507.349 23.2664 507.397 23.2039 507.455 23.1527C507.513 23.1015 507.582 23.0627 507.655 23.0387C507.729 23.0146 507.807 23.0058 507.884 23.0128C507.962 23.0199 508.037 23.0425 508.105 23.0794C508.173 23.1164 508.233 23.1668 508.282 23.2277C508.33 23.2885 508.365 23.3586 508.385 23.4335C508.406 23.5084 508.41 23.5867 508.4 23.6635C508.389 23.7404 508.362 23.8142 508.322 23.8806L504.975 30.0455C504.925 30.1338 504.851 30.2071 504.763 30.2577C504.675 30.3083 504.574 30.3344 504.472 30.3333Z" fill="#EFDFC0"/>
<path d="M495.866 85.2424C495.784 86.8334 495.122 88.3394 494.005 89.4758C492.889 90.6123 491.395 91.3005 489.805 91.4104L486.01 91.6761L486.234 94.5008C486.073 96.8889 481.619 98.2681 476.112 97.8948C470.605 97.5216 468.578 95.3011 468.578 95.3011L470.792 78.6378C470.961 76.3493 471.95 74.1986 473.577 72.58C475.204 70.9614 477.359 69.9834 479.649 69.8253L490.131 69.0978C490.957 69.0455 491.785 69.1684 492.561 69.4585C493.336 69.7486 494.041 70.1993 494.63 70.7811C495.219 71.363 495.679 72.0627 495.978 72.8345C496.278 73.6063 496.411 74.4327 496.369 75.2596L495.866 85.2424Z" fill="#B4702F"/>
<path d="M477.647 82.1075C477.647 82.1075 482.882 80.7473 481.983 75.3416C481.983 75.3416 489.3 73.6999 489.575 69.5056" stroke="#56303C" stroke-width="1.57614" stroke-miterlimit="10" stroke-linecap="round"/>
<path d="M484.137 74.861L483.884 82.2721C483.832 83.7664 484.299 85.2325 485.205 86.4215C486.112 87.6105 487.402 88.449 488.856 88.7945L492.336 89.6232" stroke="#56303C" stroke-width="1.57614" stroke-miterlimit="10" stroke-linecap="round"/>
<path d="M484.71 83.911L494.082 83.7876" stroke="#56303C" stroke-width="1.57614" stroke-miterlimit="10" stroke-linecap="round"/>
<path d="M484.406 79.5513L493.778 79.428" stroke="#56303C" stroke-width="1.57614" stroke-miterlimit="10" stroke-linecap="round"/>
<path d="M484.102 75.1931L493.475 75.0697" stroke="#56303C" stroke-width="1.57614" stroke-miterlimit="10" stroke-linecap="round"/>
<path d="M369.73 41.9074L364.169 36.1379C362.691 34.5808 361.866 32.5155 361.866 30.3683C361.866 28.2211 362.691 26.1559 364.169 24.5988C364.885 23.8442 365.748 23.2433 366.704 22.8327C367.66 22.4221 368.689 22.2103 369.73 22.2103C370.77 22.2103 371.8 22.4221 372.756 22.8327C373.712 23.2433 374.574 23.8442 375.29 24.5988L376.831 26.1993L378.384 24.602C379.1 23.8475 379.962 23.2466 380.918 22.836C381.874 22.4255 382.903 22.2137 383.943 22.2137C384.983 22.2137 386.013 22.4255 386.968 22.836C387.924 23.2466 388.786 23.8475 389.502 24.602L391.043 26.2025L392.583 24.6051C393.299 23.8502 394.161 23.249 395.117 22.8382C396.073 22.4273 397.102 22.2155 398.142 22.2155C399.183 22.2155 400.212 22.4273 401.168 22.8382C402.124 23.249 402.986 23.8502 403.702 24.6051C405.336 26.3272 406.419 28.4987 406.81 30.8406C407.201 33.1826 406.883 35.588 405.897 37.7479L397.673 55.7397L369.73 41.9074Z" fill="#D9AF00"/>
<path d="M411.477 80.6077C395.029 83.929 393.349 97.755 393.349 97.755C387.118 81.2024 373.507 81.5377 373.507 81.5377V61.9707L372.748 61.9296C371.849 61.8787 370.971 61.6471 370.164 61.2486C369.357 60.8501 368.639 60.2929 368.053 59.6104C367.467 58.9279 367.024 58.1341 366.752 57.2765C366.48 56.4189 366.384 55.5153 366.469 54.6196L368.12 37.3711C368.258 35.9138 368.934 34.5602 370.017 33.5751C371.1 32.59 372.511 32.0442 373.975 32.0444H378.195C379.65 32.0449 381.089 32.347 382.421 32.9317C383.753 33.5165 384.95 34.3711 385.935 35.4416L387.497 43.438C387.724 44.5962 388.346 45.6396 389.257 46.3897C390.168 47.1398 391.312 47.55 392.492 47.55L392.574 47.2337C392.948 45.7622 393.801 44.4571 395 43.5251C396.198 42.593 397.673 42.0871 399.191 42.0873H399.476C401.286 42.0873 403.023 42.8065 404.303 44.0866C405.583 45.3667 406.302 47.103 406.302 48.9133C406.302 50.7237 405.583 52.4599 404.303 53.74C403.023 55.0202 401.286 55.7393 399.476 55.7393H398.552L411.477 80.6077Z" fill="#B4702F"/>
<path d="M373.507 61.9714C373.507 61.9714 381.905 62.177 386.89 59.8995L373.507 70.9103V61.9714Z" fill="#56303C"/>
<path d="M380.656 47.1618C380.656 47.9241 380.197 48.5441 379.627 48.5441C379.058 48.5441 378.596 47.9115 378.596 47.1618C378.596 46.4122 379.058 45.7795 379.627 45.7795C380.197 45.7795 380.656 46.3995 380.656 47.1618Z" fill="#56303C"/>
<path d="M370.35 47.1613C370.35 47.8382 369.942 48.3854 369.436 48.3854C368.93 48.3854 368.525 47.8382 368.525 47.1613C368.525 46.4844 368.933 45.9371 369.436 45.9371C369.939 45.9371 370.35 46.4844 370.35 47.1613Z" fill="#56303C"/>
<path d="M372.495 43.6093V49.8374C372.495 50.1428 372.595 50.4397 372.78 50.6825C372.965 50.9254 373.225 51.1007 373.52 51.1818L374.178 51.3621" stroke="#56303C" stroke-width="1.3733" stroke-miterlimit="10" stroke-linecap="round"/>
<path d="M372.956 54.6995C372.956 54.6995 376.119 55.1044 377.622 53.0452" stroke="#56303C" stroke-width="1.3733" stroke-miterlimit="10" stroke-linecap="round"/>
<path d="M376.363 40.5187H380.994C381.687 40.5187 382.351 40.7939 382.841 41.2839C383.331 41.7739 383.607 42.4385 383.607 43.1314V43.609H378.701C378.082 43.609 377.489 43.3634 377.052 42.9262C376.615 42.489 376.369 41.8961 376.369 41.2778V40.5187H376.363Z" fill="#D9AF00"/>
<path d="M373.143 43.609H368.737C368.444 43.609 368.153 43.5513 367.882 43.439C367.611 43.3268 367.365 43.1623 367.158 42.955C366.951 42.7476 366.786 42.5014 366.674 42.2305C366.562 41.9595 366.504 41.6691 366.504 41.3759V40.5187H370.053C370.872 40.5187 371.658 40.8443 372.238 41.4238C372.818 42.0034 373.143 42.7894 373.143 43.609Z" fill="#D9AF00"/>
<path d="M400.674 46.8103C400.674 46.8103 397.375 46.5192 397.119 49.9734" stroke="#56303C" stroke-width="1.3733" stroke-miterlimit="10" stroke-linecap="round"/>
<path d="M400.245 49.9671L398.404 47.7402" stroke="#56303C" stroke-width="1.3733" stroke-miterlimit="10" stroke-linecap="round"/>
<path d="M391.632 93.6625L392.423 97.7524L388.851 94.3773C381.412 87.3426 369.816 82.3575 359.188 81.8862L373.507 73.2224L383.363 80.5292C387.665 83.7189 390.615 88.4048 391.632 93.6625Z" fill="#A0D6FF"/>
<path d="M388.851 94.3771C381.411 87.3423 369.35 81.8828 358.725 81.4083" stroke="#56303C" stroke-width="1.3733" stroke-miterlimit="10" stroke-linecap="round"/>
<path d="M392.532 93.6464L392.08 97.7585L395.651 94.3834C403.089 87.3492 412.699 83.0555 422.901 82.2086L433.182 82.1264L412.406 74.7563C410.929 74.2327 409.338 74.1125 407.798 74.4083C406.259 74.7041 404.826 75.4051 403.648 76.4391L399.687 79.9185C395.673 83.4414 393.121 88.338 392.532 93.6464Z" fill="#A0D6FF"/>
<path d="M395.652 94.3771C403.09 87.3429 412.7 83.0492 422.902 82.2023" stroke="#56303C" stroke-width="1.3733" stroke-miterlimit="10" stroke-linecap="round"/>
<path d="M396.573 99.531C396.985 96.9927 395.261 94.601 392.723 94.189C390.185 93.777 387.793 95.5007 387.381 98.0389C386.969 100.577 388.693 102.969 391.231 103.381C393.769 103.793 396.161 102.069 396.573 99.531Z" fill="#D9AF00"/>
<path d="M389.05 99.1316C389.054 98.7204 389.139 98.3139 389.3 97.9356C389.461 97.5572 389.695 97.2144 389.989 96.9267C390.283 96.639 390.631 96.4121 391.012 96.2591C391.394 96.1061 391.802 96.0299 392.213 96.0349" stroke="white" stroke-width="1.3733" stroke-miterlimit="10" stroke-linecap="round"/>
<path d="M338.599 210.846L353.149 194.341C354.209 193.104 355.683 192.293 357.296 192.061C358.908 191.828 360.551 192.189 361.917 193.076L369.92 198.257C370.165 198.416 370.373 198.625 370.53 198.871C370.687 199.117 370.789 199.394 370.83 199.683C370.871 199.972 370.85 200.266 370.768 200.546C370.685 200.826 370.544 201.085 370.353 201.306L364.511 208.063L355.493 207.746L354.161 210.024C352.716 213.25 346.311 215.161 343.299 213.307L338.599 210.846Z" fill="#B4702F"/>
<path d="M366.174 206.545L356.514 202.553" stroke="#56303C" stroke-width="1.3733" stroke-miterlimit="10" stroke-linecap="round"/>
<path d="M368.401 203.919L358.365 199.772" stroke="#56303C" stroke-width="1.3733" stroke-miterlimit="10" stroke-linecap="round"/>
<path d="M370.536 201.448L359.757 196.995" stroke="#56303C" stroke-width="1.3733" stroke-miterlimit="10" stroke-linecap="round"/>
</g>
<defs>
<clipPath id="clip0_3_826">
<rect width="577" height="467" fill="white"/>
</clipPath>
</defs>
</svg>
