<svg width="722" height="426" viewBox="0 0 722 426" fill="none" xmlns="http://www.w3.org/2000/svg">
<g clip-path="url(#clip0_3_231)">
<path d="M92.1908 423.684C111.415 423.684 126.999 402.048 126.999 375.359C126.999 348.67 111.415 327.034 92.1908 327.034C72.9668 327.034 57.3827 348.67 57.3827 375.359C57.3827 402.048 72.9668 423.684 92.1908 423.684Z" fill="#F5EFD9"/>
<path d="M149.467 423.824H0C0 406.533 14.2451 392.534 31.8154 392.534C35.4768 392.53 39.1121 393.15 42.5658 394.366C52.129 374.657 70.9829 361.247 92.6831 361.247C124.043 361.247 149.467 389.262 149.467 423.824Z" fill="#EFDFC0"/>
<path d="M696.991 424.034H553.282C553.282 404.997 568.056 388.907 588.337 383.686C597.674 353.463 617.179 332.668 639.727 332.668C671.353 332.668 696.991 373.574 696.991 424.034Z" fill="#F5EFD9"/>
<path d="M42.7124 368.39V421.782" stroke="#D9AF00" stroke-width="1.26025" stroke-miterlimit="10" stroke-linecap="round"/>
<path d="M33.7144 386.855L42.7123 398.523" stroke="#D9AF00" stroke-width="1.26025" stroke-miterlimit="10" stroke-linecap="round"/>
<path d="M42.7124 421.782L59.1355 405.971" stroke="#D9AF00" stroke-width="1.26025" stroke-miterlimit="10" stroke-linecap="round"/>
<path d="M42.7123 364.981C47.6818 364.981 51.7103 360.952 51.7103 355.983C51.7103 351.013 47.6818 346.985 42.7123 346.985C37.7429 346.985 33.7144 351.013 33.7144 355.983C33.7144 360.952 37.7429 364.981 42.7123 364.981Z" fill="#F5EFD9"/>
<path d="M42.7124 346.985V364.981" stroke="#D9AF00" stroke-width="0.718242" stroke-miterlimit="10" stroke-linecap="round"/>
<path d="M51.7103 355.984H33.7144" stroke="#D9AF00" stroke-width="0.718242" stroke-miterlimit="10" stroke-linecap="round"/>
<path d="M49.0733 349.622L36.3478 362.347" stroke="#D9AF00" stroke-width="0.718242" stroke-miterlimit="10" stroke-linecap="round"/>
<path d="M49.0733 362.347L36.3478 349.622" stroke="#D9AF00" stroke-width="0.718242" stroke-miterlimit="10" stroke-linecap="round"/>
<path d="M42.7121 359.311C44.5504 359.311 46.0406 357.821 46.0406 355.983C46.0406 354.144 44.5504 352.654 42.7121 352.654C40.8738 352.654 39.3835 354.144 39.3835 355.983C39.3835 357.821 40.8738 359.311 42.7121 359.311Z" fill="white"/>
<path d="M42.7121 357.782C43.7057 357.782 44.5111 356.977 44.5111 355.983C44.5111 354.99 43.7057 354.184 42.7121 354.184C41.7186 354.184 40.9132 354.99 40.9132 355.983C40.9132 356.977 41.7186 357.782 42.7121 357.782Z" fill="#D9AF00"/>
<path d="M26.1128 387.57C31.0823 387.57 35.1108 383.541 35.1108 378.572C35.1108 373.602 31.0823 369.574 26.1128 369.574C21.1434 369.574 17.1149 373.602 17.1149 378.572C17.1149 383.541 21.1434 387.57 26.1128 387.57Z" fill="#F5EFD9"/>
<path d="M26.1127 369.574V387.57" stroke="#D9AF00" stroke-width="0.718242" stroke-miterlimit="10" stroke-linecap="round"/>
<path d="M35.1108 378.571H17.1149" stroke="#D9AF00" stroke-width="0.718242" stroke-miterlimit="10" stroke-linecap="round"/>
<path d="M32.4742 372.211L19.7487 384.933" stroke="#D9AF00" stroke-width="0.718242" stroke-miterlimit="10" stroke-linecap="round"/>
<path d="M32.4742 384.933L19.7487 372.211" stroke="#D9AF00" stroke-width="0.718242" stroke-miterlimit="10" stroke-linecap="round"/>
<path d="M26.1127 381.9C27.951 381.9 29.4412 380.41 29.4412 378.572C29.4412 376.733 27.951 375.243 26.1127 375.243C24.2744 375.243 22.7842 376.733 22.7842 378.572C22.7842 380.41 24.2744 381.9 26.1127 381.9Z" fill="white"/>
<path d="M26.1128 380.37C27.1063 380.37 27.9117 379.564 27.9117 378.571C27.9117 377.577 27.1063 376.772 26.1128 376.772C25.1193 376.772 24.3138 377.577 24.3138 378.571C24.3138 379.564 25.1193 380.37 26.1128 380.37Z" fill="#D9AF00"/>
<path d="M67.7211 406.281C72.6906 406.281 76.7191 402.253 76.7191 397.283C76.7191 392.314 72.6906 388.285 67.7211 388.285C62.7517 388.285 58.7231 392.314 58.7231 397.283C58.7231 402.253 62.7517 406.281 67.7211 406.281Z" fill="white"/>
<path d="M67.7213 388.285V406.281" stroke="#D9AF00" stroke-width="0.718242" stroke-miterlimit="10" stroke-linecap="round"/>
<path d="M76.7191 397.283H58.7231" stroke="#D9AF00" stroke-width="0.718242" stroke-miterlimit="10" stroke-linecap="round"/>
<path d="M74.0851 390.917L61.3596 403.643" stroke="#D9AF00" stroke-width="0.718242" stroke-miterlimit="10" stroke-linecap="round"/>
<path d="M74.0851 403.643L61.3596 390.917" stroke="#D9AF00" stroke-width="0.718242" stroke-miterlimit="10" stroke-linecap="round"/>
<path d="M67.721 400.61C69.5593 400.61 71.0495 399.12 71.0495 397.281C71.0495 395.443 69.5593 393.953 67.721 393.953C65.8827 393.953 64.3925 395.443 64.3925 397.281C64.3925 399.12 65.8827 400.61 67.721 400.61Z" fill="white"/>
<path d="M67.721 399.081C68.7146 399.081 69.52 398.276 69.52 397.282C69.52 396.289 68.7146 395.483 67.721 395.483C66.7275 395.483 65.9221 396.289 65.9221 397.282C65.9221 398.276 66.7275 399.081 67.721 399.081Z" fill="#D9AF00"/>
<path d="M629.343 388.47V423.308" stroke="#D9AF00" stroke-width="1.26025" stroke-miterlimit="10" stroke-linecap="round"/>
<path d="M638.341 402.343L629.343 414.014" stroke="#D9AF00" stroke-width="1.26025" stroke-miterlimit="10" stroke-linecap="round"/>
<path d="M629.343 385.066C634.312 385.066 638.341 381.037 638.341 376.068C638.341 371.098 634.312 367.07 629.343 367.07C624.373 367.07 620.345 371.098 620.345 376.068C620.345 381.037 624.373 385.066 629.343 385.066Z" fill="white"/>
<path d="M629.343 367.07V385.066" stroke="#D9AF00" stroke-width="0.718242" stroke-miterlimit="10" stroke-linecap="round"/>
<path d="M620.345 376.067H638.341" stroke="#D9AF00" stroke-width="0.718242" stroke-miterlimit="10" stroke-linecap="round"/>
<path d="M622.978 369.704L635.703 382.429" stroke="#D9AF00" stroke-width="0.718242" stroke-miterlimit="10" stroke-linecap="round"/>
<path d="M622.978 382.429L635.703 369.704" stroke="#D9AF00" stroke-width="0.718242" stroke-miterlimit="10" stroke-linecap="round"/>
<path d="M629.342 379.396C631.181 379.396 632.671 377.906 632.671 376.068C632.671 374.229 631.181 372.739 629.342 372.739C627.504 372.739 626.014 374.229 626.014 376.068C626.014 377.906 627.504 379.396 629.342 379.396Z" fill="white"/>
<path d="M629.343 377.866C630.336 377.866 631.141 377.06 631.141 376.067C631.141 375.073 630.336 374.268 629.343 374.268C628.349 374.268 627.544 375.073 627.544 376.067C627.544 377.06 628.349 377.866 629.343 377.866Z" fill="#D9AF00"/>
<path d="M645.942 403.06C650.912 403.06 654.94 399.032 654.94 394.063C654.94 389.093 650.912 385.065 645.942 385.065C640.973 385.065 636.944 389.093 636.944 394.063C636.944 399.032 640.973 403.06 645.942 403.06Z" fill="white"/>
<path d="M645.942 385.065V403.06" stroke="#D9AF00" stroke-width="0.718242" stroke-miterlimit="10" stroke-linecap="round"/>
<path d="M636.944 394.063H654.94" stroke="#D9AF00" stroke-width="0.718242" stroke-miterlimit="10" stroke-linecap="round"/>
<path d="M639.578 387.698L652.303 400.424" stroke="#D9AF00" stroke-width="0.718242" stroke-miterlimit="10" stroke-linecap="round"/>
<path d="M639.578 400.424L652.303 387.698" stroke="#D9AF00" stroke-width="0.718242" stroke-miterlimit="10" stroke-linecap="round"/>
<path d="M645.942 397.392C647.78 397.392 649.27 395.902 649.27 394.064C649.27 392.226 647.78 390.735 645.942 390.735C644.104 390.735 642.613 392.226 642.613 394.064C642.613 395.902 644.104 397.392 645.942 397.392Z" fill="white"/>
<path d="M645.942 395.862C646.935 395.862 647.741 395.057 647.741 394.063C647.741 393.07 646.935 392.264 645.942 392.264C644.948 392.264 644.143 393.07 644.143 394.063C644.143 395.057 644.948 395.862 645.942 395.862Z" fill="#D9AF00"/>
<path d="M721.696 424.034H644.731C644.731 415.551 654.993 408.674 667.655 408.674C671.848 408.642 676.004 409.447 679.882 411.042C682.655 407.013 686.644 403.976 691.266 402.375C695.888 400.774 700.9 400.693 705.571 402.145C710.243 403.596 714.327 406.503 717.228 410.441C720.129 414.379 721.695 419.142 721.696 424.034Z" fill="#EFDFC0"/>
<path d="M476.075 423.825H231.942C228.496 423.825 225.084 423.147 221.9 421.828C218.716 420.51 215.823 418.577 213.386 416.141C210.949 413.704 209.016 410.811 207.697 407.628C206.379 404.444 205.7 401.032 205.7 397.586V174.585C205.701 170.957 206.658 167.393 208.475 164.253C210.293 161.112 212.906 158.507 216.051 156.699L343.739 83.3316C346.866 81.5358 350.409 80.5908 354.015 80.5908C357.621 80.5908 361.164 81.5358 364.292 83.3316L491.979 156.699C495.125 158.506 497.739 161.111 499.556 164.252C501.373 167.392 502.329 170.957 502.327 174.585V397.586C502.327 401.032 501.648 404.445 500.328 407.63C499.009 410.814 497.075 413.707 494.637 416.144C492.199 418.581 489.305 420.513 486.12 421.831C482.935 423.149 479.521 423.826 476.075 423.825Z" fill="#EFDFC0"/>
<path d="M370.729 160.678C380.919 150.488 380.919 133.967 370.729 123.777C360.54 113.587 344.019 113.587 333.829 123.777C323.639 133.967 323.639 150.488 333.829 160.678C344.019 170.868 360.54 170.868 370.729 160.678Z" fill="#F5EFD9"/>
<path d="M352.281 116.136V168.324" stroke="#EFDFC0" stroke-width="2.70006" stroke-miterlimit="10"/>
<path d="M325.679 142.227H377.865" stroke="#EFDFC0" stroke-width="2.70006" stroke-miterlimit="10"/>
<path d="M354.236 196.913C369.621 196.913 384.376 203.025 395.254 213.903C406.133 224.782 412.244 239.536 412.244 254.921V423.705H296.225V254.924C296.225 247.307 297.725 239.764 300.641 232.726C303.556 225.688 307.829 219.293 313.215 213.907C318.602 208.52 324.996 204.247 332.034 201.332C339.072 198.417 346.615 196.916 354.233 196.916L354.236 196.913Z" fill="#F5EFD9"/>
<path d="M371.723 12.8495L355.782 28.7938L339.838 12.8495C339.138 12.1517 338.582 11.3225 338.203 10.4095C337.824 9.49657 337.629 8.51776 337.629 7.52922C337.629 6.54069 337.824 5.56188 338.203 4.64891C338.582 3.73593 339.138 2.90676 339.838 2.20892C340.536 1.50916 341.365 0.953973 342.278 0.575171C343.191 0.196368 344.17 0.00139023 345.158 0.00139023C346.147 0.00139023 347.125 0.196368 348.038 0.575171C348.951 0.953973 349.78 1.50916 350.479 2.20892L355.799 7.52922L361.119 2.20892C361.817 1.50876 362.646 0.953229 363.559 0.574176C364.472 0.195124 365.451 0 366.439 0C367.428 0 368.407 0.195124 369.32 0.574176C370.233 0.953229 371.062 1.50876 371.76 2.20892C372.458 2.90916 373.01 3.74024 373.386 4.65452C373.762 5.56879 373.954 6.54828 373.95 7.53682C373.947 8.52535 373.749 9.50349 373.366 10.4152C372.984 11.3268 372.426 12.1541 371.723 12.8495Z" fill="#FFAFB1"/>
<path d="M440.405 169.328L370.596 169.022C361.808 168.985 357.239 158.537 363.171 152.063L366.829 148.073C368.486 145.476 369.252 142.411 369.012 139.34C368.772 136.269 367.539 133.359 365.499 131.051L363.504 128.774C360.803 125.714 359.368 121.74 359.491 117.661C359.615 113.581 361.287 109.701 364.169 106.811C366.53 104.438 367.975 101.306 368.249 97.9698C368.523 94.6336 367.608 91.3081 365.665 88.582L365.496 88.3425C361.482 82.7122 359.324 75.9708 359.321 69.0564V63.5699C359.321 41.6236 380.382 25.8456 401.438 31.9805C412.686 35.2747 422.564 42.1267 429.59 51.5091C436.616 60.8914 440.41 72.2985 440.405 84.0198V169.328Z" fill="#56303C"/>
<path d="M384.708 170.004C376.947 169.97 372.91 160.743 378.151 155.02L381.366 151.505C382.83 149.213 383.508 146.506 383.297 143.795C383.086 141.083 381.997 138.514 380.196 136.476L378.42 134.464C376.033 131.763 374.765 128.255 374.871 124.652C374.978 121.049 376.453 117.623 378.996 115.068" stroke="#F5EFD9" stroke-width="1.08069" stroke-miterlimit="10" stroke-linecap="round"/>
<path d="M386.979 151.504C388.443 149.212 389.12 146.505 388.909 143.794C388.698 141.082 387.61 138.513 385.809 136.474" stroke="#F5EFD9" stroke-width="1.08069" stroke-miterlimit="10" stroke-linecap="round"/>
<path d="M603.971 357.263V407.989H579.698C579.671 407.813 579.641 407.656 579.608 407.463L570.031 357.273L603.971 357.263Z" fill="#B4702F"/>
<path d="M603.971 407.989V419.331C603.971 420.45 603.527 421.523 602.736 422.314C601.945 423.105 600.873 423.55 599.754 423.551H569.046C568.91 423.55 568.78 423.498 568.68 423.405C568.581 423.312 568.521 423.185 568.511 423.049C568.5 422.914 568.542 422.779 568.626 422.672C568.711 422.566 568.832 422.495 568.967 422.474L573.954 421.716C575.943 421.41 577.733 420.337 578.939 418.725C580.145 417.114 580.67 415.094 580.402 413.1L579.71 407.989H603.971Z" fill="#56303C"/>
<path d="M568.472 423.801H603.971" stroke="#D9AF00" stroke-width="1.97849" stroke-miterlimit="10" stroke-linecap="round"/>
<path d="M579.784 414.972H577.264C576.596 414.972 575.956 414.707 575.484 414.235C575.012 413.763 574.746 413.123 574.746 412.455C574.746 412.124 574.811 411.797 574.937 411.491C575.063 411.185 575.249 410.907 575.483 410.673C575.716 410.439 575.994 410.253 576.3 410.127C576.605 410 576.933 409.935 577.264 409.935C577.932 409.935 578.573 410.2 579.046 410.673C579.519 411.146 579.784 411.787 579.784 412.455V414.972Z" stroke="#D9AF00" stroke-width="1.26025" stroke-miterlimit="10"/>
<path d="M579.944 414.972H582.464C583.132 414.972 583.772 414.707 584.244 414.235C584.716 413.763 584.982 413.123 584.982 412.455C584.982 412.124 584.917 411.797 584.791 411.491C584.665 411.185 584.479 410.907 584.245 410.673C584.012 410.439 583.734 410.253 583.428 410.127C583.123 410 582.795 409.935 582.464 409.935C581.796 409.935 581.155 410.2 580.682 410.673C580.209 411.146 579.944 411.787 579.944 412.455V414.972Z" stroke="#D9AF00" stroke-width="1.26025" stroke-miterlimit="10"/>
<path d="M570.028 357.263H603.971V365.553L570.028 357.263Z" fill="#56303C"/>
<path d="M552.357 357.263L545.391 407.979H516.262L516.349 357.263H552.357Z" fill="#B4702F"/>
<path d="M545.391 407.989L544.008 418.158C543.8 419.687 543.046 421.089 541.885 422.105C540.723 423.121 539.233 423.682 537.69 423.684H500.724C500.593 423.688 500.467 423.642 500.369 423.556C500.272 423.47 500.21 423.35 500.198 423.221C500.186 423.091 500.223 422.962 500.303 422.859C500.383 422.756 500.499 422.687 500.627 422.667L505.981 421.669C508.749 421.148 511.261 419.709 513.111 417.585C514.962 415.46 516.042 412.775 516.179 409.961L516.275 408.002L545.391 407.989Z" fill="#56303C"/>
<path d="M500.002 423.801H543.695" stroke="#D9AF00" stroke-width="1.97849" stroke-miterlimit="10" stroke-linecap="round"/>
<path d="M512.568 409.947C513.237 409.947 513.878 410.212 514.351 410.685C514.823 411.158 515.089 411.799 515.089 412.467V414.971H512.568C511.9 414.971 511.259 414.705 510.786 414.233C510.314 413.76 510.048 413.119 510.048 412.45C510.052 411.785 510.32 411.148 510.792 410.679C511.264 410.21 511.903 409.947 512.568 409.947Z" stroke="#D9AF00" stroke-width="1.26025" stroke-miterlimit="10"/>
<path d="M515.248 414.972H517.766C518.096 414.973 518.424 414.908 518.73 414.782C519.036 414.655 519.314 414.47 519.548 414.236C519.782 414.002 519.967 413.725 520.094 413.419C520.221 413.114 520.286 412.786 520.286 412.455C520.286 411.787 520.021 411.146 519.548 410.673C519.075 410.2 518.434 409.935 517.766 409.935C517.435 409.935 517.107 410 516.802 410.127C516.496 410.253 516.218 410.439 515.984 410.673C515.751 410.907 515.565 411.185 515.439 411.491C515.313 411.797 515.248 412.124 515.248 412.455V414.972Z" stroke="#D9AF00" stroke-width="1.26025" stroke-miterlimit="10"/>
<path d="M516.262 357.263H552.357L551.496 363.524L516.262 357.263Z" fill="#56303C"/>
<path d="M609.747 169.06V357.266H516.263L516.499 266.887V153.465C575.132 154.981 578.112 119.029 578.112 119.029L581.011 120.612C589.709 125.363 596.968 132.37 602.024 140.894C607.081 149.419 609.749 159.148 609.747 169.06Z" fill="#D9AF00"/>
<path d="M553.286 357.263V188.776" stroke="#56303C" stroke-width="1.83551" stroke-miterlimit="10"/>
<path d="M597.743 156.512C595.561 157.325 593.24 157.7 590.913 157.616C588.585 157.532 586.298 156.99 584.18 156.021C582.062 155.053 580.156 153.676 578.57 151.97C576.985 150.265 575.751 148.263 574.939 146.081" stroke="#56303C" stroke-width="1.83551" stroke-miterlimit="10"/>
<path d="M599.28 160.575C593.786 162.62 587.705 162.399 582.374 159.961C577.043 157.523 572.899 153.067 570.853 147.574" stroke="#56303C" stroke-width="1.83551" stroke-miterlimit="10"/>
<path d="M564.92 107.085C569.925 110.695 575.816 112.878 581.964 113.403C587.099 113.845 590.277 118.118 590.277 122.511C590.279 123.795 590.003 125.064 589.467 126.231C588.932 127.398 588.15 128.435 587.175 129.271C577.003 138.172 565.06 144.817 552.134 148.77V187.402H531.811L525.463 153.462C523.375 153.518 518.689 153.518 516.505 153.462L464.632 121.872C464.175 121.594 463.664 121.418 463.133 121.355C462.602 121.293 462.064 121.347 461.556 121.512C461.047 121.678 460.581 121.952 460.188 122.314C459.796 122.677 459.486 123.121 459.281 123.615L422.162 213.069C421.904 213.694 421.411 214.192 420.79 214.458C420.168 214.724 419.467 214.736 418.837 214.492L403.345 208.507L431.134 85.2486C430.418 77.7168 432.216 70.16 436.248 63.7579C438.207 59.5851 440.988 55.8508 444.425 52.7786C447.862 49.7065 451.884 47.3597 456.249 45.879C460.615 44.3983 465.234 43.814 469.831 44.1613C474.427 44.5086 478.907 45.7802 483 47.9L564.92 107.085Z" fill="#FFAFB1"/>
<mask id="mask0_3_231" style="mask-type:alpha" maskUnits="userSpaceOnUse" x="403" y="44" width="188" height="171">
<path d="M564.92 107.085C569.925 110.695 575.816 112.878 581.964 113.403C587.099 113.845 590.277 118.118 590.277 122.511C590.279 123.795 590.003 125.064 589.467 126.231C588.932 127.398 588.15 128.435 587.175 129.271C577.003 138.172 565.06 144.817 552.134 148.77V187.402H531.811L525.463 153.462C523.375 153.518 518.689 153.518 516.505 153.462L464.632 121.872C464.175 121.594 463.664 121.418 463.133 121.355C462.602 121.293 462.064 121.347 461.556 121.512C461.047 121.678 460.581 121.952 460.188 122.315C459.796 122.677 459.486 123.121 459.281 123.615L422.162 213.069C421.904 213.694 421.411 214.192 420.79 214.458C420.168 214.724 419.467 214.736 418.837 214.492L403.345 208.507L431.134 85.2486C430.418 77.7168 432.216 70.16 436.248 63.7579C438.207 59.5851 440.988 55.8508 444.425 52.7786C447.862 49.7065 451.884 47.3597 456.249 45.879C460.615 44.3983 465.234 43.814 469.831 44.1613C474.427 44.5086 478.907 45.7802 483 47.9L564.92 107.085Z" fill="#FFAFB1"/>
</mask>
<g mask="url(#mask0_3_231)">
<path d="M425.711 229.363V35.2115" stroke="#D9AF00" stroke-width="0.901127" stroke-miterlimit="10"/>
<path d="M416.244 229.363V35.2115" stroke="#D9AF00" stroke-width="0.901127" stroke-miterlimit="10"/>
<path d="M435.461 229.363V35.2115" stroke="#D9AF00" stroke-width="0.901127" stroke-miterlimit="10"/>
<path d="M445.214 229.363V35.2115" stroke="#D9AF00" stroke-width="0.901127" stroke-miterlimit="10"/>
<path d="M454.966 229.363V35.2115" stroke="#D9AF00" stroke-width="0.901127" stroke-miterlimit="10"/>
<path d="M464.719 229.363V35.2115" stroke="#D9AF00" stroke-width="0.901127" stroke-miterlimit="10"/>
<path d="M474.471 229.363V35.2115" stroke="#D9AF00" stroke-width="0.901127" stroke-miterlimit="10"/>
<path d="M484.22 229.363V35.2115" stroke="#D9AF00" stroke-width="0.901127" stroke-miterlimit="10"/>
<path d="M406.628 229.363V35.2115" stroke="#D9AF00" stroke-width="0.901127" stroke-miterlimit="10"/>
<path d="M493.698 119.844H377.216" stroke="#D9AF00" stroke-width="0.901127" stroke-miterlimit="10"/>
<path d="M493.698 110.091H377.216" stroke="#D9AF00" stroke-width="0.901127" stroke-miterlimit="10"/>
<path d="M493.698 100.338H377.216" stroke="#D9AF00" stroke-width="0.901127" stroke-miterlimit="10"/>
<path d="M493.698 90.5886H377.216" stroke="#D9AF00" stroke-width="0.901127" stroke-miterlimit="10"/>
<path d="M493.698 80.8358H377.216" stroke="#D9AF00" stroke-width="0.901127" stroke-miterlimit="10"/>
<path d="M493.698 71.0829H377.216" stroke="#D9AF00" stroke-width="0.901127" stroke-miterlimit="10"/>
<path d="M493.698 61.3315H377.216" stroke="#D9AF00" stroke-width="0.901127" stroke-miterlimit="10"/>
<path d="M493.697 51.5787H377.768" stroke="#D9AF00" stroke-width="0.901127" stroke-miterlimit="10"/>
<path d="M493.698 197.921H377.216" stroke="#D9AF00" stroke-width="0.901127" stroke-miterlimit="10"/>
<path d="M493.698 207.772H377.216" stroke="#D9AF00" stroke-width="0.901127" stroke-miterlimit="10"/>
<path d="M493.698 188.168H377.216" stroke="#D9AF00" stroke-width="0.901127" stroke-miterlimit="10"/>
<path d="M493.698 178.415H377.216" stroke="#D9AF00" stroke-width="0.901127" stroke-miterlimit="10"/>
<path d="M493.698 168.662H377.216" stroke="#D9AF00" stroke-width="0.901127" stroke-miterlimit="10"/>
<path d="M493.698 158.911H377.216" stroke="#D9AF00" stroke-width="0.901127" stroke-miterlimit="10"/>
<path d="M493.698 149.158H377.216" stroke="#D9AF00" stroke-width="0.901127" stroke-miterlimit="10"/>
<path d="M493.698 139.407H377.216" stroke="#D9AF00" stroke-width="0.901127" stroke-miterlimit="10"/>
<path d="M493.697 129.654H377.768" stroke="#D9AF00" stroke-width="0.901127" stroke-miterlimit="10"/>
<path d="M533.001 229.363V35.2115" stroke="#D9AF00" stroke-width="0.901127" stroke-miterlimit="10"/>
<path d="M523.538 229.363V35.2115" stroke="#D9AF00" stroke-width="0.901127" stroke-miterlimit="10"/>
<path d="M542.754 229.363V35.2115" stroke="#D9AF00" stroke-width="0.901127" stroke-miterlimit="10"/>
<path d="M552.507 229.363V35.2115" stroke="#D9AF00" stroke-width="0.901127" stroke-miterlimit="10"/>
<path d="M562.26 229.363V35.2115" stroke="#D9AF00" stroke-width="0.901127" stroke-miterlimit="10"/>
<path d="M572.01 229.363V35.2115" stroke="#D9AF00" stroke-width="0.901127" stroke-miterlimit="10"/>
<path d="M581.762 229.363V35.2115" stroke="#D9AF00" stroke-width="0.901127" stroke-miterlimit="10"/>
<path d="M494.416 229.363V35.2115" stroke="#D9AF00" stroke-width="0.901127" stroke-miterlimit="10"/>
<path d="M504.169 229.363V35.2115" stroke="#D9AF00" stroke-width="0.901127" stroke-miterlimit="10"/>
<path d="M513.922 229.363V35.2115" stroke="#D9AF00" stroke-width="0.901127" stroke-miterlimit="10"/>
<path d="M600.992 119.844H484.51" stroke="#D9AF00" stroke-width="0.901127" stroke-miterlimit="10"/>
<path d="M600.992 110.091H484.51" stroke="#D9AF00" stroke-width="0.901127" stroke-miterlimit="10"/>
<path d="M600.992 100.338H484.51" stroke="#D9AF00" stroke-width="0.901127" stroke-miterlimit="10"/>
<path d="M600.992 90.5886H484.51" stroke="#D9AF00" stroke-width="0.901127" stroke-miterlimit="10"/>
<path d="M600.992 80.8358H484.51" stroke="#D9AF00" stroke-width="0.901127" stroke-miterlimit="10"/>
<path d="M600.992 71.0829H484.51" stroke="#D9AF00" stroke-width="0.901127" stroke-miterlimit="10"/>
<path d="M600.992 61.3315H484.51" stroke="#D9AF00" stroke-width="0.901127" stroke-miterlimit="10"/>
<path d="M600.991 51.5787H485.058" stroke="#D9AF00" stroke-width="0.901127" stroke-miterlimit="10"/>
<path d="M600.992 197.921H484.51" stroke="#D9AF00" stroke-width="0.901127" stroke-miterlimit="10"/>
<path d="M600.992 207.772H484.51" stroke="#D9AF00" stroke-width="0.901127" stroke-miterlimit="10"/>
<path d="M600.992 188.168H484.51" stroke="#D9AF00" stroke-width="0.901127" stroke-miterlimit="10"/>
<path d="M600.992 178.415H484.51" stroke="#D9AF00" stroke-width="0.901127" stroke-miterlimit="10"/>
<path d="M600.992 168.662H484.51" stroke="#D9AF00" stroke-width="0.901127" stroke-miterlimit="10"/>
<path d="M600.992 158.911H484.51" stroke="#D9AF00" stroke-width="0.901127" stroke-miterlimit="10"/>
<path d="M600.992 149.158H484.51" stroke="#D9AF00" stroke-width="0.901127" stroke-miterlimit="10"/>
<path d="M600.992 139.407H484.51" stroke="#D9AF00" stroke-width="0.901127" stroke-miterlimit="10"/>
<path d="M600.991 129.654H485.058" stroke="#D9AF00" stroke-width="0.901127" stroke-miterlimit="10"/>
</g>
<path d="M444.461 50.7296V73.0317C444.461 74.7411 443.818 76.3879 442.66 77.6452C441.502 78.9024 439.914 79.6782 438.21 79.8184L432.514 80.274L428.624 96.4644L421.099 88.1015C419.542 86.3624 418.947 83.1536 419.619 79.6987L428.002 54.2411C428.465 52.8643 429.378 51.6837 430.594 50.8892C431.81 50.0948 433.258 49.7329 434.705 49.8618L444.461 50.7296Z" fill="white"/>
<path d="M421.969 213.532L403.156 208.634L405.915 197.122H428.776L421.969 213.532Z" fill="white"/>
<path d="M531.808 188.931H552.128V177.872H530.328L531.808 188.931Z" fill="white"/>
<path d="M553.148 151.693V118.028C553.148 114.15 552.3 110.319 550.662 106.803C549.025 103.287 546.639 100.171 543.672 97.6748" stroke="#56303C" stroke-width="1.83551" stroke-miterlimit="10" stroke-linecap="round"/>
<path d="M486.642 87.9996L519.478 116.789L521.19 136.012" stroke="#56303C" stroke-width="1.83551" stroke-miterlimit="10" stroke-linecap="round"/>
<path d="M427.41 80.2012L438.11 80.2843C439 80.2918 439.882 80.1231 440.706 79.7878C441.53 79.4526 442.279 78.9576 442.911 78.3312C443.542 77.7049 444.044 76.9597 444.386 76.1387C444.728 75.3176 444.904 74.437 444.904 73.5475V55.8176" stroke="#56303C" stroke-width="1.62934" stroke-miterlimit="10" stroke-linecap="round"/>
<path d="M469.467 120.357C462.484 124.197 453.998 122.189 450.513 115.871" stroke="white" stroke-width="1.97849" stroke-miterlimit="10" stroke-linecap="round"/>
<path d="M419.62 79.6939L407.619 76.1559L406.591 79.7139C406.197 81.0784 405.488 82.3315 404.522 83.3728C403.556 84.414 402.359 85.2143 401.028 85.7096C399.697 86.2049 398.268 86.3813 396.856 86.2247C395.444 86.0682 394.089 85.583 392.898 84.8081L389.573 82.6467L383.298 83.7107C383.089 83.7459 382.874 83.7395 382.667 83.6916C382.46 83.6438 382.264 83.5556 382.091 83.4321C381.919 83.3085 381.772 83.152 381.659 82.9716C381.547 82.7912 381.471 82.5904 381.436 82.3807L380.479 76.7278L374.59 72.8972C372.22 71.3575 370.258 69.2675 368.87 66.8055C379.361 67.5137 390.228 63.2409 398.574 55.1041L402.595 62.6124C407.878 72.4816 422.409 71.218 425.911 60.584L419.62 79.6939Z" fill="#B4702F"/>
<path d="M384.142 75.5043C384.48 75.501 384.81 75.3976 385.089 75.207C385.368 75.0165 385.585 74.7474 385.711 74.4339C385.837 74.1204 385.868 73.7764 385.799 73.4455C385.729 73.1146 385.564 72.8117 385.322 72.575C385.081 72.3383 384.775 72.1785 384.443 72.1158C384.111 72.0531 383.767 72.0903 383.456 72.2226C383.145 72.355 382.881 72.5767 382.695 72.8595C382.51 73.1424 382.413 73.4738 382.417 73.8118C382.419 74.0363 382.465 74.2581 382.553 74.4646C382.641 74.6711 382.769 74.8583 382.929 75.0155C383.089 75.1727 383.279 75.2967 383.487 75.3806C383.695 75.4645 383.918 75.5065 384.142 75.5043Z" fill="#56303C"/>
<path d="M391.884 81.0163C391.884 81.81 391.569 82.5712 391.007 83.1324C390.446 83.6936 389.685 84.0089 388.891 84.0089" stroke="#56303C" stroke-width="1.79893" stroke-miterlimit="10" stroke-linecap="round"/>
<path d="M395.98 241.87C395.916 242.208 395.956 242.557 396.093 242.873C396.231 243.189 396.46 243.456 396.751 243.639C397.042 243.823 397.382 243.915 397.726 243.903C398.07 243.891 398.403 243.775 398.68 243.572L408.942 238.075C410.704 236.912 414.166 231.698 415.004 229.762L423.579 210.067L408.759 207.121C407.107 206.794 405.394 206.962 403.837 207.606C402.28 208.25 400.949 209.34 400.011 210.739L391.481 223.471C391.343 223.67 391.271 223.908 391.278 224.15C391.284 224.393 391.367 224.627 391.516 224.818C391.664 225.01 391.87 225.149 392.103 225.215C392.336 225.281 392.584 225.272 392.811 225.187L397.397 223.554C397.614 223.479 397.847 223.461 398.073 223.503C398.299 223.545 398.511 223.644 398.687 223.792C398.863 223.94 398.998 224.13 399.079 224.346C399.159 224.561 399.182 224.794 399.146 225.021L395.98 241.87Z" fill="#B4702F"/>
<path d="M399.491 242.248L403.355 229.841" stroke="#56303C" stroke-width="1.35668" stroke-miterlimit="10" stroke-linecap="round"/>
<path d="M403.788 240.204L406.524 231.033" stroke="#56303C" stroke-width="1.35668" stroke-miterlimit="10" stroke-linecap="round"/>
<path d="M408.14 238.011L409.666 232.242" stroke="#56303C" stroke-width="1.35668" stroke-miterlimit="10" stroke-linecap="round"/>
<path d="M398.185 223.292L407.718 218.321" stroke="#56303C" stroke-width="1.35668" stroke-miterlimit="10" stroke-linecap="round"/>
<path d="M539.566 221.499C539.641 221.832 539.814 222.135 540.063 222.368C540.313 222.602 540.626 222.755 540.964 222.807C541.301 222.86 541.647 222.81 541.955 222.664C542.264 222.518 542.522 222.282 542.695 221.988L550.373 208.886C551.519 207.133 552.129 205.083 552.128 202.987V188.423H531.808L528.26 206.499C528.213 206.733 528.242 206.976 528.342 207.192C528.442 207.409 528.609 207.588 528.817 207.705C529.026 207.821 529.266 207.868 529.503 207.839C529.739 207.81 529.961 207.706 530.135 207.543L533.67 204.251C533.841 204.1 534.047 203.995 534.27 203.946C534.493 203.898 534.724 203.907 534.942 203.974C535.16 204.041 535.358 204.163 535.515 204.328C535.673 204.492 535.785 204.695 535.841 204.916L539.566 221.499Z" fill="#B4702F"/>
<path d="M340.759 313.497C340.846 311.739 341.586 310.077 342.835 308.837C344.083 307.596 345.75 306.866 347.509 306.791L382.483 305.274C383.232 305.242 383.965 305.053 384.636 304.719C385.307 304.385 385.9 303.914 386.377 303.336L400.719 285.948L402.471 275.856C402.506 275.645 402.599 275.448 402.74 275.287C402.881 275.126 403.063 275.007 403.268 274.944C403.472 274.882 403.69 274.877 403.897 274.931C404.104 274.985 404.292 275.096 404.439 275.251C404.632 275.442 404.75 275.696 404.772 275.966L405.015 279.394C405.025 279.535 405.076 279.669 405.163 279.78C405.251 279.891 405.369 279.973 405.503 280.016C405.637 280.059 405.781 280.061 405.917 280.021C406.052 279.981 406.172 279.902 406.262 279.793L412.097 272.691C412.243 272.513 412.423 272.366 412.626 272.258C412.829 272.149 413.051 272.082 413.28 272.06C413.509 272.039 413.74 272.062 413.96 272.13C414.18 272.197 414.384 272.308 414.561 272.455L416.889 274.39C417.723 275.083 418.285 276.05 418.475 277.118C418.665 278.186 418.471 279.287 417.926 280.226L413.215 287.614L397.413 315.266C396.431 316.984 395.011 318.412 393.299 319.404C391.587 320.397 389.643 320.92 387.664 320.919H347.815C346.858 320.919 345.911 320.724 345.031 320.347C344.152 319.97 343.358 319.418 342.699 318.725C342.039 318.032 341.527 317.212 341.193 316.315C340.86 315.419 340.712 314.463 340.759 313.507V313.497Z" fill="#FFAFB1"/>
<path d="M414.441 273.372L411.093 277.822" stroke="#56303C" stroke-width="1.26025" stroke-miterlimit="10" stroke-linecap="round"/>
<path d="M416.393 274.733L413.038 279.188" stroke="#56303C" stroke-width="1.26025" stroke-miterlimit="10" stroke-linecap="round"/>
<path d="M417.724 276.411L414.867 280.208" stroke="#56303C" stroke-width="1.26025" stroke-miterlimit="10" stroke-linecap="round"/>
<path d="M367.154 310.294L402.262 401.737C403.2 404.185 403.529 406.823 403.22 409.426C402.912 412.029 401.975 414.518 400.49 416.678C399.005 418.838 397.017 420.604 394.697 421.825C392.378 423.045 389.796 423.683 387.175 423.684H335.385C315.817 423.684 302.17 404.274 308.784 385.859L335.841 310.63C341.088 296.063 361.608 295.847 367.154 310.294Z" fill="#A0D6FF"/>
<path d="M364.874 306.128C363.938 306.523 362.933 306.725 361.918 306.723C358.539 306.723 355.713 304.542 354.985 301.612C354.256 304.542 351.43 306.723 348.052 306.723C346.714 306.745 345.398 306.392 344.251 305.704C343.104 305.016 342.173 304.02 341.564 302.829C343.452 301.455 345.602 300.485 347.882 299.979C350.161 299.473 352.52 299.441 354.812 299.886L355.164 299.956C359.045 300.76 362.498 302.955 364.874 306.128Z" fill="white"/>
<path d="M274.451 419.445C274.052 419.737 273.756 420.148 273.604 420.618C273.452 421.089 273.454 421.596 273.608 422.066C273.761 422.536 274.06 422.946 274.461 423.236C274.861 423.526 275.343 423.682 275.838 423.681L387.648 423.708C390.218 423.708 392.749 423.083 395.024 421.886C397.298 420.69 399.247 418.958 400.703 416.84C402.159 414.722 403.078 412.282 403.38 409.729C403.682 407.177 403.359 404.59 402.438 402.19L402.295 401.818C401.107 398.691 398.996 395.999 396.243 394.099C393.49 392.198 390.225 391.18 386.879 391.177H364.268C350.89 391.177 337.758 394.768 326.241 401.575L305.958 413.546C304.591 414.543 303.793 413.945 303.244 412.336L301.914 408.412C301.629 407.572 301.151 406.811 300.518 406.191C299.885 405.57 299.115 405.107 298.27 404.839C297.424 404.571 296.528 404.506 295.653 404.648C294.778 404.79 293.949 405.137 293.232 405.659L274.451 419.445Z" fill="#FFAFB1"/>
<path d="M368.601 424.977C379.714 424.977 387.372 412.93 383.388 401.718L383.245 401.312C380.768 394.329 374.653 389.79 367.833 389.79" stroke="white" stroke-width="1.6626" stroke-miterlimit="10" stroke-linecap="round"/>
<path d="M290.489 416.74C290.49 418.031 290.235 419.308 289.741 420.5C289.246 421.691 288.52 422.773 287.606 423.683H275.838C275.343 423.683 274.862 423.526 274.462 423.235C274.062 422.945 273.763 422.535 273.61 422.065C273.456 421.596 273.455 421.089 273.606 420.618C273.757 420.147 274.053 419.736 274.451 419.444L287.602 409.801C288.518 410.709 289.244 411.791 289.74 412.982C290.235 414.173 290.49 415.45 290.489 416.74Z" fill="#A0D6FF"/>
<path d="M271.169 422.184L296.687 403.563" stroke="#56303C" stroke-width="2.03834" stroke-miterlimit="10" stroke-linecap="round"/>
<path d="M288.115 409.795L303.889 411.853" stroke="#56303C" stroke-width="2.03834" stroke-miterlimit="10" stroke-linecap="round"/>
<path d="M393.55 391.277H338.178C334.321 391.277 333.061 386.502 336.486 384.866L351.117 377.883C350.659 376.04 350.429 374.148 350.432 372.25C350.432 371.835 350.442 371.423 350.462 371.013H341.115C337.663 371.013 336.536 366.743 339.602 365.284L352.786 358.996C348.649 355.87 346.039 351.275 346.039 346.157C346.042 343.627 346.681 341.139 347.898 338.922C346.886 338.608 345.974 338.037 345.251 337.263C344.528 336.489 344.019 335.54 343.776 334.51C343.532 333.479 343.561 332.403 343.861 331.387C344.16 330.371 344.72 329.451 345.484 328.718C346.248 327.985 347.19 327.464 348.217 327.206C349.244 326.949 350.321 326.963 351.34 327.249C352.36 327.535 353.287 328.082 354.031 328.837C354.774 329.591 355.308 330.526 355.579 331.55C358.651 329.981 362.041 329.138 365.489 329.085C368.938 329.032 372.352 329.77 375.47 331.244C375.783 330.273 376.334 329.397 377.073 328.695C377.812 327.993 378.716 327.488 379.701 327.226C380.686 326.964 381.722 326.954 382.712 327.197C383.702 327.44 384.615 327.927 385.368 328.615C386.12 329.303 386.688 330.168 387.019 331.133C387.35 332.097 387.433 333.129 387.261 334.134C387.089 335.138 386.668 336.084 386.035 336.883C385.402 337.683 384.579 338.31 383.64 338.709C384.932 340.979 385.612 343.545 385.616 346.157C385.616 351.281 383.002 355.877 378.856 359.009L392.156 365.284C395.252 366.743 394.115 371.013 390.63 371.013H381.216C381.236 371.422 381.25 371.834 381.25 372.25C381.253 374.156 381.019 376.054 380.555 377.903L395.272 384.852C398.717 386.502 397.443 391.277 393.55 391.277Z" fill="white"/>
<path d="M379.766 334.203C380.055 333.316 380.616 332.542 381.369 331.991C382.122 331.44 383.029 331.14 383.963 331.134C384.717 331.132 385.459 331.328 386.114 331.703" stroke="#56303C" stroke-width="1.32343" stroke-miterlimit="10" stroke-linecap="round"/>
<path d="M351.339 334.203C351.056 333.318 350.502 332.546 349.754 331.995C349.007 331.444 348.104 331.142 347.176 331.134C346.426 331.134 345.689 331.33 345.038 331.703" stroke="#56303C" stroke-width="1.32343" stroke-miterlimit="10" stroke-linecap="round"/>
<path d="M374.094 353.147C374.094 357.204 370.393 360.496 365.827 360.496C361.262 360.496 357.561 357.204 357.561 353.147C357.561 349.091 361.262 347.677 365.827 347.677C370.393 347.677 374.094 349.091 374.094 353.147Z" fill="#EFDFC0"/>
<path d="M373.455 348.392C374.065 348.392 374.559 347.898 374.559 347.288C374.559 346.678 374.065 346.184 373.455 346.184C372.846 346.184 372.351 346.678 372.351 347.288C372.351 347.898 372.846 348.392 373.455 348.392Z" fill="#56303C"/>
<path d="M358.432 348.392C359.042 348.392 359.536 347.898 359.536 347.288C359.536 346.678 359.042 346.184 358.432 346.184C357.822 346.184 357.328 346.678 357.328 347.288C357.328 347.898 357.822 348.392 358.432 348.392Z" fill="#56303C"/>
<path d="M368.73 350.923C368.73 351.678 367.773 352.892 366.492 353.221V354.481C366.492 354.657 366.422 354.826 366.298 354.951C366.173 355.076 366.004 355.146 365.827 355.146C365.651 355.146 365.482 355.076 365.357 354.951C365.232 354.826 365.162 354.657 365.162 354.481V353.217C363.879 352.885 362.921 351.678 362.921 350.923C362.921 350.045 364.221 349.33 365.824 349.33C367.427 349.33 368.73 350.045 368.73 350.923Z" fill="#56303C"/>
<path d="M372.102 391.278H356.102C354.217 391.279 352.392 390.621 350.941 389.419L326.83 369.468C324.099 367.208 322.132 364.161 321.196 360.742C320.261 357.324 320.403 353.699 321.603 350.364L336.234 309.637C336.727 308.259 337.72 307.116 339.017 306.436C340.313 305.755 341.818 305.586 343.233 305.963C344.647 306.339 345.869 307.234 346.656 308.469C347.442 309.703 347.736 311.189 347.479 312.63L339.203 352.2C338.976 353.286 338.982 354.407 339.22 355.491C339.459 356.574 339.924 357.594 340.586 358.484L358.818 382.988H366.44C366.613 382.986 366.783 383.042 366.922 383.145C367.061 383.248 367.163 383.395 367.212 383.561C367.261 383.728 367.254 383.906 367.193 384.068C367.131 384.23 367.019 384.368 366.872 384.461L365.376 385.422C365.284 385.478 365.208 385.556 365.153 385.648C365.098 385.74 365.066 385.844 365.06 385.952C365.055 386.059 365.075 386.166 365.119 386.263C365.164 386.361 365.231 386.447 365.316 386.513L372.102 391.278Z" fill="#FFAFB1"/>
<path d="M364.029 389.248L367.215 391.277" stroke="#56303C" stroke-width="1.26025" stroke-miterlimit="10" stroke-linecap="round"/>
<path d="M361.193 390.041L363.131 391.278" stroke="#56303C" stroke-width="1.26025" stroke-miterlimit="10" stroke-linecap="round"/>
<path d="M370.433 268.521C370.433 273.352 363.929 277.339 355.513 277.941C352.015 284.026 344.829 288.196 336.529 288.196C336.057 288.196 335.591 288.196 335.126 288.156C335.033 290.313 334.207 292.375 332.784 293.999C331.361 295.624 329.427 296.716 327.301 297.093C325.175 297.471 322.983 297.112 321.088 296.076C319.193 295.041 317.708 293.39 316.878 291.396C316.047 289.403 315.921 287.186 316.521 285.111C317.12 283.037 318.409 281.228 320.175 279.985C321.94 278.741 324.077 278.137 326.232 278.271C328.388 278.405 330.433 279.271 332.03 280.724C331.937 279.825 331.892 278.921 331.894 278.017C331.894 271.699 334.221 266.17 339.116 263.194C342.195 260.676 347.399 259.021 353.301 259.021C362.762 259.017 370.433 263.273 370.433 268.521Z" fill="#D9AF00"/>
<path d="M315.515 297.887C316.117 295.335 314.536 292.777 311.984 292.175C309.432 291.572 306.874 293.153 306.272 295.705C305.669 298.258 307.25 300.815 309.803 301.418C312.355 302.02 314.912 300.439 315.515 297.887Z" fill="#D9AF00"/>
<path d="M340.211 293.442C342.944 294.773 346.625 295.188 351.14 295.188C362.333 295.188 370.137 292.578 370.137 283.098C370.137 278.406 363.59 268.218 355.586 263.433C356.365 265.379 356.765 267.457 356.763 269.554C356.763 276.298 352.68 282.19 346.565 285.479C345.737 283.46 343.572 282.02 341.039 282.02C337.787 282.02 335.15 284.385 335.15 287.304C335.15 290.55 337.324 292.033 340.211 293.442Z" fill="#FFAFB1"/>
<path d="M362.107 276.41L366.08 280.088L364.381 282.02" stroke="#56303C" stroke-width="1.22367" stroke-linecap="round" stroke-linejoin="round"/>
<path d="M358.692 280.298C359.368 280.298 359.916 279.75 359.916 279.075C359.916 278.399 359.368 277.851 358.692 277.851C358.016 277.851 357.468 278.399 357.468 279.075C357.468 279.75 358.016 280.298 358.692 280.298Z" fill="#56303C"/>
<path d="M365.625 276.524C366.132 276.524 366.543 276.113 366.543 275.606C366.543 275.1 366.132 274.689 365.625 274.689C365.119 274.689 364.708 275.1 364.708 275.606C364.708 276.113 365.119 276.524 365.625 276.524Z" fill="#56303C"/>
<path d="M339.785 286.21C341.657 285.974 343.346 287.147 343.559 288.827" stroke="#56303C" stroke-width="1.26025" stroke-miterlimit="10" stroke-linecap="round"/>
<path d="M341.038 288.827L342.182 286.992" stroke="#56303C" stroke-width="1.26025" stroke-miterlimit="10" stroke-linecap="round"/>
<path d="M126.999 109.365C121.407 112.899 116.8 117.791 113.607 123.586C110.415 129.38 108.741 135.888 108.74 142.503V409.982C108.741 413.647 110.198 417.162 112.79 419.754C115.382 422.345 118.898 423.801 122.563 423.801H210.481C204.848 423.801 199.445 421.563 195.461 417.58C191.478 413.596 189.24 408.194 189.24 402.56V153.463L126.999 109.365Z" fill="#56303C"/>
<path d="M211.183 423.681H152.617L152.178 417.779L189.32 403.231C189.67 408.477 191.895 413.422 195.588 417.164C199.281 420.906 204.197 423.196 209.438 423.615C210.023 423.658 210.598 423.681 211.183 423.681Z" fill="#A0D6FF"/>
<path d="M111.011 423.682H164.274C161.17 423.682 158.167 422.575 155.806 420.56C153.444 418.545 151.878 415.754 151.389 412.689L150.618 407.854L111.164 417.779L111.011 423.682Z" fill="#A0D6FF"/>
<path d="M145.713 413.454L150.641 411.775" stroke="#56303C" stroke-width="2.03834" stroke-miterlimit="10" stroke-linecap="round"/>
<path d="M147.446 418.072L153.531 415.818" stroke="#56303C" stroke-width="2.03834" stroke-miterlimit="10" stroke-linecap="round"/>
<path d="M186.147 411.718L192.233 409.463" stroke="#56303C" stroke-width="2.03834" stroke-miterlimit="10" stroke-linecap="round"/>
<path d="M188.458 416.339L194.543 414.081" stroke="#56303C" stroke-width="2.03834" stroke-miterlimit="10" stroke-linecap="round"/>
<path d="M107.656 147.517L150.914 410.015C151.548 413.864 153.528 417.363 156.502 419.887C159.476 422.412 163.25 423.797 167.151 423.798" stroke="white" stroke-width="1.62934" stroke-miterlimit="10" stroke-linecap="round"/>
<path d="M209.451 423.682H108.74" stroke="#56303C" stroke-width="2.03834" stroke-miterlimit="10" stroke-linecap="round"/>
<path d="M184.555 146.666H135.309C129.543 146.666 124.868 151.341 124.868 157.108V206.354C124.868 212.12 129.543 216.795 135.309 216.795H184.555C190.322 216.795 194.996 212.12 194.996 206.354V157.108C194.996 151.341 190.322 146.666 184.555 146.666Z" fill="#FFAFB1"/>
<mask id="mask1_3_231" style="mask-type:alpha" maskUnits="userSpaceOnUse" x="124" y="146" width="71" height="71">
<path d="M184.555 146.666H135.309C129.543 146.666 124.868 151.341 124.868 157.108V206.354C124.868 212.12 129.543 216.795 135.309 216.795H184.555C190.322 216.795 194.996 212.12 194.996 206.354V157.108C194.996 151.341 190.322 146.666 184.555 146.666Z" fill="#FFAFB1"/>
</mask>
<g mask="url(#mask1_3_231)">
<path d="M139.935 320.583V126.432" stroke="#D9AF00" stroke-width="0.901127" stroke-miterlimit="10"/>
<path d="M130.468 320.583V126.432" stroke="#D9AF00" stroke-width="0.901127" stroke-miterlimit="10"/>
<path d="M149.687 320.583V126.432" stroke="#D9AF00" stroke-width="0.901127" stroke-miterlimit="10"/>
<path d="M159.44 320.583V126.432" stroke="#D9AF00" stroke-width="0.901127" stroke-miterlimit="10"/>
<path d="M169.19 320.583V126.432" stroke="#D9AF00" stroke-width="0.901127" stroke-miterlimit="10"/>
<path d="M178.943 320.583V126.432" stroke="#D9AF00" stroke-width="0.901127" stroke-miterlimit="10"/>
<path d="M188.695 320.583V126.432" stroke="#D9AF00" stroke-width="0.901127" stroke-miterlimit="10"/>
<path d="M207.921 211.065H91.4431" stroke="#D9AF00" stroke-width="0.901127" stroke-miterlimit="10"/>
<path d="M207.921 201.312H91.4431" stroke="#D9AF00" stroke-width="0.901127" stroke-miterlimit="10"/>
<path d="M207.921 191.559H91.4431" stroke="#D9AF00" stroke-width="0.901127" stroke-miterlimit="10"/>
<path d="M207.921 181.806H91.4431" stroke="#D9AF00" stroke-width="0.901127" stroke-miterlimit="10"/>
<path d="M207.921 172.056H91.4431" stroke="#D9AF00" stroke-width="0.901127" stroke-miterlimit="10"/>
<path d="M207.921 162.304H91.4431" stroke="#D9AF00" stroke-width="0.901127" stroke-miterlimit="10"/>
<path d="M207.921 152.552H91.4431" stroke="#D9AF00" stroke-width="0.901127" stroke-miterlimit="10"/>
</g>
<path d="M158.642 182.318H123.794" stroke="white" stroke-width="1.97849" stroke-miterlimit="10" stroke-linecap="round"/>
<path d="M158.376 182.318H152.357C151.567 182.318 150.785 182.162 150.055 181.86C149.325 181.557 148.661 181.114 148.103 180.555C147.544 179.996 147.101 179.333 146.799 178.602C146.497 177.872 146.342 177.09 146.342 176.299C146.342 174.704 146.976 173.174 148.104 172.046C149.232 170.918 150.762 170.284 152.357 170.284C153.953 170.284 155.483 170.918 156.612 172.046C157.741 173.174 158.375 174.704 158.376 176.299V182.318Z" stroke="#A0D6FF" stroke-width="1.97849" stroke-miterlimit="10"/>
<path d="M158.642 182.318H164.66C165.451 182.318 166.233 182.162 166.963 181.86C167.693 181.557 168.356 181.114 168.915 180.555C169.474 179.996 169.917 179.333 170.219 178.602C170.521 177.872 170.676 177.09 170.676 176.299C170.676 174.704 170.042 173.174 168.914 172.046C167.786 170.918 166.256 170.284 164.66 170.284C163.87 170.284 163.088 170.439 162.357 170.741C161.627 171.043 160.964 171.486 160.405 172.045C159.846 172.603 159.402 173.267 159.1 173.997C158.797 174.727 158.642 175.509 158.642 176.299V182.318Z" stroke="#A0D6FF" stroke-width="1.97849" stroke-miterlimit="10"/>
<path d="M152.87 189.767L158.642 181.806L164.305 195.243" stroke="#A0D6FF" stroke-width="1.97849" stroke-miterlimit="10" stroke-linecap="round"/>
<path d="M159.44 197.239V218.477" stroke="white" stroke-width="1.97849" stroke-miterlimit="10" stroke-linecap="round"/>
<path d="M159.44 145.718V165.932" stroke="white" stroke-width="1.97849" stroke-miterlimit="10" stroke-linecap="round"/>
<path d="M285.468 77.3397C285.474 83.1856 283.954 88.9319 281.059 94.0103C278.163 99.0887 273.992 103.323 268.958 106.295L200.163 144.805C198.602 145.678 197.302 146.953 196.397 148.497C195.493 150.04 195.016 151.797 195.016 153.586V204.462L169.462 197.027L163.596 143.677C133.719 128.604 127.019 109.365 127.019 109.365L179.085 59.9622C202.73 37.5372 235.301 34.0657 260.336 44.1975L263.994 46.0363C270.312 48.4812 275.745 52.7784 279.578 58.3644C283.412 63.9505 285.469 70.5646 285.478 77.3397H285.468Z" fill="#D9AF00"/>
<path d="M182.806 231.307L173.376 223.326C172.586 222.654 172.086 221.704 171.977 220.673C171.869 219.641 172.161 218.608 172.794 217.786L174.277 215.874C175.283 214.574 175.845 212.986 175.882 211.342C175.918 209.699 175.427 208.087 174.48 206.743L171.028 201.825C167.038 196.173 169.947 192.704 177.529 190.796C180.741 189.988 185.217 189.908 189.36 192.006C193.636 194.174 195.345 196.462 195.345 201.257L196.073 208.881C196.227 210.485 195.817 212.093 194.913 213.427L182.806 231.307Z" fill="#B4702F"/>
<path d="M186.54 217.368L179.481 228.022" stroke="#56303C" stroke-width="1.43981" stroke-miterlimit="10" stroke-linecap="round"/>
<path d="M182.719 214.241L175.66 224.895" stroke="#56303C" stroke-width="1.43981" stroke-miterlimit="10" stroke-linecap="round"/>
<path d="M242.982 77.5268L173.153 121.985C165.136 127.092 162.512 134.644 162.941 144.902" stroke="#56303C" stroke-width="1.83551" stroke-miterlimit="10" stroke-linecap="round"/>
<path d="M236.052 76.6713L235.566 82.1079" stroke="#56303C" stroke-width="1.83551" stroke-miterlimit="10" stroke-linecap="round"/>
<path d="M247.58 39.8878L277.228 39.7548C279.388 39.7446 281.476 40.5336 283.09 41.97C284.703 43.4064 285.729 45.3887 285.969 47.5357L289.315 73.9444C289.491 75.3354 289.365 76.7483 288.945 78.0861C288.525 79.4239 287.821 80.6551 286.881 81.6954L284.802 83.9931L284.333 78.5398C283.682 70.9617 280.917 63.7186 276.353 57.634C271.789 51.5494 265.609 46.8675 258.517 44.1207L247.58 39.8878Z" fill="#A0D6FF"/>
<path d="M169.246 185.256C169.246 185.256 181.127 176.996 193.995 185.764" stroke="#A0D6FF" stroke-width="1.61937" stroke-miterlimit="10" stroke-linecap="round"/>
<path d="M327.864 71.6605L327.971 71.6206L315.002 84.7551C314.789 84.9697 314.534 85.1376 314.252 85.2483C313.971 85.3591 313.669 85.4101 313.367 85.3982C313.065 85.3863 312.768 85.3118 312.496 85.1793C312.224 85.0469 311.983 84.8594 311.787 84.6287L308.711 80.971C306.823 81.7082 304.796 82.0239 302.773 81.896C300.75 81.7681 298.78 81.1996 296.999 80.2304C295.219 79.2612 293.672 77.9147 292.466 76.285C291.261 74.6554 290.426 72.782 290.02 70.7959L284.677 44.6067C284.317 42.8418 284.507 41.0091 285.22 39.3552C285.933 37.7013 287.136 36.3056 288.667 35.356L297.841 30.9102C309.812 23.5117 325.084 28.5228 329.148 41.9865L332.772 54.0004C333.707 57.107 333.741 60.4148 332.873 63.5404C332.004 66.666 330.267 69.4815 327.864 71.6605Z" fill="#B4702F"/>
<path d="M313.769 74.1703C313.405 74.1384 313.059 73.9993 312.775 73.7706C312.491 73.542 312.281 73.2341 312.172 72.8859C312.063 72.5378 312.059 72.1651 312.162 71.8151C312.265 71.4651 312.47 71.1536 312.75 70.92C313.031 70.6864 313.374 70.5414 313.737 70.5032C314.1 70.465 314.466 70.5354 314.788 70.7054C315.111 70.8755 315.376 71.1376 315.55 71.4584C315.723 71.7793 315.798 72.1445 315.764 72.5077C315.719 72.9925 315.484 73.4398 315.11 73.7514C314.736 74.0631 314.254 74.2137 313.769 74.1703Z" fill="#56303C"/>
<path d="M319.757 65.9969L324.751 69.9368L324.207 70.626C323.686 71.2865 322.924 71.713 322.088 71.8116C321.253 71.9102 320.412 71.6728 319.752 71.1517L314.353 66.8926L314.586 66.5976C315.19 65.8326 316.072 65.3386 317.04 65.2244C318.008 65.1102 318.981 65.3851 319.746 65.9887L319.757 65.9969Z" fill="#56303C"/>
<path d="M295.67 39.6189C295.67 39.6189 296.837 44.8362 292.312 46.2693" stroke="#56303C" stroke-width="2.07159" stroke-miterlimit="10" stroke-linecap="round"/>
<path d="M291.58 41.4345L295.52 43.0838" stroke="#56303C" stroke-width="2.07159" stroke-miterlimit="10" stroke-linecap="round"/>
<path d="M337.79 69.8878C334.644 71.3409 328.077 63.816 323.126 53.089C322.067 50.804 321.133 48.4629 320.329 46.0761L318.733 48.1743C317.016 50.4338 314.664 52.129 311.977 53.0425C309.29 53.9561 306.392 54.0463 303.653 53.3018L300.923 52.5602C299.139 53.7854 297.675 55.4221 296.656 57.3319C295.637 59.2417 295.092 61.3688 295.068 63.5334L295.008 68.8969L296.82 69.695C301.973 71.9742 306.175 75.9698 308.711 81.0006L298.253 86.7133C297.412 87.1695 296.472 87.4119 295.516 87.4191C294.559 87.4263 293.615 87.1981 292.768 86.7546C291.92 86.3111 291.195 85.6659 290.655 84.8758C290.116 84.0858 289.779 83.1752 289.674 82.2243L286.582 54.0333L296.511 49.4445C298.343 48.5992 299.782 47.0846 300.533 45.2116C301.284 43.3386 301.289 41.2493 300.548 39.3725L300.485 39.2063C299.806 37.4925 298.56 36.0629 296.956 35.1554C295.352 34.2479 293.485 33.9172 291.666 34.2185C291.64 34.1487 291.62 34.0888 291.603 34.0423L299.55 29.5965C305.459 26.8 310.593 25.8922 314.886 26.5739L314.088 24.8015C313.988 24.5533 313.988 24.2762 314.088 24.0279C314.187 23.7796 314.379 23.5795 314.623 23.4692C314.866 23.3589 315.143 23.3471 315.396 23.4361C315.648 23.5251 315.856 23.7081 315.977 23.947L316.891 25.9787L318.514 23.7474C318.685 23.5557 318.921 23.4344 319.176 23.4072C319.432 23.38 319.688 23.4488 319.895 23.6003C320.103 23.7517 320.247 23.975 320.299 24.2265C320.35 24.4781 320.307 24.7399 320.176 24.9611L318.318 27.5215C321.463 28.8051 323.372 30.4444 326.002 33.7496C328.732 37.0482 331.871 42.0925 334.518 47.8285C339.486 58.5589 340.949 68.4347 337.79 69.8878Z" fill="#56303C"/>
<path d="M303.208 83.96C303.208 83.96 301.545 80.9674 302.35 77.6821" stroke="#B4702F" stroke-width="1.2802" stroke-linejoin="round"/>
</g>
<defs>
<clipPath id="clip0_3_231">
<rect width="722" height="426" fill="white"/>
</clipPath>
</defs>
</svg>
