<svg width="457" height="313" viewBox="0 0 457 313" fill="none" xmlns="http://www.w3.org/2000/svg">
<g clip-path="url(#clip0_3_693)">
<path d="M73.1869 71.646C73.1869 44.3314 96.2068 22.1892 124.621 22.1892C153.035 22.1892 176.055 44.3314 176.055 71.646H73.1869Z" fill="#F5EFD9"/>
<path d="M18.7918 96.6726C21.0847 81.4485 40.0735 62.2377 63.6235 58.6061C83.0118 55.6155 100.913 64.3605 108.741 72.8589C107.998 70.4815 107.621 68.0051 107.622 65.5143C107.622 50.2532 121.64 37.8816 138.933 37.8816C146.968 37.8816 154.298 40.5541 159.838 44.9451C161.509 19.8296 181.588 0 206.111 0C231.727 0 252.496 21.6417 252.496 48.3375C252.497 50.5462 252.354 52.7525 252.067 54.9425C258.628 50.543 266.357 48.2107 274.256 48.2463C295.023 48.2463 311.857 63.8033 311.857 82.9943C311.858 87.7211 310.824 92.3908 308.827 96.6751L18.7918 96.6726Z" fill="#EFDFC0"/>
<path d="M441.678 41.7328H332.436C330.306 38.0923 329.186 33.9491 329.192 29.731C329.192 29.0999 329.216 28.4745 329.266 27.8548C329.704 22.3481 332.044 17.1652 335.883 13.1935C339.723 9.22174 344.824 6.70825 350.312 6.08334C355.801 5.45843 361.336 6.76097 365.97 9.76794C370.605 12.7749 374.049 17.2993 375.715 22.5664C377.797 21.961 379.956 21.6564 382.125 21.6616C392.748 21.6616 401.419 28.8262 401.893 37.8152C406.397 35.6777 412.386 34.3636 418.959 34.3636C428.914 34.3734 437.536 37.3714 441.678 41.7328Z" fill="#EFDFC0"/>
<path d="M316.79 41.7325C320.547 41.7325 323.593 38.6871 323.593 34.9303C323.593 31.1736 320.547 28.1282 316.79 28.1282C313.034 28.1282 309.988 31.1736 309.988 34.9303C309.988 38.6871 313.034 41.7325 316.79 41.7325Z" fill="#EFDFC0"/>
<path d="M410.371 204.484C427.876 204.484 442.067 181.841 442.067 153.91C442.067 125.979 427.876 103.336 410.371 103.336C392.866 103.336 378.675 125.979 378.675 153.91C378.675 181.841 392.866 204.484 410.371 204.484Z" fill="#EFDFC0"/>
<path d="M409.287 132.49V234.786" stroke="#B4702F" stroke-width="2.16138" stroke-miterlimit="10"/>
<path d="M409.287 173.259H411.703C413.519 173.259 415.317 172.902 416.995 172.207C418.672 171.513 420.197 170.494 421.481 169.21C422.765 167.926 423.784 166.402 424.479 164.724C425.174 163.047 425.532 161.249 425.532 159.433" stroke="#B4702F" stroke-width="2.16138" stroke-miterlimit="10"/>
<path d="M197.376 154.948V271.939H18.7892V154.983L108.083 88.0461L108.147 87.9993L117.656 95.1343L197.376 154.948Z" fill="#B4702F"/>
<path d="M382.953 154.948H197.377V271.938H382.953V154.948Z" fill="#D9AF00"/>
<path d="M382.953 154.948V190.717L343.235 190.655L336.467 167.157L197.377 159.186V154.948H382.953Z" fill="#56303C"/>
<path d="M156.373 184.019H109.478V271.939H156.373V184.019Z" fill="#EFDFC0"/>
<path d="M107.962 271.988V184.019H156.374" stroke="#56303C" stroke-width="2.16138" stroke-miterlimit="10"/>
<path d="M116.409 184.019H108.147V271.939H116.409V184.019Z" fill="#56303C"/>
<path d="M124.621 241.162C126.698 241.162 128.381 239.5 128.381 237.449C128.381 235.399 126.698 233.736 124.621 233.736C122.545 233.736 120.861 235.399 120.861 237.449C120.861 239.5 122.545 241.162 124.621 241.162Z" stroke="#56303C" stroke-width="2.16138" stroke-miterlimit="10"/>
<path d="M387.756 154.948L297.071 86.9016C293.61 84.3056 289.399 82.9024 285.072 82.9026H101.359L197.376 154.943L387.756 154.948Z" fill="#A0D6FF"/>
<path d="M108.147 87.9989L18.7917 154.983L11.2573 154.963C10.8395 154.967 10.4312 154.839 10.0911 154.596C9.75107 154.353 9.4969 154.009 9.36527 153.612C9.23364 153.215 9.23134 152.787 9.35869 152.389C9.48605 151.991 9.73649 151.644 10.0739 151.398L101.36 82.9053L108.147 87.9989Z" fill="#56303C"/>
<path d="M196.415 155.429L100.398 83.386" stroke="white" stroke-width="2.46397" stroke-linecap="round" stroke-linejoin="round"/>
<path d="M76.7174 184.019H40.6307V195.966H76.7174V184.019Z" fill="white"/>
<path d="M76.7174 195.965H40.6307V226.532H76.7174V195.965Z" fill="#FFAFB1"/>
<path d="M46.6833 184.019H40.6307V226.533H46.6833V184.019Z" fill="#56303C"/>
<path d="M76.7174 195.965H41.1114" stroke="#56303C" stroke-width="2.16138" stroke-miterlimit="10"/>
<path d="M265.672 184.019H228.503V226.533H265.672V184.019Z" fill="white"/>
<path d="M265.672 184.019H228.503V192.914H265.672V184.019Z" fill="#A0D6FF"/>
<path d="M264.109 195.965H228.503" stroke="#56303C" stroke-width="2.16138" stroke-miterlimit="10"/>
<path d="M265.672 184.019H259.301V226.481H265.672V184.019Z" fill="#56303C"/>
<path d="M105.852 144.07C114.142 144.07 120.862 137.35 120.862 129.061C120.862 120.771 114.142 114.051 105.852 114.051C97.5623 114.051 90.8423 120.771 90.8423 129.061C90.8423 137.35 97.5623 144.07 105.852 144.07Z" stroke="#56303C" stroke-width="2.16138" stroke-miterlimit="10"/>
<path d="M105.852 114.051V144.07" stroke="#56303C" stroke-width="2.16138" stroke-miterlimit="10"/>
<path d="M120.862 129.061H90.8423" stroke="#56303C" stroke-width="2.16138" stroke-miterlimit="10"/>
<path d="M389.716 238.628H339.955L346.691 196.375L382.958 196.511L389.716 238.628Z" fill="#B4702F"/>
<path d="M350.254 199.082L346.691 196.375L382.96 196.51L384.558 206.468L350.254 199.082Z" fill="#56303C"/>
<path d="M365.561 238.347L369.205 216.236L375.81 214.821" stroke="white" stroke-width="2.28441" stroke-linecap="round" stroke-linejoin="round"/>
<path d="M376.478 199.718H352.546C350.07 199.729 347.682 198.799 345.864 197.117C344.046 195.435 342.935 193.125 342.754 190.656L339.876 148.647C339.792 147.311 339.983 145.972 340.438 144.713C340.892 143.455 341.601 142.303 342.52 141.329C343.438 140.356 344.547 139.582 345.777 139.055C347.008 138.528 348.333 138.26 349.672 138.267H379.356C380.694 138.26 382.019 138.528 383.25 139.055C384.48 139.582 385.589 140.356 386.507 141.33C387.425 142.303 388.134 143.455 388.588 144.714C389.043 145.972 389.233 147.311 389.148 148.647L386.274 190.656C386.093 193.126 384.981 195.435 383.162 197.118C381.344 198.8 378.955 199.729 376.478 199.718Z" fill="#FFAFB1"/>
<path d="M342.495 186.866H386.984" stroke="white" stroke-width="2.28441" stroke-linecap="round" stroke-linejoin="round"/>
<path d="M341.792 170.895H388.791" stroke="white" stroke-width="2.28441" stroke-linecap="round" stroke-linejoin="round"/>
<path d="M341.728 156.312H389.05" stroke="white" stroke-width="2.28441" stroke-linecap="round" stroke-linejoin="round"/>
<path d="M378.204 138.96H353.91L354.721 135.387C354.892 134.645 355.31 133.982 355.908 133.509C356.505 133.035 357.245 132.779 358.007 132.782H374.107C374.869 132.779 375.609 133.035 376.206 133.509C376.804 133.982 377.222 134.645 377.393 135.387L378.204 138.96Z" fill="#D9AF00"/>
<path d="M376.055 118.157C376.832 120.336 373.299 126.113 373.299 126.113L364.788 126.916L363.994 119.666C362.596 119.458 361.24 119.031 359.975 118.401C356.102 116.505 353.785 113.317 354.798 111.278C355.757 109.355 359.349 109.145 363.008 110.728L376.055 118.157Z" fill="#56303C"/>
<path d="M371.538 132.775L371.193 131.542C372.741 131.515 373.597 130.443 373.949 128.879V128.857C374.047 128.416 374.057 127.96 373.978 127.515C373.899 127.071 373.733 126.646 373.489 126.265C373.245 125.885 372.929 125.557 372.557 125.299C372.186 125.041 371.768 124.86 371.326 124.765L370.934 124.676C370.258 124.527 369.554 124.573 368.903 124.809L367.325 125.383C363.984 122.97 366.442 118.707 366.442 118.707C357.776 120.364 358.264 114.289 358.264 114.289L352.86 122.551C352.782 122.668 352.728 122.8 352.702 122.939C352.676 123.078 352.678 123.22 352.708 123.358C352.738 123.496 352.795 123.626 352.876 123.742C352.957 123.857 353.061 123.955 353.181 124.03L354.906 125.117L353.427 128.547C352.934 129.636 352.756 130.161 354.043 131.155L359.058 132.79L371.538 132.775Z" fill="#B4702F"/>
<path d="M354.907 125.11L356.965 126.165C357.784 126.583 358.471 127.218 358.953 128.001C359.435 128.783 359.692 129.684 359.697 130.603V132.762L354.33 132.664C353.968 132.66 353.614 132.563 353.3 132.382C352.987 132.201 352.726 131.943 352.542 131.631C352.357 131.32 352.256 130.967 352.248 130.605C352.24 130.244 352.325 129.886 352.495 129.567L354.907 125.11Z" fill="#56303C"/>
<path d="M359.566 121.774C359.491 122.031 359.318 122.248 359.084 122.379C358.851 122.51 358.575 122.544 358.316 122.474C358.194 122.423 358.084 122.348 357.991 122.254C357.898 122.16 357.824 122.048 357.774 121.926C357.724 121.803 357.699 121.672 357.7 121.54C357.701 121.408 357.727 121.277 357.779 121.155C357.854 120.898 358.027 120.68 358.261 120.549C358.495 120.419 358.77 120.385 359.029 120.455C359.275 120.559 359.47 120.756 359.57 121.003C359.671 121.25 359.67 121.527 359.566 121.774Z" fill="#56303C"/>
<path d="M371.615 127.326C371.156 127.1 370.626 127.065 370.14 127.227C369.654 127.39 369.253 127.737 369.021 128.194" stroke="#56303C" stroke-width="1.26025" stroke-miterlimit="10" stroke-linecap="round"/>
<path d="M360.503 110.376C364.753 106.868 370.72 105.706 375.295 111.086C379.98 116.572 379.487 121.981 373.434 125.763L360.503 110.376Z" fill="#A0D6FF"/>
<path d="M381.301 112.432C383.363 112.432 385.034 110.777 385.034 108.736C385.034 106.695 383.363 105.04 381.301 105.04C379.24 105.04 377.568 106.695 377.568 108.736C377.568 110.777 379.24 112.432 381.301 112.432Z" fill="#D9AF00"/>
<path d="M361.465 108.357L359.743 109.777L373.808 126.827L375.53 125.407L361.465 108.357Z" fill="#D9AF00"/>
<path d="M286.248 99.0199C286.045 98.9545 285.827 98.9518 285.622 99.0122C285.417 99.0726 285.235 99.1933 285.1 99.3586C284.965 99.5238 284.883 99.726 284.864 99.9386C284.846 100.151 284.891 100.365 284.996 100.551L289.695 108.788C290.291 109.956 291.213 110.926 292.35 111.579L297.742 113.475C298.263 113.658 298.828 113.68 299.362 113.538C299.896 113.395 300.375 113.095 300.735 112.676L304.537 108.278C305.007 107.645 305.235 106.865 305.181 106.079C305.128 105.292 304.795 104.551 304.244 103.988L297.981 97.6318C297.869 97.5335 297.728 97.4732 297.58 97.4593C297.431 97.4455 297.282 97.479 297.153 97.5549C297.024 97.6308 296.923 97.7453 296.863 97.8822C296.803 98.0191 296.788 98.1713 296.82 98.3172L297.493 101.251C297.524 101.391 297.518 101.536 297.475 101.673C297.432 101.81 297.355 101.933 297.25 102.031C297.145 102.128 297.017 102.197 296.877 102.23C296.738 102.262 296.592 102.258 296.455 102.218L286.248 99.0199Z" fill="#B4702F"/>
<path d="M356.881 146.393C356.882 148.181 356.441 149.94 355.599 151.517C352.039 158.21 342.872 159.428 337.656 153.898L304.865 120.822C303.768 119.716 303.087 118.265 302.937 116.714L302.841 116.828L300.943 115.186C300.729 115.002 300.553 114.777 300.426 114.525C300.298 114.273 300.222 113.998 300.201 113.716C300.18 113.434 300.215 113.151 300.304 112.883C300.393 112.615 300.534 112.367 300.718 112.153L304.389 107.9C304.574 107.687 304.799 107.511 305.051 107.385C305.303 107.258 305.578 107.182 305.86 107.161C306.141 107.141 306.424 107.176 306.692 107.265C306.96 107.353 307.208 107.494 307.422 107.679L309.249 109.254C310.789 109.146 312.32 109.57 313.585 110.455L352.209 137.427C353.65 138.437 354.827 139.779 355.64 141.339C356.453 142.9 356.879 144.634 356.881 146.393Z" fill="white"/>
<path d="M316.302 131.539C316.939 130.877 317.703 130.348 318.547 129.985C319.392 129.622 320.3 129.432 321.219 129.426C322.139 129.419 323.05 129.597 323.899 129.948C324.749 130.299 325.519 130.817 326.166 131.47C326.812 132.124 327.321 132.9 327.663 133.753C328.004 134.607 328.172 135.52 328.155 136.439C328.138 137.358 327.938 138.264 327.566 139.105C327.193 139.945 326.656 140.702 325.987 141.332" stroke="#56303C" stroke-width="1.61937" stroke-miterlimit="10" stroke-linecap="round"/>
<path d="M340.799 156.77C345.264 159.11 350.974 157.904 354.416 154.014" stroke="#56303C" stroke-width="1.61937" stroke-miterlimit="10" stroke-linecap="round"/>
<path d="M452.841 229.857V244.304C452.001 241.586 450.333 239.2 448.069 237.478C445.804 235.756 443.058 234.786 440.215 234.704H439.818H415.729V229.864C415.728 229.228 415.853 228.598 416.096 228.01C416.34 227.422 416.696 226.888 417.146 226.438C417.596 225.988 418.129 225.632 418.717 225.388C419.305 225.145 419.935 225.019 420.571 225.019H448.006C449.288 225.021 450.517 225.532 451.423 226.438C452.33 227.345 452.84 228.574 452.841 229.857Z" fill="#A0D6FF"/>
<path d="M452.841 229.857V244.304C452.001 241.587 450.332 239.2 448.068 237.478C445.804 235.756 443.058 234.786 440.215 234.704V229.857C440.215 229.22 440.34 228.591 440.583 228.003C440.826 227.415 441.183 226.881 441.633 226.431C442.082 225.981 442.616 225.624 443.204 225.381C443.791 225.137 444.421 225.012 445.057 225.012H447.999C448.635 225.012 449.265 225.137 449.852 225.381C450.44 225.624 450.974 225.981 451.423 226.431C451.873 226.881 452.23 227.415 452.473 228.003C452.716 228.591 452.841 229.22 452.841 229.857Z" fill="#56303C"/>
<path d="M291.998 270.803H243.49C239.223 270.803 235.132 269.108 232.115 266.091C229.098 263.074 227.403 258.982 227.403 254.716C227.403 250.449 229.098 246.357 232.115 243.34C235.132 240.324 239.223 238.629 243.49 238.629H291.998C287.731 238.629 283.639 240.324 280.622 243.34C277.605 246.357 275.91 250.449 275.91 254.716C275.91 258.982 277.605 263.074 280.622 266.091C283.639 269.108 287.731 270.803 291.998 270.803Z" fill="#F5EFD9"/>
<path d="M452.841 254.718C452.84 258.984 451.145 263.075 448.128 266.092C445.111 269.108 441.02 270.803 436.754 270.803H291.998C287.731 270.803 283.639 269.108 280.622 266.091C277.606 263.074 275.911 258.982 275.911 254.716C275.911 250.449 277.606 246.357 280.622 243.34C283.639 240.324 287.731 238.629 291.998 238.629H436.754C438.867 238.629 440.959 239.045 442.911 239.853C444.863 240.662 446.636 241.847 448.13 243.341C449.624 244.835 450.809 246.609 451.617 248.561C452.425 250.513 452.841 252.605 452.841 254.718Z" fill="#EFDFC0"/>
<path d="M0 266.514C6.02539 262.269 13.2184 259.996 20.5889 260.008H20.6752C28.076 260.012 35.2917 262.321 41.3209 266.613L44.092 268.585C47.286 270.849 51.1042 272.064 55.0189 272.064C58.9336 272.064 62.7518 270.849 65.9458 268.585L69.3974 266.12C75.458 261.826 82.702 259.52 90.1293 259.52C97.5566 259.52 104.801 261.826 110.861 266.12L113.546 268.023C116.741 270.286 120.56 271.502 124.475 271.502C128.391 271.502 132.21 270.286 135.405 268.023L138.464 265.848C144.526 261.553 151.771 259.247 159.2 259.247C166.629 259.247 173.874 261.553 179.936 265.848L182.621 267.752C185.814 270.015 189.633 271.231 193.547 271.231C197.462 271.231 201.28 270.015 204.474 267.752L207.926 265.286C213.987 260.993 221.231 258.688 228.658 258.688C236.085 258.688 243.329 260.993 249.39 265.286L252.225 267.298C255.398 269.541 259.184 270.753 263.069 270.769C266.955 270.786 270.751 269.607 273.943 267.392L277.114 265.173C283.116 260.977 290.266 258.732 297.589 258.743H297.747C305.123 258.763 312.312 261.07 318.321 265.348L321.156 267.36C324.351 269.623 328.169 270.838 332.083 270.838C335.998 270.838 339.816 269.623 343.01 267.36L346.462 264.894C352.523 260.601 359.767 258.296 367.194 258.296C374.621 258.296 381.865 260.601 387.926 264.894L390.61 266.8C393.806 269.063 397.624 270.279 401.54 270.279C405.455 270.279 409.274 269.063 412.469 266.8L415.529 264.626C421.59 260.331 428.836 258.024 436.264 258.024C443.693 258.024 450.939 260.331 457 264.626V311.432H0V266.514Z" fill="white"/>
<path d="M4.86932 274.419C9.49356 271.172 15.0095 269.436 20.6599 269.449C26.3103 269.462 31.8181 271.224 36.427 274.493L39.1957 276.465C43.8224 279.746 49.3543 281.509 55.0264 281.509C60.6984 281.509 66.2303 279.746 70.857 276.465L74.3086 274C78.9353 270.719 84.4672 268.956 90.1393 268.956C95.8113 268.956 101.343 270.719 105.97 274L108.652 275.903C113.279 279.185 118.812 280.948 124.485 280.948C130.158 280.948 135.691 279.185 140.318 275.903L143.378 273.731C148.005 270.449 153.538 268.686 159.211 268.686C164.884 268.686 170.417 270.449 175.044 273.731L177.727 275.634C182.353 278.916 187.885 280.678 193.557 280.678C199.229 280.678 204.761 278.916 209.388 275.634L212.84 273.169C217.466 269.888 222.998 268.126 228.67 268.126C234.342 268.126 239.874 269.888 244.501 273.169L247.334 275.178C251.927 278.435 257.413 280.196 263.044 280.22C268.675 280.244 274.176 278.531 278.798 275.314L281.968 273.095C286.59 269.878 292.091 268.165 297.722 268.189C303.353 268.213 308.839 269.974 313.432 273.231L316.268 275.24C320.894 278.521 326.425 280.283 332.097 280.283C337.768 280.283 343.3 278.521 347.926 275.24L351.378 272.775C356.004 269.492 361.535 267.729 367.207 267.729C372.879 267.729 378.411 269.492 383.037 272.775L385.722 274.678C390.348 277.962 395.88 279.726 401.553 279.726C407.227 279.726 412.759 277.962 417.385 274.678L420.447 272.503C425.074 269.222 430.607 267.459 436.279 267.459C441.952 267.459 447.484 269.222 452.111 272.503" stroke="#A0D6FF" stroke-width="2.16138" stroke-miterlimit="10" stroke-linecap="round"/>
<path d="M4.86932 289.619C9.49356 286.372 15.0095 284.636 20.6599 284.649C26.3103 284.662 31.8181 286.424 36.427 289.693L39.1957 291.665C43.8224 294.946 49.3543 296.709 55.0264 296.709C60.6984 296.709 66.2303 294.946 70.857 291.665L74.3086 289.2C78.9353 285.919 84.4672 284.156 90.1393 284.156C95.8113 284.156 101.343 285.919 105.97 289.2L108.652 291.103C113.279 294.385 118.812 296.148 124.485 296.148C130.158 296.148 135.691 294.385 140.318 291.103L143.378 288.931C148.005 285.649 153.538 283.886 159.211 283.886C164.884 283.886 170.417 285.649 175.044 288.931L177.727 290.834C182.353 294.115 187.885 295.878 193.557 295.878C199.229 295.878 204.761 294.115 209.388 290.834L212.84 288.369C217.466 285.088 222.998 283.325 228.67 283.325C234.342 283.325 239.874 285.088 244.501 288.369L247.334 290.378C251.927 293.635 257.413 295.396 263.044 295.42C268.675 295.444 274.176 293.731 278.798 290.514L281.968 288.295C286.59 285.078 292.091 283.364 297.722 283.389C303.353 283.413 308.839 285.174 313.432 288.43L316.268 290.44C320.893 293.722 326.425 295.486 332.097 295.486C337.769 295.486 343.301 293.722 347.926 290.44L351.378 287.974C356.004 284.692 361.535 282.928 367.207 282.928C372.879 282.928 378.411 284.692 383.037 287.974L385.722 289.878C390.348 293.161 395.88 294.925 401.553 294.925C407.227 294.925 412.759 293.161 417.385 289.878L420.447 287.706C425.074 284.422 430.606 282.658 436.279 282.658C441.952 282.658 447.485 284.422 452.111 287.706" stroke="#A0D6FF" stroke-width="2.16138" stroke-miterlimit="10" stroke-linecap="round"/>
<path d="M4.86932 304.338C9.49382 301.091 15.0099 299.356 20.6603 299.369C26.3107 299.383 31.8183 301.145 36.427 304.414L39.1957 306.387C43.8224 309.668 49.3543 311.43 55.0264 311.43C60.6984 311.43 66.2303 309.668 70.857 306.387L74.3086 303.921C78.9353 300.64 84.4672 298.878 90.1393 298.878C95.8113 298.878 101.343 300.64 105.97 303.921L108.652 305.825C113.279 309.107 118.812 310.87 124.485 310.87C130.158 310.87 135.691 309.107 140.318 305.825L143.378 303.65C148.005 300.368 153.538 298.605 159.211 298.605C164.884 298.605 170.417 300.368 175.044 303.65L177.727 305.556C182.353 308.837 187.885 310.599 193.557 310.599C199.229 310.599 204.761 308.837 209.388 305.556L212.84 303.09C217.466 299.809 222.998 298.047 228.67 298.047C234.342 298.047 239.874 299.809 244.501 303.09L247.334 305.102C251.927 308.359 257.414 310.119 263.045 310.143C268.675 310.167 274.177 308.453 278.798 305.235L281.968 303.016C286.59 299.799 292.091 298.086 297.722 298.11C303.353 298.135 308.839 299.895 313.432 303.152L316.268 305.161C320.893 308.444 326.425 310.207 332.097 310.207C337.769 310.207 343.301 308.444 347.926 305.161L351.378 302.696C356.004 299.415 361.536 297.653 367.207 297.653C372.879 297.653 378.41 299.415 383.037 302.696L385.722 304.599C390.348 307.883 395.88 309.647 401.553 309.647C407.227 309.647 412.759 307.883 417.385 304.599L420.447 302.427C425.074 299.144 430.606 297.38 436.279 297.38C441.952 297.38 447.485 299.144 452.111 302.427" stroke="#A0D6FF" stroke-width="2.16138" stroke-miterlimit="10" stroke-linecap="round"/>
<path d="M335.166 194.169L331.86 197.483C330.807 198.534 329.379 199.125 327.892 199.125C326.404 199.125 324.976 198.534 323.923 197.483L320.992 194.549C320.937 196.459 320.218 198.289 318.96 199.727C318.315 200.458 317.546 201.07 316.69 201.536L316.258 201.783L311.12 204.601L310.802 204.108C310.27 203.271 309.94 202.32 309.841 201.333C309.742 200.346 309.875 199.349 310.23 198.422C308.44 196.319 307.831 193.649 308.894 191.433C309.392 190.405 310.198 189.558 311.199 189.009C309.983 188.915 308.796 188.59 307.701 188.053C306.321 187.423 305.121 186.457 304.212 185.242C305.235 184.461 306.455 183.978 307.736 183.847C309.016 183.717 310.308 183.944 311.468 184.502L316.285 186.81C317.635 187.446 318.786 188.437 319.614 189.678C320.442 190.918 320.916 192.361 320.985 193.851L323.923 190.913C324.444 190.391 325.063 189.978 325.744 189.696C326.425 189.414 327.155 189.269 327.892 189.269C328.628 189.269 329.358 189.414 330.039 189.696C330.72 189.978 331.339 190.391 331.86 190.913L335.166 194.169Z" fill="#56303C"/>
<path d="M321.411 192.37V195.967" stroke="white" stroke-width="2.43072" stroke-linecap="round" stroke-linejoin="round"/>
<path d="M301.086 207.246L301.611 204.231C301.678 203.858 301.62 203.474 301.446 203.138C301.273 202.802 300.994 202.532 300.652 202.369L298.241 201.213C297.692 200.95 297.27 200.479 297.068 199.905C296.865 199.331 296.899 198.7 297.161 198.151L298.665 195.01L297.881 193.883C297.825 193.803 297.786 193.711 297.768 193.614C297.75 193.517 297.752 193.418 297.776 193.322C297.799 193.226 297.842 193.137 297.903 193.059C297.964 192.982 298.04 192.918 298.128 192.872L299.397 192.189C299.94 191.9 300.377 191.446 300.645 190.893L302.154 187.739C302.626 186.748 303.327 185.884 304.2 185.217C305.109 186.432 306.308 187.398 307.689 188.028C308.784 188.565 309.971 188.89 311.187 188.984C310.186 189.533 309.38 190.38 308.882 191.408C307.928 193.395 308.32 195.747 309.7 197.729C310.184 197.325 310.795 197.103 311.426 197.103C311.828 197.104 312.225 197.194 312.587 197.367C313.044 197.586 313.43 197.93 313.7 198.358C313.97 198.787 314.114 199.284 314.113 199.79C314.114 200.192 314.023 200.588 313.847 200.949C313.695 201.267 313.482 201.552 313.219 201.788C312.957 202.024 312.65 202.205 312.318 202.323C311.985 202.44 311.632 202.49 311.28 202.471C310.928 202.452 310.583 202.364 310.265 202.212L309.954 202.061C310.115 202.778 310.399 203.462 310.793 204.083L311.111 204.576L301.086 207.246Z" fill="#B4702F"/>
<path d="M302.23 193.225C302.001 193.718 302.115 194.243 302.477 194.421C302.839 194.598 303.337 194.352 303.569 193.868C303.801 193.385 303.687 192.85 303.323 192.673C302.958 192.495 302.462 192.742 302.23 193.225Z" fill="#56303C"/>
<path d="M303.138 190.266C302.93 190.473 303.357 191.237 304.089 191.97C304.821 192.702 305.586 193.128 305.793 192.921C306 192.714 305.573 191.952 304.841 191.218C304.109 190.483 303.345 190.059 303.138 190.266Z" fill="#56303C"/>
<path d="M310.369 199.825C310.369 199.825 310.939 198.456 312.403 199.511" stroke="#56303C" stroke-width="1.26025" stroke-miterlimit="10" stroke-linecap="round"/>
<path d="M286.359 238.528H325.018C322.025 228.212 317.747 216.861 315.649 209.929C315.189 208.407 314.309 207.046 313.11 206.002C311.912 204.958 310.443 204.273 308.873 204.025C307.303 203.778 305.694 203.978 304.233 204.603C302.771 205.228 301.516 206.253 300.61 207.559L286.359 238.528Z" fill="#FFAFB1"/>
<path d="M307.173 223.418L299.58 238.147" stroke="white" stroke-width="2.28441" stroke-linecap="round" stroke-linejoin="round"/>
<path d="M205.241 107.917L215.251 69.6315C217.652 62.5261 218.668 60.5907 228.071 58.8403L238.495 56.9197C243.478 56.9197 247.731 59.0843 248.542 64.0029L257.75 119.742C258.042 122.294 257.79 124.88 257.013 127.329C256.236 129.778 254.95 132.035 253.24 133.953C251.53 135.87 249.434 137.405 247.09 138.457C244.746 139.508 242.206 140.053 239.637 140.055H228.424C211.59 140.055 201.166 124.244 205.241 107.917Z" fill="white"/>
<path d="M234.937 58.7172C234.711 58.4007 234.552 58.0405 234.471 57.6596L238.492 56.9199C243.34 56.9199 247.499 58.9712 248.465 63.6087L249.545 70.0854L234.937 58.7172Z" fill="#A0D6FF"/>
<path d="M215.759 114.36L242.802 87.3901C245.971 84.2323 250.262 82.4591 254.735 82.4592H261.313C264.558 82.4591 267.734 83.3932 270.462 85.1498C273.19 86.9065 275.355 89.4114 276.697 92.3654L298.373 140.055H263.32L257.531 129.966C256.442 132.925 254.472 135.479 251.885 137.283C249.299 139.087 246.222 140.055 243.069 140.055H226.382C212.968 140.055 206.262 123.829 215.759 114.36Z" fill="#56303C"/>
<path d="M303.827 140.055C302.201 140.055 300.609 139.587 299.242 138.707C297.875 137.827 296.79 136.572 296.117 135.092L293.788 129.967L274.545 136.059C274.545 137.119 274.966 138.135 275.715 138.885C276.465 139.634 277.481 140.055 278.541 140.055H303.827Z" fill="white"/>
<path d="M289.581 140.055C287.956 140.055 286.365 139.587 284.998 138.707C283.632 137.827 282.547 136.572 281.874 135.092L279.545 129.967L260.299 136.059C260.299 137.119 260.72 138.135 261.47 138.885C262.219 139.634 263.236 140.055 264.296 140.055H289.581Z" fill="white"/>
<path d="M262.935 92.3657L281.749 134.816C282.459 136.378 283.604 137.702 285.047 138.631C286.49 139.56 288.169 140.054 289.885 140.055H301.497" stroke="#D9AF00" stroke-width="2.16138" stroke-miterlimit="10" stroke-linecap="round"/>
<path d="M247.097 107.013L260.647 136.823" stroke="white" stroke-width="2.16138" stroke-linecap="round" stroke-linejoin="round"/>
<path d="M293.095 133.795L296.359 132.856" stroke="#D9AF00" stroke-width="1.80225" stroke-miterlimit="10" stroke-linecap="round"/>
<path d="M279.165 134.274L282.91 132.856" stroke="#D9AF00" stroke-width="1.80225" stroke-miterlimit="10" stroke-linecap="round"/>
<path d="M260.159 136.339C261.054 138.312 263.016 140.05 265.178 140.05H302.421" stroke="#D9AF00" stroke-width="2.16138" stroke-miterlimit="10" stroke-linecap="round"/>
<path d="M224.76 59.8218C225.753 59.822 226.735 60.0245 227.647 60.4167C228.558 60.8089 229.381 61.3827 230.064 62.1031C230.746 62.8236 231.275 63.6755 231.618 64.6071C231.961 65.5386 232.111 66.5302 232.058 67.5214L231.136 83.564L253.256 82.9871L254.059 91.4436L227.053 98.226C225.666 98.5739 224.217 98.5879 222.824 98.2668C221.432 97.9456 220.135 97.2985 219.041 96.3787C217.947 95.4589 217.087 94.2925 216.531 92.9756C215.975 91.6586 215.74 90.2286 215.845 88.8031L217.502 66.2738C217.712 64.4965 218.567 62.8581 219.905 61.669C221.243 60.4798 222.97 59.8226 224.76 59.8218Z" fill="white"/>
<path d="M254.057 91.4433L227.051 98.2257C225.665 98.5736 224.215 98.5876 222.823 98.2664C221.43 97.9453 220.133 97.2982 219.039 96.3784C217.945 95.4586 217.085 94.2922 216.529 92.9753C215.974 91.6583 215.738 90.2283 215.843 88.8028L216.316 82.3926" stroke="#A0D6FF" stroke-width="1.80225" stroke-miterlimit="10"/>
<path d="M232.059 69.4741L231.136 83.5641L253.254 82.9872" stroke="#A0D6FF" stroke-width="1.80225" stroke-miterlimit="10"/>
<path d="M227.416 84.1776L231.136 83.5637" stroke="#A0D6FF" stroke-width="1.80225" stroke-miterlimit="10"/>
<path d="M253.256 82.3884H260.879C261.988 82.3874 263.055 82.8139 263.858 83.5792L268.049 87.2774C268.104 87.3293 268.146 87.393 268.172 87.4637C268.198 87.5344 268.208 87.6101 268.2 87.6851C268.193 87.7601 268.168 87.8324 268.128 87.8963C268.088 87.9603 268.034 88.0142 267.97 88.054L264.75 90.5195C264.355 90.7661 263.891 90.8799 263.427 90.8445C262.963 90.809 262.522 90.626 262.169 90.3222L260.751 89.0895L254.05 92.1491L253.256 82.3884Z" fill="#B4702F"/>
<path d="M255.253 51.6365C255.033 55.5812 251.488 59.7897 248.224 61.6856L235.258 56.7892C234.439 60.4751 229.962 63.2956 224.563 63.2956C221.688 63.2956 219.072 62.4943 217.132 61.1876C215.508 62.7419 213.355 63.6222 211.107 63.6505C208.859 63.6789 206.684 62.8533 205.022 61.3405L194.975 52.2183L194.775 52.4427C194.315 52.9595 193.757 53.3805 193.133 53.6816C192.51 53.9827 191.833 54.1581 191.142 54.1977C190.451 54.2373 189.759 54.1404 189.105 53.9124C188.451 53.6845 187.849 53.33 187.332 52.8692L186.033 51.7104L187.191 50.4111C187.652 49.8943 188.21 49.4733 188.834 49.1722C189.457 48.8711 190.134 48.6957 190.825 48.6561C191.516 48.6165 192.208 48.7134 192.862 48.9414C193.516 49.1693 194.118 49.5238 194.635 49.9846L194.795 50.1251L200.586 43.5202C201.547 42.4117 202.72 41.5066 204.036 40.8582C205.352 40.2097 206.785 39.8311 208.249 39.7445C209.714 39.6579 211.181 39.8651 212.564 40.3539C213.947 40.8427 215.219 41.6032 216.303 42.5907L217.267 43.466L217.761 42.8866C218.612 41.9051 219.65 41.1038 220.816 40.5298C221.981 39.9558 223.25 39.6207 224.546 39.5442C225.843 39.4677 227.142 39.6514 228.367 40.0844C229.592 40.5174 230.717 41.191 231.678 42.0656L233.764 43.9591C234.976 42.451 236.532 41.2557 238.302 40.4737C240.071 39.6916 242.003 39.3455 243.934 39.4646C250.544 39.8393 255.605 45.2855 255.253 51.6365Z" fill="#56303C"/>
<path d="M194.634 49.0305V53.4116" stroke="#A0D6FF" stroke-width="1.80225" stroke-miterlimit="10" stroke-linecap="round"/>
<path d="M250.171 56.3331L248.976 57.9036C248.33 58.754 248.029 59.8167 248.132 60.8794L248.266 62.2058C248.271 62.2649 248.264 62.3245 248.244 62.3805C248.224 62.4365 248.193 62.4877 248.152 62.5305C248.111 62.5732 248.061 62.6067 248.005 62.6285C247.95 62.6503 247.891 62.6601 247.832 62.657L245.677 62.5288L243.973 64.4099C242.186 66.1357 239.042 65.2457 237.563 63.1772L235.189 59.5407C234.81 58.9646 234.571 58.3073 234.493 57.6221C234.414 56.9369 234.498 56.2428 234.738 55.5959C234.323 55.3988 233.965 55.0997 233.698 54.7265C233.43 54.3533 233.262 53.9183 233.208 53.4622C233.155 53.0062 233.218 52.544 233.392 52.1191C233.566 51.6942 233.845 51.3204 234.203 51.0327C234.561 50.7451 234.986 50.553 235.438 50.4745C235.891 50.396 236.356 50.4336 236.789 50.5839C237.223 50.7342 237.612 50.9921 237.919 51.3336C238.226 51.6751 238.441 52.0889 238.544 52.5363C242.861 54.0896 247.336 53.843 251.118 51.7967C251.294 52.5765 251.301 53.3851 251.138 54.1677C250.974 54.9504 250.645 55.6888 250.171 56.3331Z" fill="#B4702F"/>
<path d="M246.845 56.8189C245.852 56.8128 244.866 56.6342 243.934 56.2913" stroke="#56303C" stroke-width="1.26025" stroke-miterlimit="10" stroke-linecap="round"/>
<path d="M243.887 59.3877C243.802 59.3245 243.732 59.2437 243.681 59.1509C243.63 59.0581 243.599 58.9553 243.591 58.8496C243.583 58.744 243.598 58.6378 243.635 58.5384C243.671 58.439 243.729 58.3486 243.803 58.2733C243.941 58.0957 244.139 57.9744 244.359 57.9322C244.58 57.89 244.808 57.9298 245.002 58.044C245.087 58.1073 245.157 58.188 245.208 58.2809C245.259 58.3737 245.29 58.4764 245.298 58.5821C245.306 58.6878 245.291 58.7939 245.254 58.8934C245.218 58.9928 245.16 59.0832 245.086 59.1584C244.948 59.3365 244.751 59.4581 244.53 59.5004C244.309 59.5426 244.081 59.5025 243.887 59.3877Z" fill="#56303C"/>
<path d="M235.79 52.2053C236.53 52.3656 236.971 53.2458 236.777 54.1777" stroke="#56303C" stroke-width="1.26025" stroke-miterlimit="10" stroke-linecap="round"/>
<path d="M174.238 82.4812L137.355 82.9053L155.388 96.4356L174.238 82.4812Z" fill="#56303C"/>
<path d="M181.79 70.0182V97.2392H158.506C156.592 97.1847 154.774 96.3857 153.438 95.0119C152.103 93.6382 151.357 91.798 151.357 89.8824V72.7968C151.357 72.3306 151.172 71.8835 150.842 71.5538C150.512 71.2241 150.065 71.0389 149.599 71.0389C149.283 71.0492 148.968 70.9957 148.673 70.8818C148.378 70.7679 148.109 70.5958 147.881 70.3759C147.654 70.1559 147.474 69.8924 147.35 69.6012C147.227 69.31 147.163 68.997 147.163 68.6807C147.163 68.3645 147.227 68.0514 147.35 67.7602C147.474 67.469 147.654 67.2056 147.881 66.9856C148.109 66.7656 148.378 66.5936 148.673 66.4797C148.968 66.3657 149.283 66.3123 149.599 66.3225H151.009C152.513 66.3225 153.955 66.92 155.019 67.9834C156.082 69.0468 156.68 70.4892 156.68 71.9931V88.3932C156.679 89.1134 156.845 89.8239 157.164 90.4693C157.484 91.1147 157.948 91.6775 158.521 92.1136V82.6241C158.524 79.2825 159.852 76.0784 162.215 73.715C164.577 71.3517 167.781 70.0222 171.122 70.0182H181.79Z" fill="#D9AF00"/>
<path d="M185.111 95.4368C185.111 96.9407 183.612 97.8702 181.763 97.8702C179.914 97.8702 178.412 96.9407 178.412 95.4368C178.412 93.9329 179.911 92.7002 181.758 92.7002C183.605 92.7002 185.111 93.9329 185.111 95.4368Z" fill="#D9AF00"/>
<path d="M180.528 96.958V97.3081" stroke="#56303C" stroke-width="1.26025" stroke-miterlimit="10" stroke-linecap="round"/>
<path d="M182.855 96.958V97.3081" stroke="#56303C" stroke-width="1.26025" stroke-miterlimit="10" stroke-linecap="round"/>
<path d="M177.537 95.4368C177.537 96.9407 176.038 97.8702 174.189 97.8702C172.34 97.8702 170.839 96.9407 170.839 95.4368C170.839 93.9329 172.338 92.7002 174.189 92.7002C176.041 92.7002 177.537 93.9329 177.537 95.4368Z" fill="#B4702F"/>
<path d="M172.951 96.958V97.3081" stroke="#56303C" stroke-width="1.26025" stroke-miterlimit="10" stroke-linecap="round"/>
<path d="M175.281 96.958V97.3081" stroke="#56303C" stroke-width="1.26025" stroke-miterlimit="10" stroke-linecap="round"/>
<path d="M181.595 92.5644C179.746 92.5644 178.247 93.7848 178.247 95.2912V83.8244L180.219 82.4758" stroke="#56303C" stroke-width="1.26025" stroke-miterlimit="10" stroke-linecap="round"/>
<path d="M178.22 76.5393C173.433 77.5797 169.52 77.3134 168.198 72.772C168.151 72.6159 168.109 72.4556 168.073 72.2913C168.045 72.1261 168.026 71.9634 168.011 71.7982C167.496 66.7416 170.533 62.3358 175.331 61.2954C180.129 60.255 184.633 63.0212 185.999 67.9176C186.041 68.0655 186.078 68.211 186.115 68.3638C186.137 68.5241 186.157 68.6843 186.171 68.8397C186.623 73.6177 183.023 75.5013 178.22 76.5393Z" fill="#D9AF00"/>
<path d="M178.851 76.5394C174.064 77.5798 169.52 77.3136 168.198 72.7722" stroke="#56303C" stroke-width="1.26025" stroke-miterlimit="10" stroke-linecap="round"/>
<path d="M181.415 72.0845C183.612 71.6392 185.004 69.3623 184.525 66.999C184.046 64.6356 181.877 63.0807 179.68 63.526C177.484 63.9713 176.091 66.2482 176.571 68.6115C177.05 70.9749 179.219 72.5298 181.415 72.0845Z" fill="#B4702F"/>
<path d="M185.298 60.5678L185.229 65.9598C184.21 63.9363 182.458 62.3768 180.33 61.5984L183.138 59.663C183.33 59.5299 183.552 59.4472 183.785 59.4227C184.017 59.3982 184.251 59.4327 184.467 59.5229C184.682 59.6131 184.871 59.7561 185.016 59.9388C185.162 60.1214 185.259 60.3378 185.298 60.5678Z" fill="#B4702F"/>
<path d="M182.569 62.5351C182.949 61.1841 184.149 60.3877 184.987 60.3877" stroke="#56303C" stroke-width="1.26025" stroke-miterlimit="10" stroke-linecap="round"/>
<path d="M171.635 62.994C169.675 64.511 168.391 66.7384 168.06 69.1946L165.812 63.8052C165.758 63.5768 165.763 63.3386 165.827 63.1128C165.89 62.887 166.009 62.6808 166.174 62.5135C166.338 62.3462 166.542 62.2231 166.767 62.1559C166.991 62.0886 167.229 62.0792 167.459 62.1287L171.635 62.994Z" fill="#B4702F"/>
<path d="M169.265 65.3337C168.39 64.2391 166.975 63.9703 166.201 64.2958" stroke="#56303C" stroke-width="1.26025" stroke-miterlimit="10" stroke-linecap="round"/>
<path d="M174.224 69.5247C174.252 69.6624 174.238 69.8053 174.185 69.9353C174.132 70.0653 174.041 70.1766 173.925 70.2551C173.808 70.3336 173.671 70.3757 173.53 70.3762C173.39 70.3766 173.252 70.3354 173.135 70.2577C173.018 70.18 172.927 70.0694 172.873 69.9397C172.819 69.8101 172.804 69.6673 172.831 69.5294C172.858 69.3915 172.926 69.2648 173.025 69.1652C173.124 69.0656 173.25 68.9977 173.388 68.97C173.572 68.9329 173.764 68.9705 173.921 69.0745C174.077 69.1785 174.186 69.3404 174.224 69.5247Z" fill="#56303C"/>
<path d="M181.265 68.1025C181.284 68.1939 181.284 68.2881 181.266 68.3797C181.248 68.4713 181.212 68.5584 181.161 68.6361C181.109 68.7139 181.043 68.7806 180.965 68.8327C180.888 68.8847 180.801 68.921 180.709 68.9395C180.618 68.9579 180.524 68.9582 180.432 68.9403C180.341 68.9223 180.253 68.8865 180.176 68.8349C180.098 68.7832 180.031 68.7168 179.979 68.6394C179.927 68.5619 179.891 68.475 179.872 68.3835C179.835 68.1988 179.873 68.0068 179.977 67.8499C180.081 67.6929 180.244 67.5838 180.428 67.5465C180.613 67.5092 180.805 67.5469 180.962 67.6511C181.119 67.7554 181.228 67.9177 181.265 68.1025Z" fill="#56303C"/>
<path d="M177.978 71.645L177.219 71.7979" stroke="#56303C" stroke-width="1.26025" stroke-miterlimit="10" stroke-linecap="round"/>
<path d="M179.076 72.9396C178.921 72.9713 178.761 72.972 178.606 72.9418C178.45 72.9115 178.302 72.8509 178.17 72.7634C178.038 72.676 177.925 72.5633 177.837 72.4319C177.748 72.3005 177.687 72.153 177.656 71.9978" stroke="#56303C" stroke-width="1.26025" stroke-miterlimit="10" stroke-linecap="round"/>
<path d="M176.753 73.4108C177.066 73.3467 177.341 73.1612 177.517 72.8951C177.693 72.629 177.757 72.3039 177.695 71.9907" stroke="#56303C" stroke-width="1.26025" stroke-miterlimit="10" stroke-linecap="round"/>
</g>
<defs>
<clipPath id="clip0_3_693">
<rect width="457" height="313" fill="white"/>
</clipPath>
</defs>
</svg>
